<?xml version="1.0" standalone="no"?>
<!DOCTYPE svg PUBLIC "-//W3C//DTD SVG 20010904//EN"
 "http://www.w3.org/TR/2001/REC-SVG-20010904/DTD/svg10.dtd">
<svg version="1.0" xmlns="http://www.w3.org/2000/svg"
 width="1488.000000pt" height="420.000000pt" viewBox="0 0 1488.000000 420.000000"
 preserveAspectRatio="xMidYMid meet">

<g transform="translate(0.000000,420.000000) scale(0.100000,-0.100000)"
fill="#000000" stroke="none">
<path d="M2171 3609 c-21 -17 -41 -19 -207 -19 l-183 0 -33 -28 c-23 -20 -49
-31 -83 -36 -97 -12 -135 -65 -135 -190 l0 -79 26 24 c21 20 38 24 100 27 41
2 74 1 74 -2 0 -4 -16 -70 -36 -148 -19 -78 -32 -148 -29 -156 6 -17 65 -9
107 16 15 9 29 14 31 11 2 -2 12 -28 23 -58 10 -30 24 -56 30 -58 7 -2 22 24
35 61 l23 64 26 -17 c14 -10 42 -21 63 -25 30 -6 39 -4 44 10 5 15 -7 160 -24
267 -5 33 -3 37 17 37 48 0 110 60 110 107 0 11 9 28 20 38 23 21 32 62 28
127 l-3 46 -24 -19z m-281 -100 l35 -22 -42 -20 c-35 -17 -45 -18 -57 -7 -21
17 -20 47 2 59 23 14 22 14 62 -10z"/>
<path d="M1190 3554 c-80 -35 -172 -70 -205 -79 -94 -25 -245 -30 -346 -11
-47 9 -89 16 -92 16 -4 0 -7 -26 -7 -59 0 -66 23 -111 78 -147 44 -30 141 -38
275 -24 120 13 140 7 135 -39 -5 -41 -58 -54 -223 -55 -77 -1 -158 1 -180 4
l-40 5 -3 -45 c-4 -64 31 -127 88 -157 36 -19 58 -23 134 -23 50 1 124 7 165
14 65 11 75 11 93 -4 23 -19 18 -54 -10 -69 -43 -23 -181 -42 -282 -40 -104 3
-105 3 -108 -21 -6 -35 15 -95 44 -129 55 -66 149 -75 334 -30 101 24 96 24
115 -5 30 -45 4 -67 -130 -111 -42 -13 -105 -28 -141 -31 -73 -8 -78 -17 -45
-90 30 -66 72 -89 161 -89 64 0 89 6 168 38 90 37 94 38 113 21 11 -10 19 -27
17 -38 -4 -28 -82 -79 -174 -113 -49 -19 -74 -33 -74 -44 0 -30 45 -84 90
-107 69 -36 121 -27 226 37 82 51 86 52 110 37 42 -28 31 -54 -62 -144 -86
-82 -86 -83 -68 -104 26 -29 92 -58 134 -58 49 0 112 31 142 70 l25 32 26 -64
c30 -70 57 -176 57 -224 0 -64 -207 -204 -383 -258 -22 -7 -16 -36 19 -82 59
-79 164 -85 279 -16 39 24 80 50 93 59 l22 15 0 -61 0 -61 -60 -39 c-33 -22
-81 -47 -106 -58 -42 -17 -45 -20 -39 -47 17 -89 113 -139 199 -106 l26 10 0
-104 0 -103 39 -44 39 -44 41 43 41 43 0 99 0 100 58 -6 c88 -10 149 31 166
111 6 28 4 31 -39 48 -25 11 -72 36 -105 58 l-60 39 0 61 0 61 23 -16 c12 -9
54 -35 92 -58 65 -40 75 -43 140 -43 57 0 76 4 103 23 31 23 79 98 68 109 -3
3 -35 16 -71 28 -84 30 -184 89 -263 156 -52 43 -62 57 -62 83 0 48 27 154 57
224 l26 64 25 -32 c30 -39 93 -70 142 -70 42 0 108 29 134 58 18 21 18 22 -68
104 -93 90 -104 116 -62 144 24 15 28 14 110 -37 105 -64 157 -73 226 -37 45
23 90 77 90 107 0 11 -25 25 -74 44 -92 34 -170 85 -174 113 -2 11 6 28 17 38
19 17 23 16 113 -20 160 -65 260 -57 314 26 14 21 27 53 30 72 l6 35 -65 7
c-36 3 -100 18 -142 31 -134 44 -160 66 -130 111 19 29 14 29 115 5 185 -45
279 -36 334 30 29 34 50 94 44 129 -3 24 -4 24 -108 21 -111 -2 -246 19 -287
45 -28 18 -30 48 -3 67 16 11 31 11 92 1 115 -21 244 -18 292 6 60 29 91 80
91 149 l0 56 -40 -5 c-22 -3 -103 -5 -180 -4 -165 1 -218 14 -223 55 -5 46 15
52 135 39 245 -26 342 19 351 165 5 75 11 72 -98 49 -90 -19 -253 -14 -345 11
-33 9 -129 45 -212 81 -84 35 -165 64 -181 64 -57 0 -60 -12 -64 -275 -3 -234
-4 -241 -29 -295 -47 -101 -119 -164 -231 -205 -54 -19 -67 -29 -89 -66 -14
-24 -38 -51 -53 -59 -26 -14 -28 -14 -54 16 -15 17 -34 44 -43 60 -11 21 -29
34 -60 43 -110 33 -193 101 -241 199 l-33 66 -3 241 c-4 270 -5 276 -71 274
-20 -1 -100 -30 -181 -65z"/>
<path d="M9844 3410 c-263 -37 -471 -224 -530 -475 -25 -107 -16 -296 18 -393
70 -197 232 -345 438 -399 89 -23 273 -23 359 1 224 61 387 224 447 446 24 88
24 272 1 360 -60 223 -226 386 -450 444 -75 19 -206 27 -283 16z m237 -287
c185 -82 256 -358 146 -566 -96 -183 -339 -225 -492 -85 -122 112 -157 318
-80 486 59 129 168 195 310 189 43 -2 88 -12 116 -24z"/>
<path d="M12445 3395 c-141 -31 -250 -104 -305 -206 -33 -61 -35 -69 -35 -164
0 -89 3 -105 27 -150 65 -123 165 -179 415 -230 191 -40 243 -71 243 -146 0
-82 -72 -121 -220 -120 -115 0 -240 21 -361 60 l-90 29 3 -136 3 -137 106 -27
c134 -33 318 -53 423 -44 209 17 347 89 417 218 33 60 34 67 34 168 0 95 -3
110 -27 155 -66 124 -180 186 -432 235 -171 33 -226 66 -226 134 0 138 252
165 573 63 l78 -25 -3 136 -3 136 -45 14 c-25 7 -89 22 -143 33 -115 23 -338
25 -432 4z"/>
<path d="M4336 3379 c5 -13 10 -297 11 -631 l3 -608 284 0 c208 0 306 4 370
15 257 45 419 191 482 435 22 86 22 271 0 364 -50 208 -201 358 -423 418 -70
19 -113 21 -407 26 l-329 4 9 -23z m676 -272 c69 -34 120 -91 150 -166 18 -46
22 -76 22 -171 0 -95 -4 -125 -22 -171 -60 -151 -184 -214 -407 -207 l-90 3
-3 373 -2 374 147 -4 c138 -3 152 -5 205 -31z"/>
<path d="M5945 3383 c4 -10 7 -25 7 -33 0 -8 -93 -258 -205 -555 -112 -297
-214 -566 -225 -598 l-22 -57 162 2 161 3 42 125 42 125 238 0 238 0 42 -125
42 -125 162 -3 c129 -2 162 0 158 10 -2 7 -109 291 -237 631 l-233 617 -190 0
c-176 0 -189 -1 -182 -17z m290 -560 l62 -183 -153 0 -153 0 23 63 c13 34 47
132 76 217 l54 154 14 -34 c8 -19 42 -117 77 -217z"/>
<path d="M6890 3393 c1 -5 7 -19 15 -33 12 -21 14 -123 15 -622 l0 -598 450 0
450 0 0 125 0 125 -295 0 -295 0 0 505 0 505 -170 0 c-93 0 -170 -3 -170 -7z"/>
<path d="M7965 3370 c13 -25 15 -111 15 -630 l0 -600 155 0 155 0 0 255 0 255
255 0 255 0 0 -255 0 -255 155 0 155 0 0 630 0 630 -170 0 -171 0 16 -30 c12
-23 15 -71 15 -250 l0 -220 -255 0 -255 0 0 250 0 250 -170 0 -171 0 16 -30z"/>
<path d="M10750 3393 c1 -5 7 -19 15 -33 12 -20 14 -93 15 -393 0 -408 7 -472
61 -580 58 -114 150 -190 287 -235 66 -21 96 -25 207 -26 143 -1 219 14 315
62 69 34 160 122 193 188 60 119 61 122 65 592 l3 432 -170 0 c-94 0 -171 -2
-171 -5 0 -4 7 -20 16 -36 13 -26 15 -82 12 -407 -3 -358 -4 -379 -24 -422
-26 -56 -90 -115 -141 -129 -133 -37 -257 10 -310 118 l-28 56 -3 413 -3 412
-169 0 c-94 0 -170 -3 -170 -7z"/>
<path d="M13310 3388 c1 -7 7 -24 15 -38 12 -21 14 -123 15 -617 l0 -593 155
0 155 0 -2 628 -3 627 -167 3 c-131 2 -168 0 -168 -10z"/>
<path d="M13895 3370 c13 -25 15 -111 15 -630 l0 -600 470 0 470 0 0 125 0
125 -312 2 -313 3 -3 128 -3 127 271 0 270 0 0 120 0 120 -267 2 -268 3 -3
123 -3 122 316 0 315 0 0 130 0 130 -485 0 -486 0 16 -30z"/>
<path d="M11431 1859 c-196 -33 -311 -197 -260 -370 30 -99 106 -145 319 -194
85 -20 172 -46 194 -58 90 -50 115 -153 54 -223 -38 -43 -78 -62 -157 -75 -62
-10 -156 3 -203 27 -43 23 -95 80 -103 113 -7 31 -7 31 -76 31 -79 0 -82 -5
-49 -78 61 -134 189 -202 380 -202 273 0 423 154 361 373 -16 56 -76 127 -128
152 -20 10 -113 37 -206 61 -224 57 -259 80 -259 170 0 97 94 168 222 168 120
0 206 -53 230 -144 l11 -40 64 0 c61 0 65 1 65 23 0 44 -32 116 -70 159 -48
55 -129 95 -217 108 -78 11 -98 11 -172 -1z"/>
<path d="M4360 1476 c0 -344 2 -379 20 -438 25 -81 73 -138 147 -174 49 -25
71 -29 173 -32 177 -7 282 34 343 132 50 79 57 145 57 534 l0 352 -64 0 -65 0
-3 -373 -3 -373 -26 -49 c-33 -66 -95 -105 -177 -112 -114 -11 -201 29 -245
110 -21 41 -22 51 -25 420 l-3 377 -65 0 -64 0 0 -374z"/>
<path d="M5620 1345 l0 -505 65 0 65 0 2 392 3 392 265 -389 265 -390 63 -3
62 -3 0 506 0 505 -65 0 -65 0 0 -385 c0 -212 -3 -385 -7 -385 -5 0 -125 174
-268 385 l-260 384 -62 1 -63 0 0 -505z"/>
<path d="M6980 1345 l0 -505 65 0 65 0 0 505 0 505 -65 0 -65 0 0 -505z"/>
<path d="M7599 1713 c27 -76 106 -304 176 -506 l128 -368 80 3 80 3 177 500
178 500 -61 3 c-33 2 -63 -1 -67 -5 -4 -4 -73 -196 -155 -425 -82 -230 -151
-415 -154 -412 -3 3 -72 193 -152 422 l-146 417 -66 3 -67 3 49 -138z"/>
<path d="M8810 1345 l0 -505 325 0 325 0 0 60 0 60 -260 0 -260 0 0 170 0 170
230 0 230 0 0 55 0 55 -230 0 -230 0 0 165 0 165 255 0 255 0 0 55 0 55 -320
0 -320 0 0 -505z"/>
<path d="M9950 1346 l0 -506 65 0 65 0 2 218 3 217 129 3 c72 1 134 -2 139 -7
5 -5 49 -103 98 -218 l88 -208 70 -3 c70 -3 71 -3 62 20 -5 13 -50 116 -99
229 l-89 206 33 16 c120 58 183 192 154 332 -16 77 -60 133 -135 170 l-60 30
-262 3 -263 3 0 -505z m511 372 c56 -33 79 -76 79 -150 0 -78 -24 -117 -94
-152 -57 -29 -63 -30 -210 -30 l-151 -1 -3 170 c-1 93 0 176 3 183 4 11 36 13
168 11 155 -4 164 -5 208 -31z"/>
<path d="M12400 1345 l0 -505 65 0 65 0 0 505 0 505 -65 0 -65 0 0 -505z"/>
<path d="M12972 1793 l3 -58 163 -3 162 -2 0 -445 0 -445 65 0 65 0 0 445 0
445 155 0 155 0 0 60 0 60 -385 0 -386 0 3 -57z"/>
<path d="M14088 1818 c11 -18 88 -147 171 -287 l151 -253 0 -219 0 -219 65 0
65 0 0 212 0 212 170 288 c94 159 170 291 170 293 0 3 -31 5 -70 5 l-69 0
-128 -225 c-70 -124 -130 -225 -134 -225 -3 0 -64 101 -135 225 l-129 225 -73
0 -74 0 20 -32z"/>
</g>
</svg>
