<?xml version="1.0" standalone="no"?>
<!DOCTYPE svg PUBLIC "-//W3C//DTD SVG 20010904//EN"
 "http://www.w3.org/TR/2001/REC-SVG-20010904/DTD/svg10.dtd">
<svg version="1.0" xmlns="http://www.w3.org/2000/svg"
 width="2208.000000pt" height="1481.000000pt" viewBox="0 0 3508.000000 2481.000000"
 preserveAspectRatio="xMidYMid meet">

<g transform="translate(0.000000,2481.000000) scale(0.100000,-0.100000)"
fill="#000000" stroke="none">
<path d="M17810 21235 c-113 -7 -206 -13 -207 -14 -2 0 -3 -3218 -3 -7151 l0
-7150 210 0 210 0 0 7165 c0 3941 -1 7164 -2 7163 -2 0 -95 -7 -208 -13z"/>
<path d="M8615 17383 c-730 -1842 -1726 -4351 -2212 -5578 -486 -1226 -911
-2286 -944 -2355 -357 -744 -771 -1338 -1214 -1743 -247 -225 -480 -384 -780
-532 -217 -107 -396 -176 -616 -237 l-152 -43 1187 -3 c652 -1 1720 -1 2372 0
l1186 3 -153 59 c-462 176 -806 366 -1065 589 -535 461 -720 1088 -593 2005
l20 144 178 441 c213 528 549 1363 1501 3737 1109 2765 1694 4217 1788 4435
l31 70 46 -100 c26 -55 71 -155 100 -221 30 -67 670 -1662 1423 -3545 1288
-3219 1631 -4075 2212 -5514 246 -608 277 -697 306 -850 23 -129 15 -312 -18
-417 -83 -255 -294 -456 -643 -612 -137 -61 -389 -145 -560 -185 -71 -17 -143
-35 -160 -40 -18 -5 949 -9 2339 -10 1303 -1 2367 1 2365 3 -2 2 -53 20 -114
41 -139 46 -363 155 -480 232 -345 228 -634 559 -909 1043 -98 172 -331 638
-420 840 -85 192 -230 555 -3381 8458 -901 2261 -1282 3201 -1309 3230 -2 1
-600 -1504 -1331 -3345z"/>
<path d="M25062 12577 c-210 -26 -330 -147 -360 -363 -13 -95 -5 -5007 9
-5094 20 -133 88 -221 195 -255 44 -14 79 -16 167 -13 63 3 125 11 142 19 99
45 152 109 182 219 15 59 17 159 20 1158 l4 1092 1082 0 c1173 0 1169 0 1262
55 97 56 145 160 145 313 0 202 -80 309 -255 341 -40 8 -402 11 -1137 11
l-1078 0 2 888 3 887 180 11 c118 8 622 12 1460 13 717 1 1308 5 1343 11 155
22 242 72 288 167 27 54 29 66 29 178 0 105 -3 127 -24 173 -44 97 -139 158
-283 182 -75 12 -3279 19 -3376 7z"/>
<path d="M30740 12583 c-353 -25 -722 -193 -971 -442 -207 -208 -328 -440
-396 -760 -24 -109 -27 -150 -28 -306 0 -199 9 -262 60 -421 67 -204 174 -375
339 -540 209 -208 361 -289 929 -498 397 -147 538 -221 688 -364 201 -191 288
-404 276 -682 -6 -157 -38 -283 -107 -427 -135 -284 -361 -471 -657 -545 -73
-18 -116 -22 -253 -22 -147 0 -176 3 -265 27 -205 55 -380 170 -529 347 -178
211 -257 265 -386 265 -63 0 -84 -5 -134 -30 -76 -38 -166 -126 -201 -195 -58
-114 -40 -249 52 -387 152 -230 414 -456 678 -588 247 -123 414 -164 708 -172
228 -7 351 5 529 48 208 51 376 125 564 250 153 102 344 293 447 449 307 464
398 1042 238 1519 -71 211 -193 410 -353 577 -241 250 -473 391 -953 579 -545
213 -671 278 -789 406 -128 138 -154 277 -91 479 61 194 173 377 308 507 134
129 268 187 432 187 106 0 177 -19 286 -75 96 -50 167 -113 284 -254 133 -160
243 -235 345 -235 77 0 183 55 266 137 157 157 145 329 -39 573 -260 343 -628
548 -1062 590 -98 9 -125 10 -215 3z"/>
<path d="M21693 12529 c-61 -30 -175 -140 -226 -217 -32 -49 -112 -236 -295
-697 -611 -1536 -1646 -4199 -1673 -4302 -63 -248 30 -408 271 -469 80 -20
162 -14 227 17 63 30 140 110 180 186 18 33 98 229 177 434 117 303 673 1728
1339 3432 55 142 103 254 107 250 4 -4 114 -282 245 -618 130 -335 377 -968
547 -1405 170 -437 412 -1061 538 -1386 125 -324 242 -619 260 -655 121 -241
256 -311 466 -245 128 41 219 118 244 207 18 62 12 181 -14 270 -14 46 -274
725 -579 1509 -894 2297 -1295 3310 -1350 3414 -58 109 -210 243 -319 282 -56
19 -96 18 -145 -7z"/>
<path d="M25420 5563 c-86 -8 -159 -27 -209 -55 -73 -42 -171 -136 -204 -196
-56 -103 -57 -117 -57 -729 0 -378 4 -579 11 -615 35 -165 166 -308 328 -359
135 -42 442 -35 554 13 100 43 209 147 253 243 43 92 45 123 42 741 -3 658 1
613 -77 734 -73 113 -174 183 -301 210 -54 11 -270 20 -340 13z m331 -221 c72
-32 122 -75 154 -133 l30 -54 0 -580 0 -580 -29 -50 c-75 -128 -146 -160 -366
-159 -115 0 -156 3 -199 18 -62 21 -127 80 -163 148 l-23 43 -3 554 c-3 615
-3 618 61 702 42 54 116 96 188 107 30 4 111 7 180 5 98 -2 135 -6 170 -21z"/>
<path d="M2775 5538 c-18 -17 -38 -60 -69 -153 -25 -71 -164 -483 -310 -914
-146 -431 -266 -797 -266 -812 0 -37 28 -65 79 -80 51 -15 83 -3 106 41 13 26
192 546 467 1364 32 94 53 144 58 135 4 -8 119 -342 255 -744 136 -401 254
-743 262 -758 21 -41 54 -53 104 -38 52 16 79 43 79 80 0 16 -137 435 -305
931 -168 495 -305 905 -305 909 0 5 -14 21 -31 35 -39 33 -88 34 -124 4z"/>
<path d="M3954 5550 c-57 -23 -54 27 -54 -982 l0 -927 24 -28 c21 -25 31 -28
81 -28 48 0 60 4 76 24 18 22 19 51 19 887 l0 864 370 0 371 0 24 25 c46 45
29 145 -28 165 -37 12 -852 13 -883 0z"/>
<path d="M5334 5546 c-17 -8 -34 -21 -38 -31 -3 -9 -6 -437 -6 -951 l0 -935
25 -24 c34 -35 102 -35 142 -1 l28 24 3 867 3 866 277 -3 277 -3 58 -29 c78
-40 132 -100 152 -171 13 -44 16 -90 13 -213 -3 -157 -3 -157 -36 -214 -18
-32 -50 -71 -70 -87 -64 -54 -109 -63 -307 -68 -99 -2 -189 -6 -201 -8 -45
-10 -60 -112 -23 -158 19 -26 23 -26 151 -29 l130 -3 188 -374 c116 -233 197
-383 214 -398 61 -52 156 -4 156 80 0 14 -77 179 -170 367 -94 188 -169 343
-168 344 148 63 260 169 310 294 21 53 23 71 23 277 0 207 -1 223 -23 277 -31
77 -116 184 -182 231 -30 20 -84 47 -120 59 -61 21 -87 22 -420 25 -287 2
-361 0 -386 -11z"/>
<path d="M6873 5536 l-28 -24 0 -941 0 -940 23 -23 c18 -18 34 -23 78 -23 47
0 59 4 75 24 18 22 19 53 19 963 l0 939 -25 24 c-34 35 -102 35 -142 1z"/>
<path d="M7465 5535 l-25 -24 0 -941 0 -941 25 -24 c34 -35 102 -35 142 -1
l28 24 5 743 5 743 242 -365 c189 -286 249 -369 276 -384 39 -21 71 -16 106
16 13 12 131 184 262 382 l239 361 2 -748 3 -748 29 -25 c26 -22 37 -25 80
-20 94 9 86 -82 86 989 l0 939 -25 24 c-14 15 -36 25 -53 25 -71 0 -79 -9
-257 -277 -93 -141 -229 -344 -302 -450 l-131 -194 -292 438 c-172 258 -304
447 -322 461 -42 30 -92 29 -123 -3z"/>
<path d="M9308 5544 c-57 -31 -67 -106 -19 -147 l30 -25 377 -7 c439 -9 556
-5 601 19 84 43 65 151 -28 170 -18 3 -235 6 -483 6 -378 -1 -455 -3 -478 -16z"/>
<path d="M10777 5553 c-48 -12 -47 1 -47 -987 l0 -925 24 -28 24 -28 344 -3
c409 -3 445 2 560 77 90 58 151 126 192 211 l31 65 3 614 c3 698 6 669 -78
795 -55 81 -97 119 -176 159 -98 49 -172 57 -531 56 -180 -1 -336 -3 -346 -6z
m752 -218 c81 -38 127 -79 158 -143 l28 -57 0 -560 0 -560 -27 -56 c-33 -67
-84 -121 -141 -152 -40 -21 -54 -22 -329 -25 l-288 -3 0 790 0 791 273 0 c269
0 273 0 326 -25z"/>
<path d="M12994 5546 c-17 -8 -34 -21 -38 -31 -8 -21 -8 -1868 0 -1890 18 -46
116 -59 161 -21 l28 24 3 866 2 866 360 0 c199 0 370 4 383 9 50 19 59 128 15
168 -19 17 -51 18 -452 20 -346 2 -437 0 -462 -11z"/>
<path d="M14372 5553 c-7 -3 -19 -18 -27 -33 -13 -25 -15 -157 -15 -955 0
-585 4 -933 10 -945 10 -19 59 -40 96 -40 37 0 72 20 83 49 8 18 11 305 9 954
l-3 929 -28 24 c-27 23 -89 32 -125 17z"/>
<path d="M14964 5548 c-12 -5 -27 -21 -33 -34 -16 -35 -16 -1853 0 -1887 28
-62 150 -62 178 0 8 17 11 236 11 736 l0 712 23 -40 c13 -22 196 -352 408
-734 298 -537 390 -696 411 -707 52 -27 117 -11 137 33 8 17 11 291 11 943 0
652 -3 926 -11 943 -13 30 -48 47 -94 47 -47 0 -64 -8 -80 -41 -13 -24 -15
-135 -15 -741 l0 -713 -50 93 c-27 51 -64 118 -83 150 -19 31 -123 219 -232
417 -109 198 -236 428 -283 510 -47 83 -97 172 -110 200 -45 91 -81 125 -137
124 -16 0 -40 -5 -51 -11z"/>
<path d="M17136 5538 c-21 -19 -85 -199 -336 -941 -170 -504 -310 -926 -310
-936 0 -52 94 -106 145 -83 13 6 30 21 38 34 8 13 129 359 268 770 139 412
256 745 260 740 4 -4 118 -335 254 -737 136 -401 253 -744 262 -762 8 -17 28
-37 44 -44 26 -10 37 -9 77 7 31 13 52 29 61 48 12 26 -4 80 -292 930 -168
495 -309 913 -312 929 -16 62 -110 88 -159 45z"/>
<path d="M18303 5536 l-28 -24 -3 -919 c-2 -614 0 -930 7 -954 12 -39 42 -59
91 -59 37 0 76 18 87 39 4 9 10 340 13 736 l5 720 48 -90 c26 -49 209 -380
405 -733 388 -699 374 -680 455 -669 78 11 72 -71 75 970 2 652 -1 940 -9 958
-13 32 -47 49 -97 49 -41 -1 -63 -13 -80 -47 -9 -16 -12 -212 -12 -735 l-1
-713 -42 80 c-24 44 -103 188 -176 320 -74 132 -226 407 -339 610 -112 204
-215 389 -229 412 -41 73 -117 95 -170 49z"/>
<path d="M20242 5545 c-171 -37 -300 -151 -364 -321 -22 -59 -23 -64 -23 -634
0 -659 0 -659 75 -774 80 -122 192 -202 319 -226 30 -5 190 -10 357 -10 l303
0 28 24 c24 21 28 32 28 75 0 39 -5 56 -23 73 -22 23 -26 23 -345 28 l-322 5
-50 26 c-66 35 -123 92 -149 148 -21 45 -21 57 -21 601 0 449 3 563 14 595 20
59 67 122 112 152 69 46 128 53 440 53 271 0 288 1 312 20 30 24 43 83 28 123
-20 52 -51 57 -368 56 -203 0 -306 -5 -351 -14z"/>
<path d="M21283 5525 c-31 -31 -35 -40 -30 -72 4 -20 16 -46 27 -57 19 -20 36
-21 243 -27 366 -11 672 -10 728 2 70 15 91 38 87 96 -2 37 -9 50 -31 67 -28
21 -39 21 -508 24 l-480 3 -36 -36z"/>
<path d="M23750 5546 c-65 -14 -104 -33 -186 -92 -69 -48 -120 -112 -162 -200
-25 -55 -27 -68 -27 -189 0 -153 16 -206 94 -308 55 -74 89 -94 490 -300 194
-99 286 -152 314 -180 117 -117 108 -299 -22 -420 -78 -73 -101 -77 -478 -77
-356 0 -369 -2 -393 -59 -17 -42 -5 -95 27 -121 25 -19 38 -20 362 -20 384 0
435 7 534 67 81 48 168 137 201 205 76 155 68 350 -19 488 -68 107 -147 158
-622 395 -229 115 -281 170 -291 306 -6 86 16 152 70 214 82 93 136 105 488
105 147 0 276 3 285 6 46 18 59 116 21 161 l-24 28 -304 2 c-211 1 -320 -2
-358 -11z"/>
<path d="M26915 5543 c-98 -20 -175 -65 -245 -140 -71 -75 -106 -141 -126
-232 -20 -97 -20 -1106 1 -1204 18 -87 54 -152 128 -233 66 -72 164 -127 256
-144 29 -6 190 -10 357 -10 302 0 303 0 330 23 22 20 26 31 26 76 0 41 -5 58
-21 75 -21 20 -31 21 -344 26 -315 5 -323 5 -367 29 -76 40 -118 79 -147 139
l-28 57 0 565 c0 556 0 566 21 611 31 66 86 123 147 150 50 23 63 24 373 29
359 6 356 5 367 76 9 52 -10 94 -49 110 -49 21 -581 18 -679 -3z"/>
<path d="M28059 5534 l-24 -26 -3 -926 c-2 -675 1 -934 9 -954 14 -34 70 -54
123 -44 70 13 66 -40 66 986 0 681 -3 927 -12 943 -18 35 -40 46 -89 47 -36 0
-50 -5 -70 -26z"/>
<path d="M28584 5550 c-44 -18 -67 -84 -48 -135 17 -43 39 -45 531 -48 456 -2
469 -1 503 18 29 17 36 28 38 60 5 62 -4 81 -48 99 -35 14 -99 16 -498 15
-251 0 -467 -4 -478 -9z"/>
<path d="M30050 5553 c-8 -3 -25 -15 -37 -26 -34 -30 -32 -109 2 -142 l24 -25
221 0 220 0 0 -855 c0 -954 -3 -908 66 -921 51 -9 108 10 122 41 9 19 12 252
12 880 l0 855 213 0 c150 0 219 4 237 13 31 15 49 66 41 115 -5 30 -13 41 -41
54 -32 16 -79 18 -550 17 -283 0 -522 -3 -530 -6z"/>
<path d="M31603 5545 c-30 -21 -46 -75 -33 -110 9 -25 273 -415 514 -760 l76
-109 0 -467 c0 -536 -5 -508 86 -516 43 -5 54 -2 80 20 l29 25 0 500 0 499
-89 134 c-49 74 -169 249 -266 389 -97 140 -193 281 -213 313 -56 87 -129 120
-184 82z"/>
<path d="M32808 5553 c-19 -5 -87 -97 -218 -293 -46 -69 -107 -156 -135 -195
-28 -38 -64 -91 -78 -116 -64 -109 -6 -194 111 -163 22 6 137 164 369 506 96
142 106 169 82 221 -18 39 -72 56 -131 40z"/>
<path d="M4255 4746 c-20 -21 -25 -35 -25 -79 0 -93 -4 -91 308 -95 147 -2
277 0 289 3 64 16 86 108 39 162 l-24 28 -281 3 -281 3 -25 -25z"/>
<path d="M13299 4741 c-22 -23 -29 -39 -29 -69 0 -99 9 -102 332 -102 192 0
270 4 288 13 37 19 54 61 44 111 -15 72 -34 76 -342 76 l-264 0 -29 -29z"/>
<path d="M9314 4660 c-55 -22 -71 -99 -30 -147 l24 -28 344 -8 c564 -13 656
-6 688 52 13 25 13 67 -1 93 -25 46 -48 48 -541 47 -255 0 -473 -4 -484 -9z"/>
<path d="M21304 4659 c-61 -30 -69 -124 -13 -158 27 -17 70 -19 463 -26 460
-7 522 -3 565 36 33 31 26 104 -12 133 -28 21 -38 21 -505 23 -309 1 -484 -2
-498 -8z"/>
<path d="M28559 4641 c-21 -21 -29 -39 -29 -64 0 -97 -13 -95 530 -99 449 -3
466 -2 505 17 35 18 40 25 43 59 5 59 -4 82 -42 100 -30 14 -92 16 -506 16
l-472 0 -29 -29z"/>
<path d="M9289 3751 c-37 -38 -39 -88 -5 -128 l24 -28 399 -8 c430 -9 533 -6
587 17 77 32 77 130 1 162 -28 11 -122 14 -505 14 l-472 0 -29 -29z"/>
<path d="M21301 3766 c-27 -15 -50 -52 -51 -79 0 -31 28 -74 57 -85 18 -7 185
-12 488 -14 433 -3 462 -2 498 16 40 20 51 42 45 96 -2 22 -12 40 -31 54 -28
21 -38 21 -505 23 -384 2 -482 0 -501 -11z"/>
<path d="M28561 3754 c-42 -35 -44 -98 -5 -135 l26 -24 431 -8 c561 -10 597
-5 597 93 0 52 -14 74 -57 91 -14 5 -233 9 -493 9 l-468 0 -31 -26z"/>
</g>
</svg>
