<?xml version="1.0" encoding="UTF-8"?>
<svg version="1.1" xmlns="http://www.w3.org/2000/svg" width="888" height="500">
<path d="M0 0 C293.04 0 586.08 0 888 0 C888 87.78 888 175.56 888 266 C594.96 266 301.92 266 0 266 C0 178.22 0 90.44 0 0 Z " fill="#FEFEFD" transform="translate(0,0)"/>
<path d="M0 0 C15.51 0 31.02 0 47 0 C47 3.63 47 7.26 47 11 C35.78 11 24.56 11 13 11 C13 16.61 13 22.22 13 28 C23.56 28 34.12 28 45 28 C45 31.63 45 35.26 45 39 C34.44 39 23.88 39 13 39 C13 44.94 13 50.88 13 57 C24.22 57 35.44 57 47 57 C47 60.63 47 64.26 47 68 C31.49 68 15.98 68 0 68 C0 45.56 0 23.12 0 0 Z " fill="#010000" transform="translate(567,160)"/>
<path d="M0 0 C4.19511576 -0.07521585 8.38985477 -0.12909381 12.58544922 -0.16479492 C14.00706841 -0.17970701 15.42864307 -0.20004409 16.85009766 -0.22631836 C39.9069041 -0.64124325 39.9069041 -0.64124325 48.53125 6.35546875 C52.45374418 10.74741037 54.70074076 15.83037053 55.5 21.625 C54.3961148 29.07622511 51.73096156 34.95982399 46 40 C39.86685663 43.83321461 34.47212962 45.1487046 27.26953125 45.09765625 C26.51911057 45.0962413 25.76868988 45.09482635 24.99552917 45.09336853 C22.6011454 45.0877756 20.20685547 45.07522444 17.8125 45.0625 C16.18815239 45.05748408 14.56380332 45.05292134 12.93945312 45.04882812 C8.95959931 45.03780848 4.97981556 45.02054873 1 45 C1 44.34 1 43.68 1 43 C2.32 43 3.64 43 5 43 C5 29.8 5 16.6 5 3 C3.35 2.67 1.7 2.34 0 2 C0 1.34 0 0.68 0 0 Z " fill="#F7F7F6" transform="translate(25,86)"/>
<path d="M0 0 C5.63111214 3.35700916 8.1791191 7.75561787 10 14 C10.56278834 17.66521816 10.86152383 21.29576244 11 25 C6.48382401 25.07654536 2.40914783 25.10228696 -2 24 C-1.33079947 27.0456578 -1.33079947 27.0456578 0.765625 28.1484375 C3.15331901 29.05843277 5.20909095 29.40080214 7.75 29.625 C8.54921875 29.69976562 9.3484375 29.77453125 10.171875 29.8515625 C10.77515625 29.90054688 11.3784375 29.94953125 12 30 C12.35308577 40.14140793 12.33484836 50.61060622 6 59 C0.42053185 63.83553906 -5.41207356 63.44075855 -12.4765625 63.43359375 C-16.18116569 62.97770577 -18.08416168 62.29025846 -21 60 C-27.53156418 47.1701418 -25.10874288 35.29713021 -21 22 C-20.66484375 20.87464844 -20.3296875 19.74929687 -19.984375 18.58984375 C-16.96312853 8.91466161 -12.38927896 -2.72612818 0 0 Z " fill="#FEFCFA" transform="translate(528,42)"/>
<path d="M0 0 C15.18 0 30.36 0 46 0 C46 3.63 46 7.26 46 11 C35.44 11 24.88 11 14 11 C14 16.94 14 22.88 14 29 C23.9 29 33.8 29 44 29 C44 32.63 44 36.26 44 40 C34.1 40 24.2 40 14 40 C14 49.24 14 58.48 14 68 C9.38 68 4.76 68 0 68 C0 45.56 0 23.12 0 0 Z " fill="#070606" transform="translate(240,160)"/>
<path d="M0 0 C7.1551875 3.57759375 10.68063721 8.53660411 13.25 15.875 C14.71301603 20.60620508 15.62068764 25.06893936 16 30 C20.95 30 25.9 30 31 30 C31 30.99 31 31.98 31 33 C26.1956792 35.4021604 21.26896105 35.61122229 16 36 C16.05220703 37.64935547 16.05220703 37.64935547 16.10546875 39.33203125 C16.57202534 60.02229211 16.57202534 60.02229211 9.75 68.5 C5.31148595 73.05040937 1.52948899 74.87954814 -4.9375 75.1875 C-5.948125 75.125625 -6.95875 75.06375 -8 75 C-8.33 79.29 -8.66 83.58 -9 88 C-7.989375 87.319375 -6.97875 86.63875 -5.9375 85.9375 C-2.04622243 83.6742059 0.60993163 83.92488122 5 85 C5.33 86.65 5.66 88.3 6 90 C-0.83285184 94.07063514 -6.03524914 95.76258253 -14 95 C-14.09733092 87.90565767 -14.10087193 81.01805857 -13 74 C-14.010625 73.95875 -15.02125 73.9175 -16.0625 73.875 C-20.78521004 73.18527358 -24.04485468 70.67198751 -27 67 C-30.0874867 61.3072215 -30.51088448 56.47747748 -30.4375 50.0625 C-30.43065186 49.14025635 -30.42380371 48.2180127 -30.41674805 47.26782227 C-30.07504719 32.47230322 -26.22630689 15.44469659 -15.6796875 4.55859375 C-10.78358708 0.01546801 -6.56868013 -1.03471244 0 0 Z M-16 12 C-18.76635836 16.76740438 -20.17205932 21.65207091 -21.5625 26.9375 C-21.98028043 28.48833199 -22.39824665 30.03911395 -22.81640625 31.58984375 C-23.01419678 32.33717773 -23.2119873 33.08451172 -23.41577148 33.85449219 C-23.94927723 35.81372682 -24.53824338 37.75764303 -25.1328125 39.69921875 C-27.2562481 47.78166505 -26.77782951 56.4762214 -23 64 C-21.05584089 66.3565565 -19.70162154 67.64918923 -17 69 C-5.65979263 70.04694301 -5.65979263 70.04694301 4.484375 65.75 C11.56050694 57.57962085 11.16530465 46.1570523 11 36 C10.39671875 35.95101562 9.7934375 35.90203125 9.171875 35.8515625 C8.37265625 35.77679688 7.5734375 35.70203125 6.75 35.625 C5.96109375 35.55539063 5.1721875 35.48578125 4.359375 35.4140625 C1.85521048 34.97458992 0.13042844 34.38572115 -2 33 C-2.33 32.01 -2.66 31.02 -3 30 C-2.34 30.165 -1.68 30.33 -1 30.5 C2.73099794 31.12183299 6.21873378 31.06408926 10 31 C9.80667263 21.7554365 7.89345633 14.41959907 1.6875 7.375 C-5.64598917 3.62298229 -11.10100367 5.97237414 -16 12 Z " fill="#F08213" transform="translate(529,36)"/>
<path d="M0 0 C5.04489655 -0.35892545 8.85234141 -0.58426255 13.4375 1.75 C18.34803721 6.06169121 20.56890813 10.45145271 21.18816566 16.98537827 C21.26521815 19.17458315 21.28175353 21.35583571 21.2746582 23.54638672 C21.2823246 24.78444565 21.2823246 24.78444565 21.29014587 26.04751587 C21.30397166 28.75831486 21.30309032 31.46885758 21.30078125 34.1796875 C21.30467219 36.07626438 21.30900768 37.97284039 21.31376648 39.86941528 C21.32121374 43.83859078 21.32094837 47.80767731 21.31567383 51.77685547 C21.30988296 56.8462057 21.32680829 61.91519011 21.3500185 66.9844799 C21.36479934 70.90001531 21.3656216 74.81546351 21.36250877 78.73102188 C21.36301986 80.59920094 21.36821732 82.46738515 21.37832069 84.33553696 C21.39075172 86.9555364 21.3838538 89.57483476 21.37231445 92.19482422 C21.38378006 93.33603729 21.38378006 93.33603729 21.39547729 94.50030518 C21.33879081 100.36648153 20.55717004 106.96309792 16.65428638 111.59817314 C11.32962021 116.26143863 6.94310459 117.27227861 0 117 C0 114.03 0 111.06 0 108 C1.093125 107.9175 2.18625 107.835 3.3125 107.75 C6.98960131 107.35539057 6.98960131 107.35539057 8.875 105.125 C11.16105982 100.806887 11.15407755 96.91223841 11.16113281 92.15136719 C11.16609772 91.3526268 11.17106262 90.55388641 11.17617798 89.73094177 C11.19079228 87.0862441 11.19760108 84.44160644 11.203125 81.796875 C11.20887792 79.95705158 11.21463564 78.11722818 11.22039795 76.27740479 C11.23090645 72.4171928 11.23674982 68.55700162 11.24023438 64.69677734 C11.24571278 59.75941438 11.26972745 54.82232806 11.29820633 49.88505173 C11.31686712 46.08283699 11.32204019 42.28068836 11.32357025 38.4784317 C11.32659053 36.65883119 11.33459793 34.83923166 11.34775543 33.01967621 C11.36488481 30.46830978 11.36291881 27.91761216 11.35644531 25.36621094 C11.3656601 24.61997971 11.37487488 23.87374847 11.3843689 23.10490417 C11.34357623 17.95075412 10.36398389 14.48701272 8 10 C5.30375395 8.52041565 3.10236204 8.45772555 0 8 C0 5.36 0 2.72 0 0 Z " fill="#EF7F0C" transform="translate(633,15)"/>
<path d="M0 0 C0 2.64 0 5.28 0 8 C-1.093125 8.226875 -2.18625 8.45375 -3.3125 8.6875 C-7.00370293 9.64698261 -7.00370293 9.64698261 -8.70521545 12.05909729 C-10.37707224 15.85646123 -10.42765996 19.29350821 -10.40405273 23.36694336 C-10.41091599 24.1968428 -10.41777924 25.02674225 -10.42485046 25.88179016 C-10.4431126 28.61798335 -10.43928181 31.35360284 -10.43359375 34.08984375 C-10.43815589 35.99646694 -10.44346156 37.90308849 -10.44947815 39.80970764 C-10.45840814 43.80346359 -10.45598744 47.79701957 -10.44604492 51.79077148 C-10.43455634 56.90319142 -10.45476562 62.01492053 -10.48396206 67.12724972 C-10.50232775 71.06413644 -10.50203084 75.00085774 -10.49632454 78.93777657 C-10.49617136 80.8223931 -10.50221251 82.70702088 -10.51461601 84.5915966 C-10.52953098 87.22938975 -10.51884566 89.86590825 -10.50170898 92.50366211 C-10.51137695 93.27839874 -10.52104492 94.05313538 -10.53100586 94.85134888 C-10.46082563 100.02265812 -9.37596828 103.07701333 -6 107 C-2.86734521 107.9688059 -2.86734521 107.9688059 0 108 C0 110.64 0 113.28 0 116 C-4.84018496 116.34436099 -8.83111377 116.47621291 -13.375 114.625 C-20.87721287 107.12278713 -20.51648076 97.42894877 -20.53013611 87.47712708 C-20.51965917 85.58500678 -20.50829034 83.69289124 -20.49609375 81.80078125 C-20.49624894 79.8364405 -20.49774129 77.87209944 -20.50050354 75.90776062 C-20.50188262 71.80677627 -20.48940862 67.70614375 -20.46655273 63.60522461 C-20.4381133 58.35972877 -20.44092737 53.11481435 -20.45364285 47.86927509 C-20.46060898 43.8191179 -20.45280097 39.76909423 -20.44038582 35.71895409 C-20.43588439 33.78493958 -20.43552303 31.85091067 -20.43945122 29.91689491 C-20.44237407 27.21293515 -20.42580734 24.50976761 -20.40405273 21.8059082 C-20.40855438 21.01456985 -20.41305603 20.22323151 -20.41769409 19.40791321 C-20.33052902 12.86011902 -18.89025346 8.22952973 -14.5625 3.125 C-9.94250158 -0.7062182 -5.79762984 -0.09662716 0 0 Z " fill="#EF7E0A" transform="translate(487,15)"/>
<path d="M0 0 C3.37483413 -0.08767555 6.74937215 -0.14061628 10.125 -0.1875 C11.55199219 -0.22520508 11.55199219 -0.22520508 13.0078125 -0.26367188 C19.39676296 -0.33022344 23.93888348 0.24499513 28.875 4.6875 C30.55966591 8.15042437 30.75072254 11.28660459 30 15 C28.85479659 17.26654842 27.57276296 19.2735361 26.09375 21.3359375 C24.81691461 22.9466631 24.81691461 22.9466631 25 25 C26.16629452 26.06860995 27.38505932 27.0802998 28.625 28.0625 C33.0940772 31.83303582 35.94275299 36.07032142 39 41 C40.06930652 42.29258972 40.06930652 42.29258972 42.58203125 42.1328125 C44.18111328 42.12894531 44.18111328 42.12894531 45.8125 42.125 C46.87082031 42.12757812 47.92914063 42.13015625 49.01953125 42.1328125 C51.53689017 42.02063661 53.60423255 41.7309121 56 41 C55 44 55 44 52 45.6875 C46.56491995 47.79680211 41.39471079 47.76630745 35.875 46 C30.79580711 42.46664842 27.20223682 37.82053005 23.8125 32.6875 C21.57642364 29.3719385 19.99685154 27.39169011 15.96875 26.6015625 C13.98584485 26.34322627 11.99275526 26.16606294 10 26 C10.14058476 28.45873768 10.28722999 30.91685175 10.4375 33.375 C10.49647461 34.42300781 10.49647461 34.42300781 10.55664062 35.4921875 C10.74280134 39.37360492 10.74280134 39.37360492 12 43 C13.32 43.66 14.64 44.32 16 45 C11.05 45 6.1 45 1 45 C1.99 44.01 2.98 43.02 4 42 C4.31056874 39.02304383 4.4441512 36.25964505 4.43359375 33.28125 C4.4388356 32.42696411 4.44407745 31.57267822 4.44947815 30.69250488 C4.45589938 28.88697395 4.45456002 27.08140118 4.44604492 25.27587891 C4.43753074 22.50998683 4.46629979 19.74615691 4.49804688 16.98046875 C4.49965885 15.22656312 4.49908143 13.47265383 4.49609375 11.71875 C4.50732773 10.89056763 4.51856171 10.06238525 4.53013611 9.20910645 C4.53477034 4.5942444 4.53477034 4.5942444 1.96899414 0.95507812 C1.31922607 0.63990234 0.66945801 0.32472656 0 0 Z " fill="#100D0D" transform="translate(225,15)"/>
<path d="M0 0 C19.8 0 39.6 0 60 0 C60 0.33 60 0.66 60 1 C54.06 1.495 54.06 1.495 48 2 C48.495 3.98 48.495 3.98 49 6 C48.55752563 7.94815063 48.55752563 7.94815063 47.75244141 10.00244141 C47.30670273 11.16351913 47.30670273 11.16351913 46.85195923 12.34805298 C46.52182831 13.17421112 46.19169739 14.00036926 45.8515625 14.8515625 C45.51957855 15.70680511 45.1875946 16.56204773 44.84555054 17.44320679 C43.78233014 20.17462364 42.7037853 22.89969822 41.625 25.625 C40.9052597 27.46836364 40.18649781 29.31210963 39.46875 31.15625 C38.15380738 34.5252782 36.83576006 37.89300002 35.50634766 41.25634766 C35.23907867 41.93267242 34.97180969 42.60899719 34.69644165 43.30581665 C34 45 34 45 33 47 C32.34 47 31.68 47 31 47 C28.85320145 41.39891123 26.71728997 35.79383787 24.59130859 30.18481445 C23.86674077 28.27775843 23.13922438 26.37181995 22.40869141 24.46704102 C21.35840851 21.72701727 20.31883756 18.98313347 19.28125 16.23828125 C18.78908997 14.96456413 18.78908997 14.96456413 18.2869873 13.66511536 C17.83652039 12.46443672 17.83652039 12.46443672 17.37695312 11.23950195 C17.11047974 10.54000931 16.84400635 9.84051666 16.56945801 9.11982727 C16 7 16 7 16 2 C10.72 1.67 5.44 1.34 0 1 C0 0.67 0 0.34 0 0 Z " fill="#F8F8F8" transform="translate(1,0)"/>
<path d="M0 0 C2.31 0 4.62 0 7 0 C7.33 0.99 7.66 1.98 8 3 C8.474375 2.505 8.94875 2.01 9.4375 1.5 C13.21571086 -0.71163562 16.71611665 -0.60557513 21 0 C22.051875 0.556875 23.10375 1.11375 24.1875 1.6875 C25.115625 2.120625 26.04375 2.55375 27 3 C29.01800895 2.03685937 31.01549844 1.03041427 33 0 C37.72654775 -0.67522111 41.62478323 -1.00625618 45.5625 1.875 C47.99559514 5.47174934 48.11872442 7.54277044 48.09765625 11.8828125 C48.09443359 13.04941406 48.09121094 14.21601563 48.08789062 15.41796875 C48.07532227 17.25294922 48.07532227 17.25294922 48.0625 19.125 C48.05798828 20.35605469 48.05347656 21.58710938 48.04882812 22.85546875 C48.0370133 25.90369392 48.02054028 28.95182314 48 32 C45.36 32 42.72 32 40 32 C39.505 19.625 39.505 19.625 39 7 C32.38569507 5.26129589 32.38569507 5.26129589 29 8 C28.49039309 10.51385259 28.49039309 10.51385259 28.48828125 13.4453125 C28.45283203 14.52167969 28.41738281 15.59804687 28.38085938 16.70703125 C28.35830078 17.83496094 28.33574219 18.96289062 28.3125 20.125 C28.27833984 21.26066406 28.24417969 22.39632812 28.20898438 23.56640625 C28.12630498 26.37750579 28.05722063 29.18828553 28 32 C25.36 32 22.72 32 20 32 C19.505 19.625 19.505 19.625 19 7 C12.68353656 5.92928932 12.68353656 5.92928932 9 6 C8.67 14.58 8.34 23.16 8 32 C5.36 32 2.72 32 0 32 C0 21.44 0 10.88 0 0 Z " fill="#0C0A0A" transform="translate(758,179)"/>
<path d="M0 0 C1.96066406 -0.03867188 1.96066406 -0.03867188 3.9609375 -0.078125 C7.80495748 0.2661156 9.60994619 0.90373995 12.625 3.25 C15.45487779 7.49481668 14.99289905 11.1330297 15 16.125 C15.02449219 17.02347656 15.04898438 17.92195313 15.07421875 18.84765625 C15.09314406 23.11846881 15.01910045 25.59092988 12.7890625 29.3203125 C8.93338584 32.75840685 5.23217819 32.44127098 0.25 32.5 C-1.05710937 32.52578125 -2.36421875 32.5515625 -3.7109375 32.578125 C-7.55495748 32.2338844 -9.35994619 31.59626005 -12.375 29.25 C-15.20487779 25.00518332 -14.74289905 21.3669703 -14.75 16.375 C-14.77449219 15.47652344 -14.79898438 14.57804688 -14.82421875 13.65234375 C-14.84314406 9.38153119 -14.76910045 6.90907012 -12.5390625 3.1796875 C-8.68338584 -0.25840685 -4.98217819 0.05872902 0 0 Z " fill="#0B0909" transform="translate(736.375,178.75)"/>
<path d="M0 0 C1.96066406 -0.03867188 1.96066406 -0.03867188 3.9609375 -0.078125 C7.80495748 0.2661156 9.60994619 0.90373995 12.625 3.25 C15.45487779 7.49481668 14.99289905 11.1330297 15 16.125 C15.02449219 17.02347656 15.04898438 17.92195313 15.07421875 18.84765625 C15.09314406 23.11846881 15.01910045 25.59092988 12.7890625 29.3203125 C8.93338584 32.75840685 5.23217819 32.44127098 0.25 32.5 C-1.05710937 32.52578125 -2.36421875 32.5515625 -3.7109375 32.578125 C-7.55495748 32.2338844 -9.35994619 31.59626005 -12.375 29.25 C-15.20487779 25.00518332 -14.74289905 21.3669703 -14.75 16.375 C-14.77449219 15.47652344 -14.79898438 14.57804688 -14.82421875 13.65234375 C-14.84314406 9.38153119 -14.76910045 6.90907012 -12.5390625 3.1796875 C-8.68338584 -0.25840685 -4.98217819 0.05872902 0 0 Z " fill="#0B0909" transform="translate(667.375,178.75)"/>
<path d="M0 0 C0.69867187 -0.00708984 1.39734375 -0.01417969 2.1171875 -0.02148438 C6.56276022 0.0330368 9.52662818 0.62177027 13 3.4375 C15.12814212 6.74469777 15.23496011 9.41140905 15.1953125 13.296875 C15.18886719 14.41191406 15.18242188 15.52695313 15.17578125 16.67578125 C15.15902344 17.83464844 15.14226563 18.99351562 15.125 20.1875 C15.11597656 21.36183594 15.10695313 22.53617188 15.09765625 23.74609375 C15.07410063 26.64343536 15.04120652 29.54036441 15 32.4375 C12.36 32.4375 9.72 32.4375 7 32.4375 C6.67 31.7775 6.34 31.1175 6 30.4375 C5.45214844 30.75976562 4.90429688 31.08203125 4.33984375 31.4140625 C0.05157073 33.28973451 -4.4166742 32.94600508 -9 32.4375 C-12.1875 31.125 -12.1875 31.125 -14 28.4375 C-14.68297631 24.65530347 -14.93556359 21.17975436 -14 17.4375 C-11.31058459 14.49548756 -9.6997035 13.53638026 -5.73828125 12.9765625 C-4.60777344 13.00492188 -3.47726562 13.03328125 -2.3125 13.0625 C-1.17425781 13.07539063 -0.03601563 13.08828125 1.13671875 13.1015625 C4 13.4375 4 13.4375 6 15.4375 C6 12.7975 6 10.1575 6 7.4375 C2.52674819 6.2797494 -0.36067448 6.36883348 -4 6.4375 C-4.66 7.7575 -5.32 9.0775 -6 10.4375 C-8.31 10.4375 -10.62 10.4375 -13 10.4375 C-13.3125 7.6875 -13.3125 7.6875 -13 4.4375 C-9.08883643 0.2237319 -5.48828224 -0.15695272 0 0 Z " fill="#0D0B0B" transform="translate(839,178.5625)"/>
<path d="M0 0 C0.69867188 -0.00708984 1.39734375 -0.01417969 2.1171875 -0.02148438 C6.56276022 0.0330368 9.52662818 0.62177027 13 3.4375 C15.12814212 6.74469777 15.23496011 9.41140905 15.1953125 13.296875 C15.18886719 14.41191406 15.18242187 15.52695313 15.17578125 16.67578125 C15.15902344 17.83464844 15.14226562 18.99351562 15.125 20.1875 C15.11597656 21.36183594 15.10695313 22.53617188 15.09765625 23.74609375 C15.07410063 26.64343536 15.04120652 29.54036441 15 32.4375 C12.36 32.4375 9.72 32.4375 7 32.4375 C6.67 31.7775 6.34 31.1175 6 30.4375 C5.45214844 30.75976562 4.90429688 31.08203125 4.33984375 31.4140625 C0.05157073 33.28973451 -4.4166742 32.94600508 -9 32.4375 C-12.1875 31.125 -12.1875 31.125 -14 28.4375 C-14.68297631 24.65530347 -14.93556359 21.17975436 -14 17.4375 C-11.31058459 14.49548756 -9.6997035 13.53638026 -5.73828125 12.9765625 C-4.60777344 13.00492188 -3.47726562 13.03328125 -2.3125 13.0625 C-1.17425781 13.07539063 -0.03601563 13.08828125 1.13671875 13.1015625 C4 13.4375 4 13.4375 6 15.4375 C6 12.7975 6 10.1575 6 7.4375 C2.52674819 6.2797494 -0.36067448 6.36883348 -4 6.4375 C-4.66 7.7575 -5.32 9.0775 -6 10.4375 C-8.31 10.4375 -10.62 10.4375 -13 10.4375 C-13.3125 7.6875 -13.3125 7.6875 -13 4.4375 C-9.08883643 0.2237319 -5.48828224 -0.15695272 0 0 Z " fill="#0D0B0B" transform="translate(445,178.5625)"/>
<path d="M0 0 C0.69867188 -0.00708984 1.39734375 -0.01417969 2.1171875 -0.02148438 C6.56276022 0.0330368 9.52662818 0.62177027 13 3.4375 C15.12814212 6.74469777 15.23496011 9.41140905 15.1953125 13.296875 C15.18886719 14.41191406 15.18242187 15.52695313 15.17578125 16.67578125 C15.15902344 17.83464844 15.14226562 18.99351562 15.125 20.1875 C15.11597656 21.36183594 15.10695313 22.53617188 15.09765625 23.74609375 C15.07410063 26.64343536 15.04120652 29.54036441 15 32.4375 C12.36 32.4375 9.72 32.4375 7 32.4375 C6.67 31.7775 6.34 31.1175 6 30.4375 C5.45214844 30.75976562 4.90429688 31.08203125 4.33984375 31.4140625 C0.05157073 33.28973451 -4.4166742 32.94600508 -9 32.4375 C-12.1875 31.125 -12.1875 31.125 -14 28.4375 C-14.68297631 24.65530347 -14.93556359 21.17975436 -14 17.4375 C-11.31058459 14.49548756 -9.6997035 13.53638026 -5.73828125 12.9765625 C-4.60777344 13.00492188 -3.47726562 13.03328125 -2.3125 13.0625 C-1.17425781 13.07539063 -0.03601563 13.08828125 1.13671875 13.1015625 C4 13.4375 4 13.4375 6 15.4375 C6 12.7975 6 10.1575 6 7.4375 C2.52674819 6.2797494 -0.36067448 6.36883348 -4 6.4375 C-4.66 7.7575 -5.32 9.0775 -6 10.4375 C-8.31 10.4375 -10.62 10.4375 -13 10.4375 C-13.3125 7.6875 -13.3125 7.6875 -13 4.4375 C-9.08883643 0.2237319 -5.48828224 -0.15695272 0 0 Z " fill="#0D0B0B" transform="translate(304,178.5625)"/>
<path d="M0 0 C6.6 0 13.2 0 20 0 C19.01 0.66 18.02 1.32 17 2 C17.64092059 7.05065222 19.12605677 11.42143303 20.94140625 16.13671875 C21.22853989 16.89797562 21.51567352 17.65923248 21.81150818 18.44355774 C22.72330213 20.860214 23.64209323 23.27411202 24.5625 25.6875 C25.77781424 28.8767907 26.98644779 32.06850357 28.19140625 35.26171875 C28.47262833 35.99299484 28.7538504 36.72427094 29.04359436 37.47770691 C30.16929837 40.46070015 31 42.78319697 31 46 C31.66 46 32.32 46 33 46 C33.15782959 45.4325708 33.31565918 44.8651416 33.47827148 44.28051758 C35.59943831 36.917007 38.2760981 29.82182451 41.0625 22.6875 C41.50916016 21.53443359 41.95582031 20.38136719 42.41601562 19.19335938 C45.79674977 10.47621976 45.79674977 10.47621976 47.14233398 7.32348633 C48.173145 4.94372418 48.173145 4.94372418 48 2 C46.68 1.34 45.36 0.68 44 0 C49.61 0 55.22 0 61 0 C59.02 0.99 59.02 0.99 57 2 C53.88738974 6.0544876 51.92103626 10.21725876 50.046875 14.953125 C49.6546727 15.93408394 49.6546727 15.93408394 49.25454712 16.93486023 C48.69968641 18.32369833 48.14767007 19.71367577 47.59832764 21.10470581 C46.17343832 24.70803857 44.72210059 28.30070592 43.2734375 31.89453125 C42.99025665 32.59836441 42.70707581 33.30219757 42.41531372 34.02735901 C40.13319093 39.69220017 37.80998158 45.33633246 35.375 50.9375 C35.06916992 51.66291992 34.76333984 52.38833984 34.44824219 53.13574219 C33.5859375 55.08984375 33.5859375 55.08984375 32 58 C30.515 58.495 30.515 58.495 29 59 C27.47855184 55.3445061 25.95924153 51.6881304 24.44186401 48.03094482 C23.89817835 46.7207938 23.35417302 45.41077538 22.80984497 44.10089111 C19.84381729 36.9600745 16.90788712 29.81088519 14.08203125 22.61328125 C13.63456543 21.47560303 13.18709961 20.3379248 12.72607422 19.16577148 C11.88106318 17.00777532 11.0426088 14.84719775 10.21142578 12.68383789 C9.83099121 11.71309326 9.45055664 10.74234863 9.05859375 9.7421875 C8.73173584 8.8951123 8.40487793 8.04803711 8.06811523 7.17529297 C6.09007655 3.1468759 4.05845483 2.02922741 0 0 Z " fill="#0F0C0C" transform="translate(107,72)"/>
<path d="M0 0 C6.6 0 13.2 0 20 0 C18.68 0.33 17.36 0.66 16 1 C18.98428705 11.25442612 22.6401442 21.15808977 26.52001953 31.09765625 C27.26223861 33.00364833 27.99850675 34.91186146 28.734375 36.8203125 C29.16975586 37.93680176 29.60513672 39.05329102 30.05371094 40.20361328 C31 43 31 43 31 46 C31.66 46 32.32 46 33 46 C33.14477783 45.4630249 33.28955566 44.9260498 33.4387207 44.37280273 C36.00767464 35.32149382 39.56914685 26.65461564 43.0378418 17.92163086 C43.85627418 15.85694379 44.66861599 13.78993744 45.48046875 11.72265625 C45.96410889 10.50328369 46.44774902 9.28391113 46.94604492 8.02758789 C48.16438289 5.06209311 48.16438289 5.06209311 48 2 C46.68 1.34 45.36 0.68 44 0 C49.61 0 55.22 0 61 0 C59.02 0.99 59.02 0.99 57 2 C54.08209881 5.83862309 52.10256574 9.73533229 50.30078125 14.19140625 C49.57652954 15.96596191 49.57652954 15.96596191 48.83764648 17.77636719 C48.58860565 18.39491577 48.33956482 19.01346436 48.08297729 19.65075684 C47.3032277 21.58550684 46.51447731 23.5163503 45.72290039 25.44628906 C44.65518017 28.05004815 43.58945795 30.65460106 42.52636719 33.26025391 C40.34803404 38.59780405 38.16170755 43.93136547 35.9375 49.25 C35.58018799 50.12986572 35.22287598 51.00973145 34.85473633 51.91625977 C34.51982178 52.71217529 34.18490723 53.50809082 33.83984375 54.328125 C33.55488037 55.0180957 33.26991699 55.70806641 32.97631836 56.41894531 C32 58 32 58 29 59 C22.57833165 43.57103557 16.20179322 28.12921858 10.03564453 12.59594727 C9.64876465 11.62197998 9.26188477 10.6480127 8.86328125 9.64453125 C8.52594971 8.79221924 8.18861816 7.93990723 7.84106445 7.06176758 C7.02520381 4.98686883 7.02520381 4.98686883 6 3 C4.02111039 2.27306096 2.02045442 1.60183749 0 1 C0 0.67 0 0.34 0 0 Z " fill="#0F0D0D" transform="translate(1,1)"/>
<path d="M0 0 C3.21367037 1.5155542 5.04418932 2.93196268 7.3125 5.6875 C9.61469986 8.41185164 11.9492996 11.00661871 14.5 13.5 C17.48997103 16.44346037 20.26254101 19.51931662 22.99804688 22.69921875 C25.21355455 25.24543147 27.46608812 27.75536096 29.7265625 30.26171875 C30.52916504 31.15205811 31.33176758 32.04239746 32.15869141 32.9597168 C32.76632324 33.63301025 33.37395508 34.30630371 34 35 C34.09890664 30.64011928 34.17148376 26.28083327 34.21972656 21.92016602 C34.23983759 20.43697739 34.26713074 18.95386801 34.30175781 17.47094727 C34.35030352 15.33850565 34.37297195 13.20711223 34.390625 11.07421875 C34.41157227 9.79119873 34.43251953 8.50817871 34.45410156 7.1862793 C34.30424805 6.13480713 34.15439453 5.08333496 34 4 C32.68 3.01 31.36 2.02 30 1 C34.29 1 38.58 1 43 1 C42.01 1.99 41.02 2.98 40 4 C39.53163329 5.98867852 39.53163329 5.98867852 39.56762695 8.19604492 C39.54783279 9.03668991 39.52803864 9.8773349 39.50764465 10.74345398 C39.49805977 12.09827629 39.49805977 12.09827629 39.48828125 13.48046875 C39.47033005 14.40845779 39.45237885 15.33644684 39.43388367 16.29255676 C39.37968709 19.25749157 39.345855 22.22226455 39.3125 25.1875 C39.27933518 27.19728819 39.24484631 29.207055 39.20898438 31.21679688 C39.12395521 36.14441465 39.05718862 41.07198364 39 46 C34.87132217 45.16556676 33.13381063 43.47660782 30.1875 40.4375 C29.30835938 39.53257813 28.42921875 38.62765625 27.5234375 37.6953125 C24.8236326 34.81161996 22.21585848 31.86853879 19.6484375 28.8671875 C17.50176325 26.43564653 15.21000426 24.17918115 12.87109375 21.93359375 C10.10684504 19.07701105 7.56469469 16.03549298 5 13 C4.97530425 17.09341499 4.95714207 21.18680121 4.94506836 25.28027344 C4.9400357 26.67318477 4.93320902 28.0660908 4.92456055 29.45898438 C4.91244848 31.45961246 4.90729588 33.46027888 4.90234375 35.4609375 C4.89710693 36.66540527 4.89187012 37.86987305 4.88647461 39.11083984 C4.79912109 41.9413677 4.79912109 41.9413677 6 44 C6.99 44.66 7.98 45.32 9 46 C4.71 46 0.42 46 -4 46 C-3.01 44.68 -2.02 43.36 -1 42 C-0.53632169 39.9110019 -0.53632169 39.9110019 -0.56762695 37.69042969 C-0.54783279 36.84986023 -0.52803864 36.00929077 -0.50764465 35.14324951 C-0.50125473 34.24519592 -0.49486481 33.34714233 -0.48828125 32.421875 C-0.46135445 31.03201385 -0.46135445 31.03201385 -0.43388367 29.61407471 C-0.37977299 26.6594292 -0.34588243 23.70494531 -0.3125 20.75 C-0.2793276 18.74476917 -0.24483802 16.73955968 -0.20898438 14.734375 C-0.12404598 9.82303326 -0.05723827 4.91173952 0 0 Z " fill="#151212" transform="translate(280,85)"/>
<path d="M0 0 C4.19511576 -0.07521585 8.38985477 -0.12909381 12.58544922 -0.16479492 C14.00706841 -0.17970701 15.42864307 -0.20004409 16.85009766 -0.22631836 C39.9069041 -0.64124325 39.9069041 -0.64124325 48.53125 6.35546875 C52.45374418 10.74741037 54.70074076 15.83037053 55.5 21.625 C54.3961148 29.07622511 51.73096156 34.95982399 46 40 C39.86685663 43.83321461 34.47212962 45.1487046 27.26953125 45.09765625 C26.51911057 45.0962413 25.76868988 45.09482635 24.99552917 45.09336853 C22.6011454 45.0877756 20.20685547 45.07522444 17.8125 45.0625 C16.18815239 45.05748408 14.56380332 45.05292134 12.93945312 45.04882812 C8.95959931 45.03780848 4.97981556 45.02054873 1 45 C1 44.34 1 43.68 1 43 C2.32 43 3.64 43 5 43 C5 29.8 5 16.6 5 3 C3.35 2.67 1.7 2.34 0 2 C0 1.34 0 0.68 0 0 Z M12 4 C11.86183006 6.63113683 11.78688407 9.23417816 11.76171875 11.8671875 C11.753647 12.65771515 11.74557526 13.4482428 11.73725891 14.26272583 C11.72340375 15.93896277 11.71268802 17.6152281 11.70483398 19.29150391 C11.68761648 21.85763913 11.64374517 24.42248767 11.59960938 26.98828125 C11.58948323 28.61457383 11.58096688 30.24087739 11.57421875 31.8671875 C11.55671066 32.63602264 11.53920258 33.40485779 11.52116394 34.19699097 C11.52161372 38.50007527 11.52161372 38.50007527 13.8190918 41.98339844 C20.9716233 45.31745656 31.82664845 43.41935536 38.984375 40.8359375 C39.64953125 40.56007812 40.3146875 40.28421875 41 40 C42.423125 39.4121875 42.423125 39.4121875 43.875 38.8125 C47.8556071 35.4172763 49.5751872 31.46536657 50.45703125 26.34765625 C50.8286982 20.18489955 49.71010763 15.88863434 45.98046875 10.9453125 C38.91975028 4.00993223 30.21961455 2.82390496 20.75 2.875 C20.0178125 2.87113281 19.285625 2.86726563 18.53125 2.86328125 C14.97140396 2.54182537 14.97140396 2.54182537 12 4 Z " fill="#040303" transform="translate(25,86)"/>
<path d="M0 0 C3.6539974 0.68070953 5.1076362 2.46585274 7.22265625 5.4140625 C10.35103935 11.52185808 10.31528035 19.56171775 8.46484375 26.0859375 C6.83628271 30.00987196 5.29684571 33.6679813 1.22265625 35.4140625 C-2.21484375 35.9140625 -2.21484375 35.9140625 -5.77734375 35.4140625 C-9.51311472 32.50846286 -11.37799042 29.88456297 -12.77734375 25.4140625 C-12.99182106 22.72056177 -13.10232909 20.16590409 -13.08984375 17.4765625 C-13.10595703 16.78626953 -13.12207031 16.09597656 -13.13867188 15.38476562 C-13.14399882 9.7648389 -11.75759886 5.99605259 -8.36328125 1.5703125 C-5.68856342 -0.37972809 -3.20776188 -0.11474921 0 0 Z " fill="#F0800E" transform="translate(614.77734375,53.5859375)"/>
<path d="M0 0 C4.19117631 3.16666654 5.66113456 6.0118376 7 11 C7.30078125 14.65625 7.30078125 14.65625 7.3125 18.5 C7.32925781 19.7684375 7.34601562 21.036875 7.36328125 22.34375 C6.89845024 27.02204921 5.42761867 30.13857456 2.5859375 33.84375 C-0.08834659 35.79347436 -2.5700341 35.52748664 -5.77734375 35.41796875 C-9.39289657 34.7380669 -10.87955826 32.89151147 -13 30 C-16.17819984 23.56526441 -15.98852834 15.60283509 -14.5 8.671875 C-11.86294701 1.7795774 -7.25071926 -1.16529417 0 0 Z " fill="#F08110" transform="translate(583,23)"/>
<path d="M0 0 C3.46490917 1.73245458 4.87066423 2.65192231 7.36328125 5.3515625 C7.99621094 6.030979 8.62914063 6.71039551 9.28125 7.41040039 C10.28671875 8.5066272 10.28671875 8.5066272 11.3125 9.625 C12.73565879 11.15756907 14.15883637 12.6901207 15.58203125 14.22265625 C16.3085791 15.00914551 17.03512695 15.79563477 17.78369141 16.60595703 C21.33611893 20.44326749 24.91959825 24.2513141 28.5 28.0625 C29.76064741 29.40733582 31.02108633 30.75236713 32.28125 32.09765625 C33.1784375 33.05542969 34.075625 34.01320312 35 35 C35.0247345 30.92489562 35.04287637 26.84982036 35.05493164 22.7746582 C35.05995777 21.38858275 35.06677966 20.00251259 35.07543945 18.61645508 C35.08758018 16.62323285 35.09271021 14.62997181 35.09765625 12.63671875 C35.10289307 11.43748779 35.10812988 10.23825684 35.11352539 9.00268555 C35.13845618 5.94843549 35.13845618 5.94843549 34 3 C32.68 2.34 31.36 1.68 30 1 C34.29 1 38.58 1 43 1 C41.02 1.99 41.02 1.99 39 3 C39 17.19 39 31.38 39 46 C35.67144979 44.3357249 34.0638099 43.31939585 31.546875 40.8125 C30.928125 40.19632813 30.309375 39.58015625 29.671875 38.9453125 C29.03765625 38.30335937 28.4034375 37.66140625 27.75 37 C27.1003125 36.35804687 26.450625 35.71609375 25.78125 35.0546875 C25.16765625 34.43851563 24.5540625 33.82234375 23.921875 33.1875 C23.36081055 32.62417969 22.79974609 32.06085937 22.22167969 31.48046875 C21 30 21 30 21 28 C20.34 28 19.68 28 19 28 C17.51953125 26.53125 17.51953125 26.53125 15.8125 24.5 C15.26207031 23.8503125 14.71164063 23.200625 14.14453125 22.53125 C13.43683594 21.6959375 12.72914062 20.860625 12 20 C9.69 17.36 7.38 14.72 5 12 C5 22.56 5 33.12 5 44 C6.65 44 8.3 44 10 44 C10 44.66 10 45.32 10 46 C5.38 46 0.76 46 -4 46 C-4 45.34 -4 44.68 -4 44 C-2.515 43.505 -2.515 43.505 -1 43 C-0.67 28.81 -0.34 14.62 0 0 Z " fill="#100D0D" transform="translate(64,14)"/>
<path d="M0 0 C3.9158665 1.30528883 4.27009866 2.73244101 6.2578125 6.29296875 C7.19040894 7.94232422 7.19040894 7.94232422 8.1418457 9.625 C8.46609528 10.20765625 8.79034485 10.7903125 9.12442017 11.390625 C10.78876861 14.37951805 12.48311352 17.35130058 14.17578125 20.32421875 C14.50670273 20.90690521 14.83762421 21.48959167 15.17857361 22.0899353 C21.36600328 34.85740269 21.36600328 34.85740269 31.125 43.625 C32.053125 43.810625 32.053125 43.810625 33 44 C33 44.66 33 45.32 33 46 C29.04 46 25.08 46 21 46 C20.608125 44.845 20.21625 43.69 19.8125 42.5 C18.34091398 38.52388779 16.35503627 35.16881477 13.98828125 31.6640625 C13 30 13 30 13 28 C6.565 28.495 6.565 28.495 0 29 C-0.66 33.95 -1.32 38.9 -2 44 C-0.68 44 0.64 44 2 44 C2 44.66 2 45.32 2 46 C-2.29 46 -6.58 46 -11 46 C-11 45.34 -11 44.68 -11 44 C-9.515 43.505 -9.515 43.505 -8 43 C-4.93611142 34.43445555 -4.11615619 24.85104153 -2.875 15.875 C-2.5414768 13.49705596 -2.20565186 11.11943327 -1.8671875 8.7421875 C-1.72394043 7.7094873 -1.58069336 6.67678711 -1.43310547 5.61279297 C-1 3 -1 3 0 0 Z " fill="#161312" transform="translate(367,14)"/>
<path d="M0 0 C2.32391182 2.10552507 3.57081348 3.88024074 4.70166016 6.79711914 C4.99851715 7.55122574 5.29537415 8.30533234 5.60122681 9.08229065 C6.06545547 10.29645912 6.06545547 10.29645912 6.5390625 11.53515625 C7.02854874 12.78684853 7.02854874 12.78684853 7.52792358 14.06382751 C8.56772133 16.72722512 9.59660548 19.39468123 10.625 22.0625 C11.66292036 24.73291259 12.70301205 27.40247101 13.74349976 30.07188416 C14.38990683 31.73269062 15.03435345 33.39426169 15.67666626 35.05665588 C17.2134234 39.08235017 17.2134234 39.08235017 19 43 C20.64363134 43.72159424 22.31050386 44.39351421 24 45 C24 45.33 24 45.66 24 46 C19.71 46 15.42 46 11 46 C10.896875 45.05125 10.79375 44.1025 10.6875 43.125 C10.00721416 38.25295291 8.4755609 33.683302 7 29 C2.38 29 -2.24 29 -7 29 C-7.495 30.546875 -7.99 32.09375 -8.5 33.6875 C-8.7784375 34.55761719 -9.056875 35.42773438 -9.34375 36.32421875 C-10.0092269 39.0376216 -10.26514394 41.22072331 -10 44 C-9.34 44.66 -8.68 45.32 -8 46 C-12.29 46 -16.58 46 -21 46 C-19.35 44.68 -17.7 43.36 -16 42 C-14.77482897 40.00431666 -14.77482897 40.00431666 -14.07128906 37.7980957 C-13.77458313 36.98077469 -13.4778772 36.16345367 -13.17218018 35.32136536 C-12.87301697 34.4483226 -12.57385376 33.57527985 -12.265625 32.67578125 C-11.94213074 31.77377487 -11.61863647 30.87176849 -11.28533936 29.94242859 C-10.25867292 27.07082423 -9.25374257 24.19218789 -8.25 21.3125 C-7.22754108 18.42384965 -6.20073273 15.53679156 -5.17181396 12.6504364 C-4.53380845 10.85590268 -3.90042653 9.05971738 -3.27203369 7.26179504 C-2.9879364 6.45393051 -2.70383911 5.64606598 -2.41113281 4.8137207 C-2.16196106 4.09964554 -1.91278931 3.38557037 -1.65606689 2.64985657 C-1 1 -1 1 0 0 Z " fill="#141111" transform="translate(172,85)"/>
<path d="M0 0 C3.03413149 2.6563294 4.76944251 5.80811817 6.765625 9.28515625 C7.12211121 9.90087997 7.47859741 10.5166037 7.84588623 11.15098572 C8.98507882 13.11894046 10.11824747 15.09025833 11.25 17.0625 C19.71509958 33.85877446 19.71509958 33.85877446 33 46 C28.71 46 24.42 46 20 46 C19.608125 44.845 19.21625 43.69 18.8125 42.5 C18.21979264 40.99543516 17.61494733 39.49561263 17 38 C16.71769531 37.24847656 16.43539063 36.49695313 16.14453125 35.72265625 C14.9793999 33.25400631 14.10422594 31.76157537 12 30 C7.5295671 28.99510318 3.63181112 29 -1 29 C-1.33 33.95 -1.66 38.9 -2 44 C-1.01 44.66 -0.02 45.32 1 46 C-3.29 46 -7.58 46 -12 46 C-10.68 45.01 -9.36 44.02 -8 43 C-7.25279052 40.12101276 -6.74908471 37.49900214 -6.3671875 34.5703125 C-6.24441437 33.742966 -6.12164124 32.91561951 -5.99514771 32.0632019 C-5.60540202 29.41920431 -5.23908098 26.77264308 -4.875 24.125 C-4.49995422 21.48523616 -4.11995471 18.84632884 -3.73342896 16.20822144 C-3.49432439 14.56764254 -3.26244575 12.92598964 -3.03878784 11.28323364 C-2.46344068 7.24887618 -1.74367062 3.73031937 0 0 Z " fill="#100D0D" transform="translate(414,85)"/>
<path d="M0 0 C2.31 0 4.62 0 7 0 C7.33 8.25 7.66 16.5 8 25 C14.40371521 26.4472136 14.40371521 26.4472136 18 25 C19.25838557 22.48322887 19.20818973 20.58706712 19.31640625 17.7734375 C19.35830078 16.7421875 19.40019531 15.7109375 19.44335938 14.6484375 C19.48267578 13.56820312 19.52199219 12.48796875 19.5625 11.375 C19.60568359 10.28703125 19.64886719 9.1990625 19.69335938 8.078125 C19.7996453 5.3855483 19.90168057 2.69287747 20 0 C22.64 0 25.28 0 28 0 C28 10.56 28 21.12 28 32 C25.36 32 22.72 32 20 32 C19.67 31.34 19.34 30.68 19 30 C18.01 30.66 17.02 31.32 16 32 C13.4765625 32.3359375 13.4765625 32.3359375 10.625 32.375 C9.22121094 32.41753906 9.22121094 32.41753906 7.7890625 32.4609375 C4.11509036 31.85375443 2.61212969 30.63675965 0 28 C-0.56762695 24.97558594 -0.56762695 24.97558594 -0.48828125 21.484375 C-0.47216797 20.23398438 -0.45605469 18.98359375 -0.43945312 17.6953125 C-0.39755859 16.39335937 -0.35566406 15.09140625 -0.3125 13.75 C-0.28994141 12.43257812 -0.26738281 11.11515625 -0.24414062 9.7578125 C-0.18519594 6.50406596 -0.10295053 3.25260329 0 0 Z " fill="#090707" transform="translate(358,179)"/>
<path d="M0 0 C2.31 0 4.62 0 7 0 C7.33 0.99 7.66 1.98 8 3 C8.37382813 2.5153125 8.74765625 2.030625 9.1328125 1.53125 C11.72619231 -0.59553846 13.55470316 -0.46687983 16.875 -0.5 C17.90367187 -0.5309375 18.93234375 -0.561875 19.9921875 -0.59375 C23 0 23 0 25.86328125 1.66796875 C29.31546155 7.05135046 28.52232589 12.57260086 28.3125 18.8125 C28.28994141 20.07771484 28.26738281 21.34292969 28.24414062 22.64648438 C28.18529078 25.76552619 28.1031137 28.88215902 28 32 C25.36 32 22.72 32 20 32 C19.505 19.625 19.505 19.625 19 7 C12.68353656 5.92928932 12.68353656 5.92928932 9 6 C8.00544091 8.98367726 7.80440368 11.2004192 7.68359375 14.32421875 C7.64169922 15.35224609 7.59980469 16.38027344 7.55664062 17.43945312 C7.51732422 18.51130859 7.47800781 19.58316406 7.4375 20.6875 C7.39431641 21.77095703 7.35113281 22.85441406 7.30664062 23.97070312 C7.20053162 26.64700791 7.09847639 29.32340526 7 32 C4.69 32 2.38 32 0 32 C0 21.44 0 10.88 0 0 Z " fill="#090707" transform="translate(688,179)"/>
<path d="M0 0 C1.29808594 -0.01675781 2.59617187 -0.03351563 3.93359375 -0.05078125 C7.70829685 0.32709538 9.58227764 1.02302076 12.5625 3.3125 C13.91689668 6.02129335 13.62751451 8.32183268 13.5625 11.3125 C11.2525 11.3125 8.9425 11.3125 6.5625 11.3125 C6.2325 9.6625 5.9025 8.0125 5.5625 6.3125 C4.10426788 6.2854957 2.64589325 6.26610213 1.1875 6.25 C-0.03066406 6.23259766 -0.03066406 6.23259766 -1.2734375 6.21484375 C-3.48687142 6.16783666 -3.48687142 6.16783666 -5.4375 7.3125 C-5.4375 13.2525 -5.4375 19.1925 -5.4375 25.3125 C-3.03204362 26.51522819 -1.48753047 26.41321472 1.1875 26.375 C2.00476563 26.36597656 2.82203125 26.35695312 3.6640625 26.34765625 C4.29054688 26.33605469 4.91703125 26.32445312 5.5625 26.3125 C5.5625 24.3325 5.5625 22.3525 5.5625 20.3125 C8.2025 20.3125 10.8425 20.3125 13.5625 20.3125 C14.05315421 26.69100467 14.05315421 26.69100467 11.6875 29.6875 C7.92028124 32.56831435 4.84533057 32.52745458 0.25 32.5625 C-1.06613281 32.58828125 -2.38226562 32.6140625 -3.73828125 32.640625 C-7.60341501 32.29778315 -9.40928741 31.67329233 -12.4375 29.3125 C-15.20255729 25.16491407 -14.76828822 21.80948182 -14.75 16.9375 C-14.76611328 16.08671875 -14.78222656 15.2359375 -14.79882812 14.359375 C-14.80255968 9.56805317 -14.68833705 6.11370449 -11.4375 2.3125 C-7.95810362 -0.29901973 -4.22696398 0.01256778 0 0 Z " fill="#110E0E" transform="translate(634.4375,178.6875)"/>
<path d="M0 0 C1.29808594 -0.01675781 2.59617187 -0.03351563 3.93359375 -0.05078125 C7.70829685 0.32709538 9.58227764 1.02302076 12.5625 3.3125 C13.91689668 6.02129335 13.62751451 8.32183268 13.5625 11.3125 C11.2525 11.3125 8.9425 11.3125 6.5625 11.3125 C6.2325 9.6625 5.9025 8.0125 5.5625 6.3125 C4.10426788 6.2854957 2.64589325 6.26610213 1.1875 6.25 C-0.03066406 6.23259766 -0.03066406 6.23259766 -1.2734375 6.21484375 C-3.48687142 6.16783666 -3.48687142 6.16783666 -5.4375 7.3125 C-5.4375 13.2525 -5.4375 19.1925 -5.4375 25.3125 C-3.03204362 26.51522819 -1.48753047 26.41321472 1.1875 26.375 C2.00476563 26.36597656 2.82203125 26.35695312 3.6640625 26.34765625 C4.29054688 26.33605469 4.91703125 26.32445312 5.5625 26.3125 C5.5625 24.3325 5.5625 22.3525 5.5625 20.3125 C8.2025 20.3125 10.8425 20.3125 13.5625 20.3125 C14.05315421 26.69100467 14.05315421 26.69100467 11.6875 29.6875 C7.92028124 32.56831435 4.84533057 32.52745458 0.25 32.5625 C-1.06613281 32.58828125 -2.38226563 32.6140625 -3.73828125 32.640625 C-7.60341501 32.29778315 -9.40928741 31.67329233 -12.4375 29.3125 C-15.20255729 25.16491407 -14.76828822 21.80948182 -14.75 16.9375 C-14.76611328 16.08671875 -14.78222656 15.2359375 -14.79882812 14.359375 C-14.80255968 9.56805317 -14.68833705 6.11370449 -11.4375 2.3125 C-7.95810362 -0.29901973 -4.22696398 0.01256778 0 0 Z " fill="#110E0E" transform="translate(338.4375,178.6875)"/>
<path d="M0 0 C2.64 0 5.28 0 8 0 C8 2.31 8 4.62 8 7 C11.96 7 15.92 7 20 7 C20 8.98 20 10.96 20 13 C16.04 13 12.08 13 8 13 C8.33 19.6 8.66 26.2 9 33 C10.32 33 11.64 33 13 33 C13.33 31.02 13.66 29.04 14 27 C16.31 27 18.62 27 21 27 C21.48815166 34.32227488 21.48815166 34.32227488 19.390625 37.234375 C16.27777776 39.53340597 14.34024925 39.53523164 10.5 39.5 C9.3759375 39.5103125 8.251875 39.520625 7.09375 39.53125 C4 39 4 39 1.609375 37.671875 C-1.03077364 33.28871561 -0.4150313 28.75171789 -0.25 23.75 C-0.23195313 22.71875 -0.21390625 21.6875 -0.1953125 20.625 C-0.14822712 18.08238936 -0.0824805 15.54166838 0 13 C-1.32 13 -2.64 13 -4 13 C-4 11.02 -4 9.04 -4 7 C-2.68 7 -1.36 7 0 7 C0 4.69 0 2.38 0 0 Z " fill="#0D0C0C" transform="translate(467,172)"/>
<path d="M0 0 C2.64 0 5.28 0 8 0 C8 2.31 8 4.62 8 7 C11.96 7 15.92 7 20 7 C20 8.98 20 10.96 20 13 C16.04 13 12.08 13 8 13 C8.33 19.6 8.66 26.2 9 33 C10.32 33 11.64 33 13 33 C13.33 31.02 13.66 29.04 14 27 C16.31 27 18.62 27 21 27 C21.48815166 34.32227488 21.48815166 34.32227488 19.390625 37.234375 C16.27777776 39.53340597 14.34024925 39.53523164 10.5 39.5 C9.3759375 39.5103125 8.251875 39.520625 7.09375 39.53125 C4 39 4 39 1.609375 37.671875 C-1.03077364 33.28871561 -0.4150313 28.75171789 -0.25 23.75 C-0.23195313 22.71875 -0.21390625 21.6875 -0.1953125 20.625 C-0.14822712 18.08238936 -0.0824805 15.54166838 0 13 C-1.32 13 -2.64 13 -4 13 C-4 11.02 -4 9.04 -4 7 C-2.68 7 -1.36 7 0 7 C0 4.69 0 2.38 0 0 Z " fill="#0D0C0C" transform="translate(407,172)"/>
<path d="M0 0 C1.98 0 3.96 0 6 0 C6 10.23 6 20.46 6 31 C4.35 31 2.7 31 1 31 C0.67 30.34 0.34 29.68 0 29 C-0.66 29.66 -1.32 30.32 -2 31 C-6.17739176 31.30943643 -9.4772983 31.43879349 -13 29 C-14.50929383 25.98141234 -14.22510073 22.87099046 -14.25 19.5625 C-14.270625 18.88123047 -14.29125 18.19996094 -14.3125 17.49804688 C-14.3350395 14.62144286 -14.3240718 12.51542849 -12.76953125 10.04296875 C-10.51274344 8.71280905 -9.04464706 8.6640973 -6.4375 8.75 C-5.25994141 8.77320313 -5.25994141 8.77320313 -4.05859375 8.796875 C-2 9 -2 9 0 10 C0 6.7 0 3.4 0 0 Z " fill="#110E0E" transform="translate(524,177)"/>
<path d="M0 0 C0 3.63 0 7.26 0 11 C-0.66 11 -1.32 11 -2 11 C-2.37125 9.88625 -2.7425 8.7725 -3.125 7.625 C-4.36925138 4.78673072 -4.75265808 4.13875278 -7.5625 2.5625 C-14.89574893 1.36251381 -22.45432556 0.93351865 -29 5 C-33.27912518 10.15689444 -34.43035596 14.93178591 -34.34375 21.4921875 C-33.52763877 27.4460899 -30.50998599 33.02747348 -26 37 C-20.25335834 40.83109444 -15.81210332 41.56973955 -9 41 C-6.12447544 40.55177592 -6.12447544 40.55177592 -4 39 C-2.15725024 35.98303591 -2.15725024 35.98303591 -1 33 C-0.67 33 -0.34 33 0 33 C-0.06000106 34.6260287 -0.1487885 36.25101549 -0.25 37.875 C-0.29640625 38.77992187 -0.3428125 39.68484375 -0.390625 40.6171875 C-1 43 -1 43 -2.5703125 44.296875 C-10.68346459 46.64473252 -21.26509469 46.00130436 -28.87890625 42.40625 C-33.71304836 39.20129391 -37.92795673 34.46089909 -40 29 C-40.70392288 21.89529 -41.26941552 13.92923755 -37.39453125 7.64453125 C-27.64178345 -3.85660831 -13.57888923 -3.62103713 0 0 Z " fill="#121010" transform="translate(372,87)"/>
<path d="M0 0 C0 2.64 0 5.28 0 8 C-0.66 8 -1.32 8 -2 8 C-2.33 7.01 -2.66 6.02 -3 5 C-8.445 4.505 -8.445 4.505 -14 4 C-14 9.28 -14 14.56 -14 20 C-7.565 19.505 -7.565 19.505 -1 19 C-1 21.97 -1 24.94 -1 28 C-1.66 28 -2.32 28 -3 28 C-3 26.68 -3 25.36 -3 24 C-6.63 23.67 -10.26 23.34 -14 23 C-13.67 29.27 -13.34 35.54 -13 42 C-11.246875 42.0825 -9.49375 42.165 -7.6875 42.25 C-6.70136719 42.29640625 -5.71523437 42.3428125 -4.69921875 42.390625 C-1.85596306 42.26903428 -1.85596306 42.26903428 -0.14453125 39.984375 C0.23316406 39.32953125 0.61085937 38.6746875 1 38 C1.04241723 40.33294775 1.04092937 42.66702567 1 45 C0 46 0 46 -2.31665039 46.11352539 C-3.31688232 46.10828857 -4.31711426 46.10305176 -5.34765625 46.09765625 C-6.42724609 46.09443359 -7.50683594 46.09121094 -8.61914062 46.08789062 C-9.75544922 46.07951172 -10.89175781 46.07113281 -12.0625 46.0625 C-13.20267578 46.05798828 -14.34285156 46.05347656 -15.51757812 46.04882812 C-18.34510351 46.03699747 -21.1725264 46.0205141 -24 46 C-24 45.34 -24 44.68 -24 44 C-22.515 43.505 -22.515 43.505 -21 43 C-20.90118214 37.50078594 -20.82855621 32.00208765 -20.78027344 26.50219727 C-20.76014793 24.63101196 -20.73284451 22.75988961 -20.69824219 20.88891602 C-20.64976419 18.20052568 -20.62704128 15.51296612 -20.609375 12.82421875 C-20.58872986 11.98662521 -20.56808472 11.14903168 -20.54681396 10.28605652 C-20.47072671 5.63197566 -20.47072671 5.63197566 -23.02441406 1.94848633 C-23.67635742 1.63548584 -24.32830078 1.32248535 -25 1 C-21.02084729 0.83299906 -17.04167558 0.66645506 -13.0625 0.5 C-11.35803711 0.42845703 -11.35803711 0.42845703 -9.61914062 0.35546875 C-7.99975586 0.28779297 -7.99975586 0.28779297 -6.34765625 0.21875 C-5.34742432 0.17685547 -4.34719238 0.13496094 -3.31665039 0.09179688 C-1 0 -1 0 0 0 Z " fill="#1B1817" transform="translate(213,14)"/>
<path d="M0 0 C2.31 0 4.62 0 7 0 C1.77800087 15.18238052 -3.77397017 30.22741056 -9.4375 45.25 C-10.27299453 47.47127592 -11.10828211 49.69262968 -11.94335938 51.9140625 C-13.95986445 57.27693784 -15.97888473 62.63886052 -18 68 C-20.31 68 -22.62 68 -25 68 C-23.12495024 61.35701645 -20.8967979 54.99622528 -18.25 48.625 C-15.12138076 40.95898071 -12.27648884 33.23664113 -9.59057617 25.40576172 C-6.63740449 16.84113893 -3.34483105 8.41799424 0 0 Z " fill="#F08110" transform="translate(605,22)"/>
<path d="M0 0 C4.95 0 9.9 0 15 0 C14.34 1.32 13.68 2.64 13 4 C13.74415889 7.21446252 13.74415889 7.21446252 15.2109375 10.6640625 C15.58141708 11.61398575 15.58141708 11.61398575 15.9593811 12.58309937 C16.75025912 14.6030694 17.56173643 16.61395108 18.375 18.625 C19.17689509 20.64462321 19.97447705 22.66586667 20.76919556 24.68832397 C21.49129525 26.52002926 22.22463916 28.34728981 22.95849609 30.17431641 C24 33 24 33 24 35 C24.66 35 25.32 35 26 35 C26.16798096 34.40574219 26.33596191 33.81148437 26.5090332 33.19921875 C28.40847638 26.65704554 30.70117801 20.33944666 33.1875 14 C33.91318784 12.14701774 34.63599864 10.2929053 35.35546875 8.4375 C35.67153076 7.63183594 35.98759277 6.82617188 36.31323242 5.99609375 C37.10844611 4.03662301 37.10844611 4.03662301 37 2 C36.01 1.34 35.02 0.68 34 0 C38.29 0 42.58 0 47 0 C46.27554688 0.59167969 45.55109375 1.18335937 44.8046875 1.79296875 C40.79334153 5.81701779 39.16286502 11.11259748 37.125 16.3125 C36.25637227 18.46531375 35.38657563 20.61765622 34.515625 22.76953125 C34.09216797 23.82479004 33.66871094 24.88004883 33.23242188 25.96728516 C31.52115771 30.17832386 29.71353107 34.34325805 27.875 38.5 C27.57996582 39.16942627 27.28493164 39.83885254 26.98095703 40.52856445 C26.32263224 42.01992486 25.66167975 43.51012507 25 45 C24.01 45 23.02 45 22 45 C21.53102295 43.8039917 21.0620459 42.6079834 20.57885742 41.37573242 C18.83674748 36.93900397 17.08436805 32.50639246 15.32885742 28.07495117 C14.57051367 26.15646314 13.81495914 24.23687014 13.06225586 22.31616211 C11.97981546 19.55547529 10.88740476 16.79891835 9.79296875 14.04296875 C9.45847214 13.18350143 9.12397552 12.32403412 8.77934265 11.43852234 C8.45923721 10.63791885 8.13913177 9.83731537 7.80932617 9.01245117 C7.53174973 8.3085173 7.25417328 7.60458344 6.96818542 6.87931824 C5.27858655 3.5996841 3.0527457 2.0351638 0 0 Z " fill="#0D0B0A" transform="translate(137,15)"/>
<path d="M0 0 C18.315 0.495 18.315 0.495 37 1 C37 3.31 37 5.62 37 8 C36.34 8 35.68 8 35 8 C35 7.01 35 6.02 35 5 C28.07 4.505 28.07 4.505 21 4 C21.33 16.87 21.66 29.74 22 43 C23.32 43.33 24.64 43.66 26 44 C26 44.66 26 45.32 26 46 C21.38 46 16.76 46 12 46 C12 45.34 12 44.68 12 44 C12.99 44 13.98 44 15 44 C15 30.8 15 17.6 15 4 C2.83156675 3.51764187 2.83156675 3.51764187 -1 8 C-0.67 5.36 -0.34 2.72 0 0 Z " fill="#181515" transform="translate(316,14)"/>
<path d="M0 0 C7.92 0 15.84 0 24 0 C24 2.64 24 5.28 24 8 C23.34 7.67 22.68 7.34 22 7 C22 6.01 22 5.02 22 4 C18.04 3.67 14.08 3.34 10 3 C10 8.61 10 14.22 10 20 C16.435 19.505 16.435 19.505 23 19 C23 21.64 23 24.28 23 27 C22.525625 26.360625 22.05125 25.72125 21.5625 25.0625 C18.36917575 22.11424075 18.36917575 22.11424075 10 22 C10.33 28.27 10.66 34.54 11 41 C14.96 41 18.92 41 23 41 C23.66 39.68 24.32 38.36 25 37 C25.33 37 25.66 37 26 37 C26.04241723 39.33294775 26.04092937 41.66702567 26 44 C25 45 25 45 22.68334961 45.11352539 C21.68311768 45.10828857 20.68288574 45.10305176 19.65234375 45.09765625 C18.57275391 45.09443359 17.49316406 45.09121094 16.38085938 45.08789062 C15.24455078 45.07951172 14.10824219 45.07113281 12.9375 45.0625 C11.79732422 45.05798828 10.65714844 45.05347656 9.48242188 45.04882812 C6.65489649 45.03699747 3.8274736 45.0205141 1 45 C1.72908569 44.27598999 1.72908569 44.27598999 2.47290039 43.53735352 C4.64166793 39.93383616 4.44856684 36.4885584 4.43359375 32.40234375 C4.4388356 31.57166885 4.44407745 30.74099396 4.44947815 29.88514709 C4.45589046 28.13267127 4.45457157 26.38015236 4.44604492 24.62768555 C4.4375177 21.94307252 4.46633261 19.26057567 4.49804688 16.57617188 C4.49965856 14.87239647 4.49908197 13.1686173 4.49609375 11.46484375 C4.50732773 10.66167221 4.51856171 9.85850067 4.53013611 9.0309906 C4.54364162 6.50664415 4.54364162 6.50664415 4 3 C2.68 2.01 1.36 1.02 0 0 Z " fill="#070606" transform="translate(239,86)"/>
<path d="M0 0 C12.21 0 24.42 0 37 0 C37 2.64 37 5.28 37 8 C36.34 8 35.68 8 35 8 C35 7.01 35 6.02 35 5 C28.07 4.505 28.07 4.505 21 4 C21.33 16.87 21.66 29.74 22 43 C23.32 43.33 24.64 43.66 26 44 C26 44.66 26 45.32 26 46 C21.38 46 16.76 46 12 46 C12 45.34 12 44.68 12 44 C12.99 44 13.98 44 15 44 C15.33 30.47 15.66 16.94 16 3 C2.96666667 3.43333333 2.96666667 3.43333333 -1 8 C-0.67 5.36 -0.34 2.72 0 0 Z " fill="#13100F" transform="translate(394,14)"/>
<path d="M0 0 C2.64 0 5.28 0 8 0 C8 14.85 8 29.7 8 45 C5.36 45 2.72 45 0 45 C0 30.15 0 15.3 0 0 Z " fill="#100E0E" transform="translate(393,166)"/>
<path d="M0 0 C0 2.31 0 4.62 0 7 C-0.99 7.495 -0.99 7.495 -2 8 C-2.33 6.35 -2.66 4.7 -3 3 C-6.63 3 -10.26 3 -14 3 C-14.4138514 7.22128427 -14.60117978 9.25736616 -11.875 12.625 C-9.92094346 14.23922062 -7.94036741 15.82175589 -5.9375 17.375 C-2.19200536 20.72203777 0.70351179 23.8868738 1.1953125 29.05078125 C0.93777614 33.0728933 0.19861273 34.7606462 -2.4375 37.9375 C-6.22222086 40.98373874 -8.18450992 41.15856076 -13 41.1875 C-14.0725 41.20167969 -15.145 41.21585938 -16.25 41.23046875 C-19 41 -19 41 -21 39 C-21.125 35.375 -21.125 35.375 -21 32 C-20.01 31.505 -20.01 31.505 -19 31 C-18.62875 31.969375 -18.2575 32.93875 -17.875 33.9375 C-16.29650876 37.2482038 -16.29650876 37.2482038 -13.0625 38 C-9.12868178 38.06573078 -9.12868178 38.06573078 -6 36 C-4.73376459 32.72565709 -4.73376459 32.72565709 -5 29 C-7.82677449 24.67150156 -11.4396077 21.62177917 -15.44921875 18.39453125 C-17.66338055 16.4034588 -18.88711886 14.64038338 -19.40625 11.6953125 C-19.57817118 6.98180695 -19.55652847 4.73227431 -16.625 0.875 C-11.73338599 -2.44055699 -5.36978392 -1.78992797 0 0 Z " fill="#0F0D0D" transform="translate(286,6)"/>
<path d="M0 0 C4.95 0 9.9 0 15 0 C13.68 0.99 12.36 1.98 11 3 C10.63115824 5.75146376 10.50929971 8.09732179 10.57421875 10.84375 C10.57750687 11.60925171 10.58079498 12.37475342 10.58418274 13.16345215 C10.59459955 14.78076689 10.61454295 16.3980443 10.64331055 18.01513672 C10.68733584 20.49076877 10.70473935 22.9654314 10.71679688 25.44140625 C10.73022352 27.01303481 10.74514721 28.58465145 10.76171875 30.15625 C10.76910568 30.89693726 10.77649261 31.63762451 10.78410339 32.40075684 C10.84207498 35.52089731 11.00624809 38.01874428 12 41 C14.10304477 41.1080023 16.20766909 41.18558987 18.3125 41.25 C19.48425781 41.29640625 20.65601563 41.3428125 21.86328125 41.390625 C25.09700569 41.32434604 25.09700569 41.32434604 26.91796875 38.984375 C27.27503906 38.32953125 27.63210937 37.6746875 28 37 C28.04241723 39.33294775 28.04092937 41.66702567 28 44 C27 45 27 45 24.49975586 45.11352539 C23.41573486 45.10828857 22.33171387 45.10305176 21.21484375 45.09765625 C19.46010742 45.09282227 19.46010742 45.09282227 17.66992188 45.08789062 C16.43822266 45.07951172 15.20652344 45.07113281 13.9375 45.0625 C12.08415039 45.05573242 12.08415039 45.05573242 10.19335938 45.04882812 C7.12885883 45.03699608 4.06445279 45.02051173 1 45 C1.48666641 44.58488159 1.97333282 44.16976318 2.4747467 43.74206543 C5.06012185 40.78918365 4.44686961 37.0265463 4.43359375 33.28125 C4.4388356 32.42696411 4.44407745 31.57267822 4.44947815 30.69250488 C4.45589938 28.88697395 4.45456002 27.08140118 4.44604492 25.27587891 C4.43753074 22.50998683 4.46629979 19.74615691 4.49804688 16.98046875 C4.49965885 15.22656312 4.49908143 13.47265383 4.49609375 11.71875 C4.50732773 10.89056763 4.51856171 10.06238525 4.53013611 9.20910645 C4.54380963 6.60833965 4.54380963 6.60833965 4 3 C2.68 2.01 1.36 1.02 0 0 Z " fill="#090707" transform="translate(202,86)"/>
<path d="M0 0 C4.19511576 -0.07521585 8.38985477 -0.12909381 12.58544922 -0.16479492 C14.00706841 -0.17970701 15.42864307 -0.20004409 16.85009766 -0.22631836 C39.9069041 -0.64124325 39.9069041 -0.64124325 48.53125 6.35546875 C52.45374418 10.74741037 54.70074076 15.83037053 55.5 21.625 C54.39366637 29.09275198 51.72140834 34.93430362 46 40 C41.57830849 42.91249142 37.29859277 44.47014072 32 45 C31.67 44.01 31.34 43.02 31 42 C31.66386719 41.80664062 32.32773437 41.61328125 33.01171875 41.4140625 C35.6801561 40.62716565 38.33994697 39.81471762 41 39 C42.485 38.566875 42.485 38.566875 44 38.125 C46.75625596 36.57460602 47.12936266 34.97467759 48 32 C48.495 30.515 48.495 30.515 49 29 C49.72773842 22.5647131 49.62374541 17.10182575 45.7578125 11.72265625 C38.84235186 4.94550483 29.86072728 3.93755975 20.6875 3.4375 C19.94693359 3.39431641 19.20636719 3.35113281 18.44335938 3.30664062 C16.62908536 3.20129568 14.8145645 3.10021684 13 3 C13 2.67 13 2.34 13 2 C8.71 2 4.42 2 0 2 C0 1.34 0 0.68 0 0 Z " fill="#1D1918" transform="translate(25,86)"/>
<path d="M0 0 C4.62 0 9.24 0 14 0 C13.01 0.66 12.02 1.32 11 2 C10.68364546 5.01540357 10.55604419 7.82114359 10.56640625 10.83984375 C10.55854347 12.15668907 10.55854347 12.15668907 10.55052185 13.50013733 C10.54409219 15.35872336 10.54545084 17.21735004 10.55395508 19.07592773 C10.562457 21.92309983 10.53373123 24.76826114 10.50195312 27.61523438 C10.50034089 29.41927023 10.50091908 31.22330965 10.50390625 33.02734375 C10.49267227 33.88053696 10.48143829 34.73373016 10.46986389 35.61277771 C10.47924484 36.40692581 10.48862579 37.20107391 10.49829102 38.01928711 C10.49845718 38.71718857 10.49862335 39.41509003 10.49879456 40.13414001 C10.95858488 42.61160284 10.95858488 42.61160284 15 45 C10.05 45 5.1 45 0 45 C0.99 44.34 1.98 43.68 3 43 C3.30380707 39.90155007 3.41982766 37.00672387 3.3984375 33.90625 C3.40274277 32.5525531 3.40274277 32.5525531 3.40713501 31.17150879 C3.40917839 29.261631 3.40362944 27.35173241 3.39111328 25.44189453 C3.37506337 22.51157012 3.39095259 19.58262505 3.41015625 16.65234375 C3.40817387 14.79947611 3.40433029 12.94660933 3.3984375 11.09375 C3.40754654 9.77340759 3.40754654 9.77340759 3.4168396 8.4263916 C3.42061656 5.70533358 3.42061656 5.70533358 3 2 C2.01 1.34 1.02 0.68 0 0 Z " fill="#141110" transform="translate(382,86)"/>
<path d="M0 0 C1.0209375 0.00580078 1.0209375 0.00580078 2.0625 0.01171875 C4 0.3125 4 0.3125 7 2.3125 C7.38818359 4.16015625 7.38818359 4.16015625 7.3984375 6.375 C7.40230469 7.17164063 7.40617188 7.96828125 7.41015625 8.7890625 C7.39855469 9.62179688 7.38695312 10.45453125 7.375 11.3125 C7.38660156 12.14523438 7.39820313 12.97796875 7.41015625 13.8359375 C7.40628906 14.63257813 7.40242187 15.42921875 7.3984375 16.25 C7.39336182 17.34634766 7.39336182 17.34634766 7.38818359 18.46484375 C7 20.3125 7 20.3125 4 22.3125 C2.0625 22.61328125 2.0625 22.61328125 0 22.625 C-0.680625 22.64175781 -1.36125 22.65851563 -2.0625 22.67578125 C-4 22.3125 -4 22.3125 -5.7265625 21.29296875 C-7.73545803 18.16870485 -7.43250839 14.90357962 -7.375 11.3125 C-7.38660156 10.58804688 -7.39820313 9.86359375 -7.41015625 9.1171875 C-7.39363049 6.1315331 -7.36726176 3.88367089 -5.7265625 1.33203125 C-3.65232419 0.10719822 -2.39933699 -0.05907458 0 0 Z " fill="#F5F4F4" transform="translate(736,183.6875)"/>
<path d="M0 0 C3 2 3 2 3.38818359 3.84765625 C3.39156738 4.57855469 3.39495117 5.30945313 3.3984375 6.0625 C3.40230469 6.85914063 3.40617188 7.65578125 3.41015625 8.4765625 C3.39855469 9.30929688 3.38695312 10.14203125 3.375 11 C3.38660156 11.83273438 3.39820313 12.66546875 3.41015625 13.5234375 C3.40628906 14.32007813 3.40242187 15.11671875 3.3984375 15.9375 C3.39336182 17.03384766 3.39336182 17.03384766 3.38818359 18.15234375 C3 20 3 20 0 22 C-1.9375 22.30078125 -1.9375 22.30078125 -4 22.3125 C-4.680625 22.32925781 -5.36125 22.34601563 -6.0625 22.36328125 C-8 22 -8 22 -9.72265625 20.98046875 C-11.73725345 17.85691896 -11.47268355 14.59511876 -11.4375 11 C-11.45748047 10.27554688 -11.47746094 9.55109375 -11.49804688 8.8046875 C-11.4949817 5.48203533 -11.48170802 3.52862763 -9.1953125 1.01953125 C-6.01466043 -0.45760432 -3.45743836 -0.31431258 0 0 Z " fill="#F5F5F5" transform="translate(671,184)"/>
<path d="M0 0 C4.57020648 0.15234022 7.10647072 0.4415442 11 2.875 C13.96066417 7.50103777 13.84920768 11.65640071 13 17 C11.4375 20.1875 11.4375 20.1875 9 22 C5.19611527 22.40040892 2.62328619 22.20776206 -1 21 C-1.02888146 17.68751813 -1.04675799 14.37506833 -1.0625 11.0625 C-1.07087891 10.11697266 -1.07925781 9.17144531 -1.08789062 8.19726562 C-1.09111328 7.29814453 -1.09433594 6.39902344 -1.09765625 5.47265625 C-1.10289307 4.64000244 -1.10812988 3.80734863 -1.11352539 2.94946289 C-1 1 -1 1 0 0 Z " fill="#F4F4F3" transform="translate(236,17)"/>
<path d="M0 0 C0.99 0 1.98 0 3 0 C4.33838733 2.45570175 5.67086232 4.91429916 7 7.375 C7.3815625 8.07367188 7.763125 8.77234375 8.15625 9.4921875 C11 14.7734375 11 14.7734375 11 17 C11.66 17.66 12.32 18.32 13 19 C8.71 19 4.42 19 0 19 C-0.33 23.95 -0.66 28.9 -1 34 C-0.01 34.66 0.98 35.32 2 36 C-2.29 36 -6.58 36 -11 36 C-9.68 35.01 -8.36 34.02 -7 33 C-6.02065987 29.87738458 -6.02065987 29.87738458 -5.5859375 26.25 C-5.48536041 25.59547852 -5.38478333 24.94095703 -5.28115845 24.26660156 C-4.96280581 22.17978558 -4.66760263 20.09056882 -4.375 18 C-4.0719135 15.91014642 -3.76387828 13.82126949 -3.44741821 11.73339844 C-3.16192134 9.83945 -2.89185402 7.94319488 -2.62255859 6.046875 C-2 3 -2 3 0 0 Z " fill="#1B1717" transform="translate(413,95)"/>
<path d="M0 0 C4.62 0 9.24 0 14 0 C13.01 0.66 12.02 1.32 11 2 C10.56445873 3.85003891 10.56445873 3.85003891 10.65942383 5.99072266 C10.65976372 7.22177231 10.65976372 7.22177231 10.66011047 8.47769165 C10.67559433 9.36419403 10.69107819 10.25069641 10.70703125 11.1640625 C10.71127609 12.07127045 10.71552094 12.97847839 10.71989441 13.91317749 C10.73671867 16.81741732 10.7743774 19.7209691 10.8125 22.625 C10.82754201 24.59113583 10.84123125 26.55728251 10.85351562 28.5234375 C10.88663443 33.34922439 10.93844214 38.17449545 11 43 C12.32 43 13.64 43 15 43 C15 43.66 15 44.32 15 45 C10.38 45 5.76 45 1 45 C1 44.34 1 43.68 1 43 C1.99 43 2.98 43 4 43 C4.0988093 37.35836923 4.17143996 31.71724101 4.21972656 26.07495117 C4.23985348 24.15526559 4.2671579 22.23564138 4.30175781 20.31616211 C4.3502293 17.55827704 4.37295742 14.80120173 4.390625 12.04296875 C4.41127014 11.18350143 4.43191528 10.32403412 4.45318604 9.43852234 C4.45348816 8.63791885 4.45379028 7.83731537 4.45410156 7.01245117 C4.46298401 6.3085173 4.47186646 5.60458344 4.48101807 4.87931824 C4.05202001 2.38668156 4.05202001 2.38668156 0 0 Z " fill="#080606" transform="translate(293,15)"/>
<path d="M0 0 C4.62 0 9.24 0 14 0 C13.01 0.66 12.02 1.32 11 2 C10.733513 5.05075084 10.65242854 7.89626179 10.70703125 10.9453125 C10.71127609 11.8303244 10.71552094 12.7153363 10.71989441 13.62716675 C10.73671741 16.46008445 10.77437575 19.29229652 10.8125 22.125 C10.82754218 24.04295849 10.84123139 25.96092811 10.85351562 27.87890625 C10.88663273 32.58621031 10.93843945 37.29298544 11 42 C12.32 42.33 13.64 42.66 15 43 C15 43.66 15 44.32 15 45 C10.38 45 5.76 45 1 45 C1 44.34 1 43.68 1 43 C1.99 43 2.98 43 4 43 C4.0988093 37.35836923 4.17143996 31.71724101 4.21972656 26.07495117 C4.23985348 24.15526559 4.2671579 22.23564138 4.30175781 20.31616211 C4.3502293 17.55827704 4.37295742 14.80120173 4.390625 12.04296875 C4.41127014 11.18350143 4.43191528 10.32403412 4.45318604 9.43852234 C4.45348816 8.63791885 4.45379028 7.83731537 4.45410156 7.01245117 C4.46298401 6.3085173 4.47186646 5.60458344 4.48101807 4.87931824 C4.05202001 2.38668156 4.05202001 2.38668156 0 0 Z " fill="#070606" transform="translate(118,15)"/>
<path d="M0 0 C2.64 0 5.28 0 8 0 C8 10.56 8 21.12 8 32 C5.36 32 2.72 32 0 32 C0 21.44 0 10.88 0 0 Z " fill="#090707" transform="translate(812,179)"/>
<path d="M0 0 C4.62 0 9.24 0 14 0 C14 1.65 14 3.3 14 5 C13.67 4.01 13.34 3.02 13 2 C10.36 2 7.72 2 5 2 C5 5.3 5 8.6 5 12 C9.455 11.505 9.455 11.505 14 11 C14 12.65 14 14.3 14 16 C13.34 16.33 12.68 16.66 12 17 C11.67 16.34 11.34 15.68 11 15 C7.97065509 14.34227572 7.97065509 14.34227572 5 14 C5.33 17.96 5.66 21.92 6 26 C9.41642759 26.25015873 9.41642759 26.25015873 13 26 C13.66 25.01 14.32 24.02 15 23 C15.042721 24.66611905 15.04063832 26.33382885 15 28 C14 29 14 29 10.62109375 29.09765625 C9.22652923 29.09098369 7.83198257 29.07902532 6.4375 29.0625 C5.72658203 29.05798828 5.01566406 29.05347656 4.28320312 29.04882812 C2.52209987 29.03700864 0.76103964 29.01907263 -1 29 C-1 28.34 -1 27.68 -1 27 C-0.34 27 0.32 27 1 27 C0.67 18.09 0.34 9.18 0 0 Z " fill="#181514" transform="translate(47,95)"/>
<path d="M0 0 C6.72918698 3.43936223 12.24900261 8.13297147 18 13 C17.01 14.65 16.02 16.3 15 18 C8.27746528 14.82819865 2.08194628 11.27499123 -4 7 C-2.92598892 4.08482708 -2.22189824 2.22189824 0 0 Z " fill="#F0810F" transform="translate(509,13)"/>
<path d="M0 0 C4.29 0 8.58 0 13 0 C12.28199219 0.5775 11.56398437 1.155 10.82421875 1.75 C6.6472883 5.93134737 4.94195282 11.60066123 2.8125 17 C2.37486328 18.08023438 1.93722656 19.16046875 1.48632812 20.2734375 C0.31209377 23.17765071 -0.84674637 26.0874071 -2 29 C-2.66609992 30.66689325 -3.33258385 32.33363332 -4 34 C-4.99 33.67 -5.98 33.34 -7 33 C-6.35171079 29.24897048 -5.29934341 25.88238849 -3.93359375 22.33203125 C-3.53076172 21.27435547 -3.12792969 20.21667969 -2.71289062 19.12695312 C-2.29201172 18.03318359 -1.87113281 16.93941406 -1.4375 15.8125 C-0.5998802 13.63265484 0.23490629 11.45171815 1.06640625 9.26953125 C1.43709229 8.30635986 1.80777832 7.34318848 2.18969727 6.35083008 C3.10862422 4.09928918 3.10862422 4.09928918 3 2 C2.01 1.34 1.02 0.68 0 0 Z " fill="#161312" transform="translate(171,15)"/>
<path d="M0 0 C3.875 0.875 3.875 0.875 5 2 C5.12658222 4.65822657 5.18520214 7.27887424 5.1875 9.9375 C5.19974609 10.67935547 5.21199219 11.42121094 5.22460938 12.18554688 C5.22988478 14.12513629 5.12188902 16.0642371 5 18 C4.34 18.66 3.68 19.32 3 20 C0.9375 19.8125 0.9375 19.8125 -1 19 C-2.06385483 15.80843552 -2.16677982 13.41502524 -2.1875 10.0625 C-2.20167969 9.02222656 -2.21585938 7.98195313 -2.23046875 6.91015625 C-2.00392282 4.04953387 -1.47733619 2.42329849 0 0 Z " fill="#FDF4EB" transform="translate(611,61)"/>
<path d="M0 0 C0 3.63 0 7.26 0 11 C-0.66 11 -1.32 11 -2 11 C-2.37125 9.88625 -2.7425 8.7725 -3.125 7.625 C-4.36925138 4.78673072 -4.75265808 4.13875278 -7.5625 2.5625 C-15.36521471 1.28569214 -22.39592557 1.94285909 -30 4 C-28.359375 0.15625 -28.359375 0.15625 -25.125 -1.25 C-16.71723885 -3.21181093 -8.22971475 -2.1945906 0 0 Z " fill="#1C1817" transform="translate(372,87)"/>
<path d="M0 0 C3.625 0.375 3.625 0.375 7 1 C7 4.96 7 8.92 7 13 C3.625 13.625 3.625 13.625 0 14 C-2 12 -2 12 -2.265625 9.6875 C-2.26046875 8.800625 -2.2553125 7.91375 -2.25 7 C-2.25515625 6.113125 -2.2603125 5.22625 -2.265625 4.3125 C-2 2 -2 2 0 0 Z " fill="#F9F9F9" transform="translate(517,190)"/>
<path d="M0 0 C1.65 0.33 3.3 0.66 5 1 C6.51708428 13.66970387 6.51708428 13.66970387 4 19 C2.68 19 1.36 19 0 19 C-1.51714839 15.96570323 -1.14363916 12.82398333 -1.125 9.5 C-1.12886719 8.81035156 -1.13273438 8.12070312 -1.13671875 7.41015625 C-1.12666646 2.25333293 -1.12666646 2.25333293 0 0 Z " fill="#FEF7F1" transform="translate(577,31)"/>
<path d="M0 0 C0.99 0.66 1.98 1.32 3 2 C2.625 4.9375 2.625 4.9375 2 8 C-1.18461859 9.5923093 -4.53391489 9.38905037 -8 9 C-10.0625 7.8125 -10.0625 7.8125 -11 6 C-10.8125 3.375 -10.8125 3.375 -10 1 C-6.87293041 -0.5635348 -3.42017557 -0.39958487 0 0 Z " fill="#F8F8F8" transform="translate(843,197)"/>
<path d="M0 0 C0.99 0.66 1.98 1.32 3 2 C2.625 4.9375 2.625 4.9375 2 8 C-1.18461859 9.5923093 -4.53391489 9.38905037 -8 9 C-10.0625 7.8125 -10.0625 7.8125 -11 6 C-10.8125 3.375 -10.8125 3.375 -10 1 C-6.87293041 -0.5635348 -3.42017557 -0.39958487 0 0 Z " fill="#F8F8F8" transform="translate(449,197)"/>
<path d="M0 0 C0.99 0.66 1.98 1.32 3 2 C2.625 4.9375 2.625 4.9375 2 8 C-1.18461859 9.5923093 -4.53391489 9.38905037 -8 9 C-10.0625 7.8125 -10.0625 7.8125 -11 6 C-10.8125 3.375 -10.8125 3.375 -10 1 C-6.87293041 -0.5635348 -3.42017557 -0.39958487 0 0 Z " fill="#F8F8F8" transform="translate(308,197)"/>
<path d="M0 0 C0.66 0 1.32 0 2 0 C3.33858524 2.28874173 4.67101014 4.58069656 6 6.875 C6.3815625 7.52597656 6.763125 8.17695312 7.15625 8.84765625 C10 13.7734375 10 13.7734375 10 16 C6.37 16 2.74 16 -1 16 C-0.67 10.72 -0.34 5.44 0 0 Z " fill="#E8E7E7" transform="translate(368,24)"/>
<path d="M0 0 C2 1 2 1 3.0703125 3.6171875 C3.59238281 5.22980469 3.59238281 5.22980469 4.125 6.875 C4.47820312 7.94492188 4.83140625 9.01484375 5.1953125 10.1171875 C6 13 6 13 6 16 C2.37 16 -1.26 16 -5 16 C-3.35 10.72 -1.7 5.44 0 0 Z " fill="#F2F2F1" transform="translate(171,95)"/>
<path d="M0 0 C3.01490557 3.01490557 4.34911378 5.38816849 6.1875 9.1875 C6.71730469 10.27417969 7.24710937 11.36085938 7.79296875 12.48046875 C8.19128906 13.31191406 8.58960938 14.14335938 9 15 C5.37 15 1.74 15 -2 15 C-1.34 10.05 -0.68 5.1 0 0 Z " fill="#F7F7F7" transform="translate(415,96)"/>
<path d="M0 0 C1.98 0 3.96 0 6 0 C6.05399736 1.45792884 6.09279177 2.91642712 6.125 4.375 C6.14820313 5.18710938 6.17140625 5.99921875 6.1953125 6.8359375 C6 9 6 9 4 11 C2.68 11 1.36 11 0 11 C0.66 9.02 1.32 7.04 2 5 C1.34 5 0.68 5 0 5 C0 3.35 0 1.7 0 0 Z " fill="#211D1D" transform="translate(534,177)"/>
<path d="M0 0 C2.64 0 5.28 0 8 0 C8 2.31 8 4.62 8 7 C5.36 7 2.72 7 0 7 C0 4.69 0 2.38 0 0 Z " fill="#090707" transform="translate(812,166)"/>
<path d="M0 0 C0.66 0.99 1.32 1.98 2 3 C3.62419982 5.29118236 3.62419982 5.29118236 6 7 C9.6675213 7.33417929 9.6675213 7.33417929 13 7 C12.67 7.99 12.34 8.98 12 10 C10.20866022 10.05391993 8.41686101 10.09275571 6.625 10.125 C5.62726563 10.14820313 4.62953125 10.17140625 3.6015625 10.1953125 C1 10 1 10 -1 8 C-1.1875 4.4375 -1.1875 4.4375 -1 1 C-0.67 0.67 -0.34 0.34 0 0 Z " fill="#191615" transform="translate(266,37)"/>
<path d="M0 0 C6.6 0 13.2 0 20 0 C20 2.64 20 5.28 20 8 C19.34 7.67 18.68 7.34 18 7 C18 6.01 18 5.02 18 4 C14.04 3.67 10.08 3.34 6 3 C6 2.67 6 2.34 6 2 C3.03 1.505 3.03 1.505 0 1 C0 0.67 0 0.34 0 0 Z " fill="#241E1D" transform="translate(243,86)"/>
<path d="M0 0 C0.598125 0.20625 1.19625 0.4125 1.8125 0.625 C2.04303497 3.46826464 2.17153101 5.08645349 0.5625 7.5 C-1.1875 8.625 -1.1875 8.625 -3.375 8.3125 C-3.973125 8.085625 -4.57125 7.85875 -5.1875 7.625 C-5.375 4.75 -5.375 4.75 -5.1875 1.625 C-2.1875 -0.375 -2.1875 -0.375 0 0 Z " fill="#F08213" transform="translate(523.1875,51.375)"/>
<path d="M0 0 C4.1970092 -0.35281338 6.06522073 0.35814568 9.3125 3 C10.00988281 3.556875 10.70726562 4.11375 11.42578125 4.6875 C11.94527344 5.120625 12.46476563 5.55375 13 6 C9.22134307 7.25955231 7.96588214 6.48087189 4.3125 5.0625 C3.31863281 4.68222656 2.32476562 4.30195312 1.30078125 3.91015625 C0.54152344 3.60980469 -0.21773437 3.30945313 -1 3 C-0.67 2.01 -0.34 1.02 0 0 Z " fill="#221D1D" transform="translate(243,75)"/>
<path d="M0 0 C0 2.31 0 4.62 0 7 C-0.99 7.495 -0.99 7.495 -2 8 C-2.33 6.35 -2.66 4.7 -3 3 C-5.64 2.67 -8.28 2.34 -11 2 C-7.374967 -1.625033 -4.81746234 -1.01907857 0 0 Z " fill="#292424" transform="translate(286,6)"/>
<path d="M0 0 C0.33 0 0.66 0 1 0 C1.042721 1.66611905 1.04063832 3.33382885 1 5 C0 6 0 6 -3.37890625 6.09765625 C-4.77347077 6.09098369 -6.16801743 6.07902532 -7.5625 6.0625 C-8.27341797 6.05798828 -8.98433594 6.05347656 -9.71679688 6.04882812 C-11.47790013 6.03700864 -13.23896036 6.01907263 -15 6 C-15 5.34 -15 4.68 -15 4 C-10.38 3.67 -5.76 3.34 -1 3 C-0.67 2.01 -0.34 1.02 0 0 Z " fill="#36302F" transform="translate(61,118)"/>
<path d="M0 0 C0.495 0.37125 0.99 0.7425 1.5 1.125 C0.23392393 1.65729326 -1.03810412 2.17544544 -2.3125 2.6875 C-3.02019531 2.97753906 -3.72789063 3.26757812 -4.45703125 3.56640625 C-6.5 4.125 -6.5 4.125 -9.5 3.125 C-9.83 2.465 -10.16 1.805 -10.5 1.125 C-3.11538462 -1.09038462 -3.11538462 -1.09038462 0 0 Z " fill="#292423" transform="translate(66.5,126.875)"/>
<path d="M0 0 C1.9375 0.6875 1.9375 0.6875 2.9375 2.6875 C-0.0325 3.3475 -3.0025 4.0075 -6.0625 4.6875 C-3.4568662 -0.52376761 -3.4568662 -0.52376761 0 0 Z " fill="#262221" transform="translate(348.0625,86.3125)"/>
<path d="M0 0 C0 1.65 0 3.3 0 5 C-0.99 5.495 -0.99 5.495 -2 6 C-2.33 4.68 -2.66 3.36 -3 2 C-4.98 2 -6.96 2 -9 2 C-9 1.67 -9 1.34 -9 1 C-2.25 0 -2.25 0 0 0 Z " fill="#433C3C" transform="translate(61,106)"/>
<path d="M0 0 C-0.33 2.31 -0.66 4.62 -1 7 C-1.99 6.67 -2.98 6.34 -4 6 C-3.625 3.5625 -3.625 3.5625 -3 1 C-1 0 -1 0 0 0 Z " fill="#1D1919" transform="translate(168,42)"/>
<path d="M0 0 C-0.33 0.99 -0.66 1.98 -1 3 C-4.0625 4.1875 -4.0625 4.1875 -7 5 C-6 2 -6 2 -4.0625 0.8125 C-2 0 -2 0 0 0 Z " fill="#1C1717" transform="translate(281,56)"/>
</svg>
