<?xml version="1.0" standalone="no"?>
<!DOCTYPE svg PUBLIC "-//W3C//DTD SVG 20010904//EN"
 "http://www.w3.org/TR/2001/REC-SVG-20010904/DTD/svg10.dtd">
<svg version="1.0" xmlns="http://www.w3.org/2000/svg"
 width="945.000000pt" height="558.000000pt" viewBox="0 0 945.000000 258.000000"
 preserveAspectRatio="xMidYMid meet">

<g transform="translate(0.000000,258.000000) scale(0.100000,-0.100000)"
fill="#000000" stroke="none">
<path d="M951 2339 c-431 -91 -764 -429 -846 -862 -33 -176 -11 -426 52 -585
109 -274 325 -499 584 -608 395 -167 852 -91 1159 193 470 435 477 1159 14
1592 -254 238 -622 341 -963 270z m403 -14 c263 -46 512 -197 666 -405 244
-330 284 -742 105 -1106 -135 -276 -367 -471 -670 -560 -111 -32 -329 -44
-453 -24 -411 66 -746 369 -858 775 -32 113 -42 303 -24 426 68 469 447 842
915 902 76 10 240 6 319 -8z"/>
<path d="M1330 2250 c-18 -28 -30 -53 -27 -57 4 -3 9 2 13 11 9 23 45 20 51
-4 3 -11 11 -20 18 -20 10 0 10 11 -1 56 -7 31 -15 58 -17 60 -2 3 -19 -18
-37 -46z m26 -17 c-10 -10 -19 5 -10 18 6 11 8 11 12 0 2 -7 1 -15 -2 -18z"/>
<path d="M975 2260 c-9 -41 -18 -43 -40 -9 -11 16 -23 29 -27 29 -5 0 -7 -26
-6 -57 1 -46 2 -50 5 -19 l4 39 18 -27 c25 -38 32 -37 46 4 l12 35 7 -32 c5
-19 14 -33 22 -33 9 0 13 3 11 8 -3 4 -10 26 -16 50 -14 49 -27 54 -36 12z"/>
<path d="M1160 2255 c0 -10 7 -15 18 -13 21 4 19 22 -2 26 -10 2 -16 -3 -16
-13z"/>
<path d="M1431 2248 c-23 -64 -22 -77 4 -84 14 -4 29 -4 32 0 4 3 -2 6 -12 6
-18 0 -18 12 1 78 4 13 2 22 -5 22 -6 0 -15 -10 -20 -22z"/>
<path d="M860 2223 l0 -37 -30 29 c-16 16 -33 26 -36 22 -7 -6 55 -87 67 -87
4 0 9 25 11 55 1 30 0 55 -4 55 -5 0 -8 -17 -8 -37z"/>
<path d="M1505 2194 c-18 -49 -12 -65 25 -63 10 0 11 2 3 6 -7 2 -13 14 -13
25 0 15 5 19 20 15 11 -3 20 -1 20 4 0 5 -4 9 -10 9 -5 0 -10 7 -10 16 0 11 6
15 20 11 24 -6 27 8 4 17 -31 12 -42 5 -59 -40z"/>
<path d="M754 2205 c3 -8 9 -23 13 -32 5 -13 3 -15 -13 -9 -50 21 -75 28 -80
23 -7 -6 38 -97 48 -97 5 0 2 13 -7 30 -8 16 -15 31 -15 34 0 3 23 -3 50 -14
56 -22 59 -17 30 40 -19 38 -39 57 -26 25z"/>
<path d="M1610 2181 c0 -23 -7 -34 -27 -46 l-28 -16 28 6 c22 4 27 2 27 -14 0
-11 5 -23 10 -26 10 -6 13 5 11 41 -1 13 7 25 25 33 15 6 24 14 21 17 -3 3
-15 1 -26 -6 -18 -9 -21 -8 -21 9 0 11 -4 23 -10 26 -6 4 -10 -6 -10 -24z"/>
<path d="M1045 2174 c-11 -2 -44 -9 -73 -15 -190 -38 -398 -173 -522 -337
-112 -147 -169 -309 -177 -503 -12 -273 69 -481 262 -674 138 -138 272 -212
458 -251 90 -19 269 -18 364 2 314 65 572 295 672 601 86 265 45 562 -110 790
-84 123 -230 247 -363 308 -126 59 -206 77 -356 80 -74 2 -144 2 -155 -1z
m300 -33 c348 -72 619 -341 689 -683 59 -289 -33 -595 -242 -803 -179 -179
-399 -263 -656 -252 -139 6 -218 24 -333 77 -100 47 -160 87 -236 159 -335
318 -370 832 -81 1192 125 156 313 272 499 307 33 6 69 13 80 16 53 10 199 4
280 -13z"/>
<path d="M1155 2106 c-24 -26 -34 -31 -46 -23 -28 17 -49 1 -47 -35 3 -27 -1
-34 -19 -36 -18 -3 -22 1 -20 24 2 32 -15 41 -37 19 -10 -11 -24 -14 -38 -10
-17 5 -10 -5 22 -33 29 -26 45 -48 45 -63 0 -21 42 -60 76 -71 6 -2 -46 -60
-115 -128 -69 -69 -126 -129 -126 -135 0 -6 74 -84 165 -175 l165 -165 165
165 c91 91 165 169 165 175 0 6 -56 66 -124 134 l-124 124 41 21 c30 15 43 28
45 46 2 15 22 43 50 68 43 39 44 42 20 36 -16 -3 -28 -2 -28 4 0 16 -31 23
-46 11 -11 -9 -11 -15 -3 -25 9 -11 7 -15 -5 -20 -24 -9 -48 14 -36 36 13 24
-14 48 -38 34 -13 -9 -23 -4 -47 22 l-31 32 -29 -32z m60 -16 c20 0 19 -16 0
-24 -20 -7 -19 -45 0 -52 21 -8 47 16 42 38 -6 21 8 32 29 24 11 -4 12 -10 4
-25 -13 -25 13 -53 44 -49 16 2 21 9 19 31 -2 32 -2 32 25 9 l21 -18 -31 -28
c-23 -20 -38 -26 -57 -22 l-26 6 24 -13 c15 -9 20 -17 12 -21 -18 -11 -49 3
-47 22 1 12 -7 18 -29 19 -16 1 -22 -1 -12 -3 27 -8 20 -24 -10 -25 -22 -1
-20 -3 12 -9 22 -5 52 -15 67 -23 l28 -14 -26 -11 c-38 -18 -58 -15 -87 16
-18 18 -25 34 -21 48 4 15 0 23 -14 26 -15 4 -18 1 -15 -13 4 -15 0 -19 -21
-19 -29 0 -35 16 -8 23 11 3 9 5 -8 5 -14 1 -42 -5 -62 -12 -36 -13 -38 -12
-67 18 -25 26 -27 33 -16 44 21 18 32 15 31 -10 -1 -26 27 -36 50 -17 10 8 13
21 9 41 -6 24 -3 28 15 28 16 0 20 -5 18 -26 -3 -30 20 -51 46 -41 20 8 21 46
1 53 -19 8 -20 24 -1 24 8 0 17 8 21 18 6 16 7 16 16 0 6 -10 17 -18 24 -18z
m-55 -50 c0 -13 -7 -20 -20 -20 -13 0 -20 7 -20 20 0 13 7 20 20 20 13 0 20
-7 20 -20z m88 3 c-5 -26 -38 -29 -38 -4 0 15 6 21 21 21 14 0 19 -5 17 -17z
m-154 -82 c7 -10 -43 -25 -52 -16 -7 7 18 25 35 25 6 0 14 -4 17 -9z m51 -41
c-32 -34 -49 -36 -85 -14 -24 14 -24 15 -2 11 12 -3 19 -1 16 4 -7 12 32 28
70 28 l30 1 -29 -30z m57 -7 c17 -15 18 -38 18 -298 0 -271 -1 -283 -20 -300
-19 -17 -22 -17 -36 -3 -13 13 -15 58 -14 303 1 316 5 341 52 298z m-132 -300
l0 -207 -30 29 -30 29 0 150 c0 149 0 150 27 178 15 15 28 28 30 28 2 0 3 -93
3 -207z m263 167 c25 -29 26 -35 26 -165 0 -130 -1 -136 -25 -165 -14 -16 -30
-30 -35 -30 -5 0 -9 84 -9 195 0 111 4 195 9 195 5 0 21 -13 34 -30z m-395
-162 c1 -28 -2 -56 -5 -61 -3 -5 -21 6 -39 24 l-34 33 32 33 c17 18 35 30 39
28 4 -3 7 -28 7 -57z m535 24 l27 -28 -35 -34 -35 -34 0 62 c0 34 4 62 8 62 5
0 20 -13 35 -28z"/>
<path d="M1248 1903 c7 -3 16 -2 19 1 4 3 -2 6 -13 5 -11 0 -14 -3 -6 -6z"/>
<path d="M743 1615 c-9 -10 -9 -15 -1 -17 6 -2 0 -16 -15 -32 -15 -16 -24 -32
-21 -37 3 -5 -1 -6 -9 -3 -7 2 -26 0 -42 -6 -26 -10 -27 -11 -11 -29 17 -18
17 -21 1 -45 -10 -14 -26 -26 -36 -26 -21 0 -25 -15 -8 -26 7 -4 9 -25 7 -56
-3 -27 -1 -51 3 -54 5 -3 9 -12 9 -20 0 -10 -14 -14 -55 -14 l-55 0 0 -212 c0
-244 6 -265 80 -331 38 -36 131 -87 155 -87 24 0 117 51 155 87 74 66 80 87
80 331 l0 212 -45 0 c-46 0 -58 13 -33 38 9 10 8 16 -5 29 -13 14 -17 14 -17
3 0 -10 -3 -11 -11 -3 -6 6 -18 9 -25 6 -8 -3 -14 0 -14 7 0 7 -8 9 -19 5 -17
-5 -51 16 -51 32 0 7 100 -2 124 -12 14 -6 17 -5 14 6 -3 8 1 22 10 31 13 16
12 18 -9 27 -14 5 -31 21 -38 35 -11 20 -21 26 -45 25 -30 -2 -30 -2 -4 -6 31
-5 63 -42 49 -56 -5 -5 -7 -16 -4 -23 3 -10 0 -12 -10 -8 -8 3 -13 13 -11 22
5 20 -12 50 -22 39 -4 -3 -1 -13 5 -21 8 -10 9 -16 1 -21 -6 -3 -8 -11 -5 -16
5 -8 -42 -15 -68 -10 -5 1 -6 -3 -3 -7 8 -13 -31 -45 -44 -37 -6 4 -17 1 -25
-5 -8 -7 -15 -9 -15 -5 0 4 -6 2 -13 -4 -16 -13 -27 -5 -27 20 0 18 26 28 80
30 30 1 32 2 10 8 -16 4 -26 14 -27 29 -2 12 2 22 7 22 6 0 10 -9 10 -20 0
-14 7 -20 21 -20 11 0 17 4 14 10 -4 7 3 7 20 0 35 -13 48 -13 39 2 -4 7 -3 8
4 4 7 -4 12 -1 12 8 0 21 -16 20 -30 -1 -10 -15 -11 -15 -6 -1 2 9 -1 24 -8
34 -13 17 -14 17 -27 -4 -12 -20 -15 -20 -31 -5 -16 14 -19 14 -36 -7 -12 -14
-21 -19 -25 -13 -14 22 27 52 76 56 27 2 52 8 55 13 9 13 45 27 37 15 -3 -6 7
-8 22 -6 16 2 32 4 36 4 17 2 -4 19 -30 26 -31 7 -73 49 -79 78 -5 26 -7 27
-21 12z m45 -75 c4 -12 3 -13 -10 -2 -13 11 -15 8 -15 -15 0 -16 2 -22 4 -15
3 6 9 12 14 12 5 0 4 -8 -2 -17 -14 -23 -114 -31 -122 -10 -4 11 2 13 25 11
16 -2 34 -6 39 -9 5 -4 6 1 3 9 -3 9 -1 16 6 16 6 0 8 -4 5 -10 -3 -5 -2 -10
3 -10 5 0 10 12 10 26 0 18 -4 22 -11 15 -16 -16 -31 -13 -18 3 16 19 63 15
69 -4z m-28 -116 c0 -8 -5 -12 -10 -9 -6 4 -8 11 -5 16 9 14 15 11 15 -7z
m-117 -36 c3 -10 0 -18 -8 -18 -7 0 -15 8 -17 18 -3 11 0 19 8 19 7 0 15 -9
17 -19z m37 12 c0 -5 -7 -10 -16 -10 -8 0 -12 5 -9 10 3 6 10 10 16 10 5 0 9
-4 9 -10z m220 0 c0 -8 -22 -30 -30 -30 -3 0 -6 9 -6 19 0 13 7 19 18 18 10
-1 18 -4 18 -7z m-133 -88 c-15 -19 11 -34 35 -21 12 6 18 6 18 -1 0 -5 9 -10
20 -10 11 0 20 5 20 10 0 6 9 10 20 10 17 0 18 -3 9 -17 -9 -16 -27 -18 -134
-18 -108 0 -125 2 -135 18 -9 15 -8 18 7 15 10 -2 21 -7 25 -13 5 -7 14 -6 26
2 14 8 22 9 30 1 8 -8 16 -7 27 2 11 9 12 17 6 23 -7 7 -7 17 0 29 10 19 11
19 24 1 10 -13 10 -21 2 -31z m-79 -2 c-7 -11 -17 -20 -22 -20 -5 0 -1 9 9 20
10 11 20 20 22 20 2 0 -2 -9 -9 -20z m47 -11 c-3 -4 -12 -6 -20 -3 -8 4 -13
10 -10 15 3 4 12 6 20 3 8 -4 13 -10 10 -15z m60 2 c-3 -6 -11 -8 -17 -5 -6 4
-5 9 3 15 16 10 23 4 14 -10z m50 -1 c3 -5 1 -10 -4 -10 -6 0 -11 5 -11 10 0
6 2 10 4 10 3 0 8 -4 11 -10z m-72 -47 c-13 -2 -35 -2 -50 0 -16 2 -5 4 22 4
28 0 40 -2 28 -4z m-217 -36 c1 -9 -4 -17 -12 -17 -8 0 -14 9 -14 21 0 24 22
21 26 -4z m92 0 c2 -10 -3 -17 -12 -17 -10 0 -16 9 -16 21 0 24 23 21 28 -4z
m82 3 c0 -11 -4 -20 -10 -20 -5 0 -10 9 -10 20 0 11 5 20 10 20 6 0 10 -9 10
-20z m230 -35 l0 -56 -102 3 -103 3 -2 40 c-3 66 -4 65 107 65 l100 0 0 -55z
m-271 -135 c0 -88 -5 -140 -11 -140 -6 0 -5 -6 2 -15 24 -29 4 -25 -24 4 -17
18 -25 34 -20 42 5 9 10 5 17 -12 l10 -24 7 25 c9 31 -4 45 -47 53 -50 10 -40
-22 32 -103 l40 -44 -56 49 -57 50 -1 128 -1 127 55 0 56 0 -2 -140z m271 -55
l0 -56 -102 3 -102 3 -2 45 c-1 25 0 48 3 53 2 4 49 7 104 7 l99 0 0 -55z
m-410 5 c0 -11 -4 -20 -10 -20 -5 0 -10 9 -10 20 0 11 5 20 10 20 6 0 10 -9
10 -20z m180 0 c0 -11 -4 -20 -10 -20 -5 0 -10 9 -10 20 0 11 5 20 10 20 6 0
10 -9 10 -20z m-90 -135 c30 -30 52 -55 49 -55 -2 0 -29 25 -59 55 -30 30 -52
55 -49 55 2 0 29 -25 59 -55z m0 -31 c31 -31 45 -51 32 -45 -13 7 -26 19 -29
27 -3 8 -10 14 -16 14 -6 0 6 -17 26 -38 50 -51 47 -66 -3 -17 -22 21 -40 34
-40 28 0 -6 7 -13 15 -17 8 -3 15 -11 15 -17 0 -7 -8 -5 -20 6 -11 10 -19 23
-17 29 3 6 -2 19 -11 29 -12 13 -12 17 -2 17 11 0 11 3 2 12 -11 11 -16 28 -9
28 1 0 27 -25 57 -56z m-86 1 c-4 -8 -10 -15 -15 -15 -5 0 -9 7 -9 15 0 8 7
15 15 15 9 0 12 -6 9 -15z m406 -12 c0 -10 -9 -33 -20 -50 l-20 -33 -85 0 -85
0 0 50 0 50 105 0 c93 0 105 -2 105 -17z m-350 -73 c0 -11 -6 -20 -13 -20 -7
0 -13 9 -14 20 -1 11 4 20 13 20 8 0 14 -9 14 -20z m120 -70 c0 -11 -4 -20
-10 -20 -5 0 -10 9 -10 20 0 11 5 20 10 20 6 0 10 -9 10 -20z"/>
<path d="M605 840 c3 -5 8 -10 11 -10 2 0 4 5 4 10 0 6 -5 10 -11 10 -5 0 -7
-4 -4 -10z"/>
<path d="M1587 1450 c-21 -25 -22 -31 -2 -24 8 4 15 13 15 22 0 12 5 11 21 -7
18 -19 19 -25 8 -32 -8 -4 -24 -6 -36 -2 -13 3 -23 1 -23 -6 0 -6 7 -8 15 -5
8 4 15 2 15 -4 0 -13 -29 -24 -42 -16 -5 3 -7 13 -4 21 9 22 -3 36 -19 23 -9
-8 -17 -6 -30 6 -16 17 -18 16 -35 -6 -16 -21 -26 -24 -69 -22 -56 2 -62 -5
-30 -34 22 -19 22 -19 10 4 -10 19 -9 22 9 22 14 0 19 -6 17 -22 -1 -14 4 -23
16 -26 9 -2 17 1 17 7 0 6 -7 8 -15 5 -8 -4 -15 -1 -15 5 0 14 16 14 41 1 11
-6 25 -7 32 -3 6 4 19 6 29 5 9 -2 19 2 23 8 5 8 11 8 20 0 10 -8 19 -8 34 0
15 8 26 7 40 -2 16 -10 23 -9 39 5 21 19 42 22 42 6 0 -6 -7 -9 -15 -5 -8 3
-15 0 -15 -5 0 -6 9 -9 20 -6 11 3 23 1 26 -5 3 -5 15 -8 25 -5 10 3 22 1 25
-5 3 -5 15 -7 26 -5 12 4 18 1 15 -6 -3 -7 -9 -11 -14 -10 -123 26 -215 28
-323 9 -50 -9 -76 -10 -79 -3 -2 6 -9 -3 -16 -19 -8 -19 -13 -102 -14 -251 -2
-238 3 -269 52 -321 33 -36 101 -81 146 -97 36 -12 43 -12 92 11 75 35 133 86
159 139 21 44 22 54 19 306 -4 239 -3 262 14 273 28 21 20 26 -37 25 -59 -2
-76 4 -76 27 0 18 -14 18 -30 -1 -9 -10 -16 -12 -25 -5 -8 6 -15 6 -23 -2 -9
-9 -12 -9 -12 0 0 10 -34 52 -43 52 -1 0 -10 -9 -20 -20z m-83 -51 c-5 -9 -34
-13 -34 -5 0 2 3 12 6 20 5 13 9 14 20 5 8 -6 11 -15 8 -20z m231 -9 c-3 -6 1
-10 10 -10 9 0 13 -5 9 -11 -11 -18 -46 24 -38 45 6 16 8 17 16 2 5 -9 6 -21
3 -26z m-78 -5 c-2 -5 -10 -10 -17 -10 -7 0 -15 5 -17 10 -2 6 6 11 17 11 11
0 19 -5 17 -11z m-122 -5 c-3 -5 -10 -10 -16 -10 -5 0 -9 5 -9 10 0 6 7 10 16
10 8 0 12 -4 9 -10z m260 -10 c15 -17 16 -20 3 -20 -9 0 -18 9 -21 20 -3 11
-4 20 -3 20 2 0 11 -9 21 -20z m43 1 c-8 -14 -14 -16 -24 -7 -15 14 -8 26 17
26 16 0 17 -3 7 -19z m-358 -1 c0 -5 -4 -10 -10 -10 -5 0 -10 5 -10 10 0 6 5
10 10 10 6 0 10 -4 10 -10z m223 -56 c-3 -9 -20 -14 -48 -14 -36 0 -42 3 -39
18 4 14 14 16 49 14 32 -3 42 -7 38 -18z m-113 1 c0 -10 -10 -15 -34 -15 -21
0 -36 6 -40 15 -4 12 3 15 34 15 29 0 40 -4 40 -15z m218 -9 c13 -14 -16 -26
-46 -20 -22 4 -32 12 -32 24 0 15 5 17 36 10 19 -5 38 -11 42 -14z m-318 0 c0
-14 -29 -26 -62 -26 -10 0 -18 6 -18 14 0 15 18 23 58 25 13 1 22 -5 22 -13z
m261 -33 c4 -4 -57 -8 -136 -8 -137 0 -177 8 -90 18 57 7 216 0 226 -10z
m-286 -45 c4 4 5 -6 2 -22 -3 -17 -1 -40 4 -53 7 -19 5 -23 -11 -23 -15 0 -20
7 -21 28 l-2 27 -4 -27 c-3 -19 -10 -28 -23 -28 -16 0 -18 4 -11 23 5 13 7 36
4 51 -4 19 -2 27 5 23 5 -4 13 1 17 11 6 16 7 16 19 0 7 -10 17 -14 21 -10z
m153 -115 c-1 -79 -3 -107 -5 -65 l-4 72 -59 0 -60 0 0 -69 c0 -37 6 -83 12
-102 l13 -34 6 35 c5 30 7 26 8 -22 0 -32 5 -58 10 -58 4 0 7 20 5 45 -2 24 1
47 6 50 6 4 11 -15 12 -47 l1 -53 7 60 c5 41 7 49 8 25 2 -27 5 -31 12 -20 10
15 12 -2 12 -90 0 -19 2 -29 5 -22 3 7 24 12 54 12 l49 0 1 73 c1 39 0 76 -1
82 -1 5 -2 66 -3 134 0 88 3 126 11 129 7 2 12 -6 13 -20 1 -23 1 -23 9 2 7
21 8 18 9 -20 2 -73 20 -86 22 -15 l2 60 7 -65 c4 -36 11 -74 15 -84 8 -19 9
-19 16 0 5 12 8 1 8 -33 1 -29 -3 -53 -9 -53 -5 0 -10 -9 -10 -20 0 -11 5 -20
10 -20 6 0 10 -32 10 -75 0 -68 -2 -75 -20 -75 -14 0 -20 -7 -20 -21 0 -11 5
-17 10 -14 12 7 12 3 4 -19 -3 -9 -12 -16 -20 -16 -8 0 -14 -6 -14 -14 0 -7
-6 -18 -13 -24 -10 -8 -12 -1 -12 34 0 24 2 44 5 44 3 0 10 8 16 18 11 16 9
18 -17 14 -28 -4 -29 -6 -29 -67 0 -68 -9 -81 -68 -105 -40 -16 -91 -2 -134
35 -28 24 -28 26 -30 157 l-2 133 -3 -127 c-2 -71 -7 -128 -11 -128 -4 0 -6
56 -5 125 1 70 -3 125 -8 125 -5 0 -10 -53 -11 -117 l-2 -118 -6 120 -6 120
-2 -99 c-1 -55 -5 -97 -8 -94 -3 3 -5 47 -5 97 0 53 -4 91 -9 91 -6 0 -10 31
-10 70 l0 70 50 0 50 0 0 65 0 65 65 0 65 0 -2 -137z m19 -65 c-1 -40 -3 -10
-3 67 0 77 1 110 3 73 2 -37 2 -100 0 -140z m30 0 c-1 -40 -3 -10 -3 67 0 77
1 110 3 73 2 -37 2 -100 0 -140z m20 0 c-1 -40 -3 -10 -3 67 0 77 1 110 3 73
2 -37 2 -100 0 -140z m115 180 c-3 -14 -2 -19 6 -14 9 5 12 -6 11 -36 0 -24
-3 -37 -6 -29 -4 9 -7 10 -12 2 -4 -6 -8 13 -9 44 -1 30 3 55 7 55 5 0 7 -10
3 -22z m-242 -143 c-7 -9 -10 -18 -6 -22 3 -3 6 -1 6 5 0 7 6 12 13 12 7 0 13
-17 14 -45 1 -33 -2 -45 -13 -45 -8 0 -14 10 -14 25 0 14 -4 25 -10 25 -5 0
-9 -10 -7 -22 1 -14 -4 -23 -16 -26 -14 -3 -16 0 -8 21 5 14 7 35 4 47 -4 16
-3 21 5 16 7 -4 12 -1 12 8 0 9 7 16 16 16 14 0 14 -3 4 -15z m110 -141 c0 -9
5 -12 12 -8 8 5 9 0 5 -16 -3 -12 -2 -33 3 -46 7 -19 6 -24 -5 -24 -9 0 -15
10 -15 25 0 14 -4 25 -10 25 -5 0 -10 -11 -10 -25 0 -16 -6 -25 -15 -25 -17 0
-19 9 -6 29 6 8 6 24 0 38 -6 17 -5 23 5 23 8 0 17 -6 20 -12 3 -7 3 -3 0 10
-3 12 -1 22 5 22 6 0 11 -7 11 -16z"/>
<path d="M1544 1225 c-4 -10 -10 -12 -18 -6 -8 6 -11 2 -12 -15 -1 -15 4 -24
12 -24 11 0 12 -4 4 -19 -15 -28 -12 -39 5 -17 13 18 41 14 30 -5 -4 -5 -1 -9
4 -9 6 0 11 12 11 28 0 15 3 38 6 52 l5 25 -15 -25 -16 -25 6 28 c7 29 -12 39
-22 12z"/>
<path d="M1731 1138 c-1 -21 4 -38 9 -38 12 0 12 27 0 55 -7 16 -9 13 -9 -17z"/>
<path d="M1430 1084 c0 -13 -3 -14 -14 -5 -11 9 -14 8 -12 -6 0 -10 7 -23 15
-29 10 -8 11 -13 3 -18 -7 -4 -12 -14 -12 -23 0 -11 5 -9 20 8 l19 24 1 -24
c0 -38 16 -12 24 37 4 29 3 41 -4 37 -5 -3 -10 -1 -10 4 0 6 -7 11 -15 11 -8
0 -15 -7 -15 -16z"/>
<path d="M1757 1083 c-11 -10 -8 -103 3 -103 6 0 10 25 10 55 0 56 -1 60 -13
48z"/>
<path d="M1782 1035 l1 -60 7 45 c4 25 4 52 -1 60 -5 9 -8 -8 -7 -45z"/>
<path d="M1732 1000 c0 -14 2 -19 5 -12 2 6 2 18 0 25 -3 6 -5 1 -5 -13z"/>
<path d="M1761 943 c-9 -15 -12 -15 -20 -4 -6 9 -8 6 -8 -13 0 -16 5 -26 14
-26 10 0 11 -4 3 -19 -15 -28 -12 -39 5 -17 13 18 41 14 30 -5 -4 -5 -1 -9 4
-9 6 0 11 13 11 29 0 16 3 38 6 48 5 16 4 16 -11 -2 -16 -19 -16 -19 -10 8 8
31 -8 37 -24 10z"/>
<path d="M1511 850 c0 -29 1 -32 10 -17 7 11 7 23 0 35 -9 14 -10 11 -10 -18z"/>
<path d="M1577 867 c-11 -29 -9 -53 4 -40 6 6 9 21 7 34 -3 21 -4 22 -11 6z"/>
<path d="M1654 805 c-4 -8 -10 -12 -15 -9 -5 3 -9 -2 -9 -11 0 -18 19 -41 35
-42 5 -1 12 -10 15 -19 4 -12 9 -1 13 30 4 26 4 52 1 57 -8 14 -34 10 -40 -6z
m33 -17 c-3 -8 -6 -5 -6 6 -1 11 2 17 5 13 3 -3 4 -12 1 -19z"/>
<path d="M1530 758 c0 -23 3 -38 7 -34 10 10 10 76 1 76 -5 0 -8 -19 -8 -42z"/>
<path d="M1560 776 c0 -22 3 -27 11 -19 8 8 8 16 0 30 -9 16 -10 14 -11 -11z"/>
<path d="M1587 741 c-6 -17 -17 -31 -25 -31 -7 0 -10 -4 -7 -10 3 -5 15 -10
25 -10 10 0 24 -8 29 -17 10 -17 10 -17 11 -1 0 9 10 24 23 34 21 16 22 16 1
11 -16 -3 -20 0 -17 12 2 10 -3 23 -12 31 -14 11 -17 9 -28 -19z"/>
<path d="M1506 733 c-4 -9 -2 -21 4 -27 7 -7 10 -2 10 17 0 31 -5 34 -14 10z"/>
<path d="M581 2124 c-25 -32 -26 -43 -5 -72 31 -45 104 -17 104 41 0 57 -63
77 -99 31z m71 -20 c13 -28 1 -59 -22 -59 -20 0 -52 49 -44 68 10 27 52 21 66
-9z"/>
<path d="M1693 2112 c-42 -27 -61 -52 -24 -33 22 12 45 -8 36 -31 -4 -9 0 -18
8 -21 11 -4 17 5 22 31 3 20 9 47 12 60 7 29 -3 28 -54 -6z m27 -18 c0 -8 -5
-12 -10 -9 -6 4 -8 11 -5 16 9 14 15 11 15 -7z"/>
<path d="M1771 2053 c-36 -44 -33 -58 3 -17 l25 29 1 -57 c0 -32 2 -58 5 -58
8 0 74 75 69 79 -2 3 -15 -6 -29 -19 l-25 -23 0 51 c0 29 -4 52 -9 52 -5 0
-23 -17 -40 -37z"/>
<path d="M502 2073 c-19 -7 -44 -62 -37 -84 4 -10 15 -24 27 -30 40 -22 116
34 82 62 -18 15 -31 4 -15 -14 9 -11 8 -17 -3 -26 -19 -16 -53 -5 -67 20 -14
26 -5 47 22 58 13 4 18 10 13 13 -5 3 -15 3 -22 1z"/>
<path d="M1876 1970 c-43 -38 -45 -52 -10 -79 33 -26 49 -26 74 -1 26 26 25
51 -4 84 l-23 28 -37 -32z m62 -28 c4 -29 -42 -60 -63 -42 -14 12 -13 16 12
42 30 32 46 32 51 0z"/>
<path d="M396 1938 c3 -13 13 -35 20 -50 18 -35 18 -38 -7 -38 -11 0 -29 10
-39 23 l-18 22 -26 -24 c-14 -14 -26 -27 -26 -30 0 -10 91 -64 97 -57 3 3 -2
15 -11 25 -17 19 -17 19 3 14 30 -8 64 23 51 47 -11 21 9 43 36 38 38 -7 21
19 -23 35 -62 22 -66 22 -57 -5z m39 -17 c3 -5 1 -12 -4 -15 -5 -3 -11 1 -15
9 -6 16 9 21 19 6z m-77 -75 c3 -15 1 -16 -17 -6 -12 6 -19 16 -15 21 9 15 28
5 32 -15z"/>
<path d="M1952 1869 c-35 -25 -40 -33 -32 -49 12 -23 30 -35 30 -21 0 5 -5 13
-12 17 -8 5 -6 11 7 20 15 12 20 11 32 -4 13 -16 14 -15 8 5 -7 25 13 42 26
22 4 -7 11 -11 14 -8 3 4 -2 16 -12 27 l-18 21 -43 -30z"/>
<path d="M2005 1799 c-16 -10 -34 -21 -40 -23 -6 -2 -6 -8 1 -16 8 -8 14 -9
18 -1 4 6 12 11 17 11 5 0 3 -10 -5 -23 -9 -12 -12 -28 -7 -35 5 -9 11 -5 21
13 9 17 19 23 30 20 27 -9 43 18 29 49 -14 30 -24 31 -64 5z m55 -18 c0 -12
-28 -22 -34 -12 -3 5 -3 11 1 15 9 9 33 7 33 -3z"/>
<path d="M260 1772 c0 -13 63 -91 74 -91 5 -1 3 6 -4 14 -17 20 -6 43 21 47
40 6 34 28 -8 28 -21 0 -48 3 -60 6 -13 4 -23 2 -23 -4z m60 -32 c0 -5 -4 -10
-9 -10 -6 0 -13 5 -16 10 -3 6 1 10 9 10 9 0 16 -4 16 -10z"/>
<path d="M2068 1653 c-43 -17 -51 -38 -13 -31 14 3 25 2 25 -3 0 -5 9 -13 19
-19 30 -16 54 12 39 45 -13 29 -20 30 -70 8z m62 -18 c0 -8 -9 -15 -20 -15
-22 0 -27 15 -7 23 21 9 27 7 27 -8z"/>
<path d="M190 1575 c7 -9 15 -13 17 -11 7 7 -7 26 -19 26 -6 0 -6 -6 2 -15z"/>
<path d="M2106 1566 c-43 -13 -67 -44 -26 -33 16 4 28 0 40 -15 25 -31 52 -17
48 24 -4 37 -10 40 -62 24z m54 -25 c0 -11 -26 -22 -34 -14 -12 12 -5 23 14
23 11 0 20 -4 20 -9z"/>
<path d="M223 1558 c-30 -5 -54 -16 -57 -25 -5 -13 0 -14 29 -9 28 6 37 3 47
-14 16 -26 32 -26 18 -1 -14 26 -13 28 10 34 18 5 30 29 13 26 -5 -1 -31 -6
-60 -11z"/>
<path d="M157 1483 c-4 -3 -7 -16 -7 -29 0 -18 7 -23 45 -28 54 -9 65 -3 64
32 0 26 -1 26 -9 5 -5 -13 -14 -23 -20 -23 -6 0 -15 10 -20 23 -7 18 -9 19 -9
4 -1 -12 -7 -17 -18 -15 -11 2 -17 11 -15 21 3 18 0 21 -11 10z"/>
<path d="M2138 1412 c-26 -15 -48 -30 -48 -33 0 -3 18 -11 41 -18 23 -7 47
-15 55 -18 8 -3 14 -1 14 4 0 5 -17 14 -37 19 l-38 10 38 19 c20 10 37 25 37
32 0 18 -8 16 -62 -15z"/>
<path d="M140 1364 c-14 -36 -6 -44 51 -44 47 0 73 20 27 20 -22 1 -21 2 5 16
28 15 39 41 12 30 -8 -3 -22 -9 -30 -12 -8 -3 -15 -1 -15 5 0 23 -41 11 -50
-15z m44 -3 c3 -4 3 -11 0 -14 -8 -8 -34 3 -34 14 0 11 27 12 34 0z"/>
<path d="M2100 1298 c0 -9 16 -12 55 -10 71 5 71 22 0 22 -37 0 -55 -4 -55
-12z"/>
<path d="M178 1224 c-27 -13 -48 -26 -48 -28 0 -2 24 -12 53 -22 65 -21 64
-20 42 -44 -13 -14 -22 -17 -35 -10 -23 12 -43 -10 -38 -42 2 -19 9 -23 36
-21 50 2 84 12 77 24 -4 5 -15 7 -26 4 -22 -7 -26 10 -4 19 23 9 19 63 -5 69
-23 6 -27 35 -5 43 15 6 22 35 8 33 -5 -1 -29 -12 -55 -25z m22 -34 c0 -5 -2
-10 -4 -10 -3 0 -8 5 -11 10 -3 6 -1 10 4 10 6 0 11 -4 11 -10z m0 -99 c0 -12
-28 -22 -34 -12 -3 5 -3 11 1 15 9 9 33 7 33 -3z"/>
<path d="M2142 1187 c-24 -7 -43 -16 -44 -22 0 -5 20 -22 46 -37 25 -15 46
-23 46 -18 0 5 -15 17 -32 27 l-33 17 38 10 c20 5 37 15 37 23 0 15 0 15 -58
0z"/>
<path d="M2094 1101 c20 -22 13 -46 -17 -56 -20 -7 -20 -8 7 -12 34 -5 96 5
96 15 -1 8 -86 72 -96 72 -4 0 0 -8 10 -19z m41 -31 c3 -5 -1 -10 -10 -10 -9
0 -13 5 -10 10 3 6 8 10 10 10 2 0 7 -4 10 -10z"/>
<path d="M237 1033 c-14 -13 -6 -23 18 -23 31 0 35 -34 6 -50 -42 -22 -87 1
-74 38 3 6 0 12 -6 12 -6 0 -11 -9 -11 -20 0 -23 42 -70 62 -70 26 0 58 31 58
56 0 47 -31 80 -53 57z"/>
<path d="M2046 985 c-10 -28 -7 -40 7 -21 11 16 15 16 49 1 44 -18 58 -19 58
-5 0 11 -38 28 -81 37 -19 3 -28 0 -33 -12z"/>
<path d="M2020 910 c-15 -28 -12 -47 3 -25 17 22 41 11 34 -16 -6 -23 8 -26
17 -3 8 21 29 6 23 -17 -6 -23 8 -26 17 -3 12 30 6 40 -39 62 -44 21 -45 21
-55 2z"/>
<path d="M283 850 c-40 -17 -58 -40 -33 -40 19 0 90 40 90 50 0 14 -9 12 -57
-10z"/>
<path d="M2002 837 c9 -7 25 -17 35 -24 15 -9 10 -12 -34 -18 -29 -4 -53 -13
-53 -19 0 -11 71 -56 87 -56 4 0 -5 11 -22 25 l-30 24 25 1 c14 1 38 7 55 14
l30 12 -46 27 c-46 27 -78 37 -47 14z"/>
<path d="M349 811 c13 -24 -14 -38 -37 -19 -13 11 -14 11 -8 0 4 -7 5 -20 2
-29 -6 -14 -9 -14 -26 2 -23 21 -26 9 -5 -18 16 -22 37 -17 79 16 26 21 27 25
15 45 -17 27 -34 29 -20 3z"/>
<path d="M352 724 c-28 -19 -28 -47 -1 -85 l21 -29 41 32 c23 17 44 34 47 36
8 6 -58 62 -73 62 -7 0 -23 -7 -35 -16z m62 -10 c9 -3 16 -12 16 -18 0 -17
-58 -58 -70 -51 -18 11 -11 43 12 59 26 19 22 18 42 10z"/>
<path d="M1910 718 c0 -7 16 -24 34 -36 21 -15 33 -29 29 -38 -9 -24 5 -16 28
17 21 30 21 31 2 25 -14 -5 -30 1 -51 19 -34 28 -42 31 -42 13z"/>
<path d="M1860 662 c0 -13 64 -72 78 -72 21 0 13 17 -23 49 -35 30 -55 39 -55
23z"/>
<path d="M1848 607 c31 -33 28 -39 -20 -36 -24 2 -44 -1 -46 -7 -4 -12 46 -74
60 -74 7 0 -1 14 -18 31 l-29 31 52 -5 c29 -3 55 -2 57 1 5 8 -60 82 -71 82
-4 0 3 -10 15 -23z"/>
<path d="M501 586 c-6 -7 -8 -27 -5 -45 7 -34 -8 -42 -26 -13 -10 16 -10 15
-8 -3 4 -23 33 -32 53 -15 9 7 12 22 9 40 -7 33 15 53 23 21 5 -21 23 -30 23
-12 0 14 -29 41 -44 41 -8 0 -19 -6 -25 -14z"/>
<path d="M563 502 c-24 -15 -43 -31 -43 -35 0 -5 14 1 31 13 36 26 45 21 31
-19 -10 -28 -7 -41 8 -41 7 0 30 77 30 99 0 17 -11 13 -57 -17z"/>
<path d="M1717 498 c12 -61 23 -87 18 -40 -5 40 -4 42 14 32 11 -5 23 -15 26
-20 8 -12 35 -13 35 -1 0 10 -75 61 -90 61 -5 0 -7 -13 -3 -32z"/>
<path d="M1637 485 c-11 -8 -17 -23 -15 -37 2 -18 10 -24 36 -26 34 -3 47 -31
15 -33 -12 0 -13 -2 -5 -6 12 -5 42 13 42 26 -1 17 -20 34 -41 36 -38 4 -39 4
-39 15 0 6 10 14 22 19 12 4 17 10 12 13 -5 4 -17 0 -27 -7z"/>
<path d="M663 469 c-31 -11 -40 -54 -17 -80 39 -43 51 -43 79 2 15 22 24 47
22 54 -8 19 -59 34 -84 24z m61 -17 c3 -5 -5 -25 -18 -46 -21 -35 -24 -37 -39
-21 -21 20 -21 25 -1 53 15 22 48 30 58 14z"/>
<path d="M756 384 c-10 -25 -16 -48 -12 -51 3 -3 11 8 17 26 13 37 21 32 39
-21 12 -39 24 -48 33 -25 3 6 12 29 21 50 9 20 13 37 8 37 -4 0 -13 -15 -20
-32 l-13 -33 -17 44 c-9 24 -21 46 -27 48 -5 1 -18 -18 -29 -43z"/>
<path d="M1500 416 c0 -3 4 -16 10 -30 7 -21 6 -26 -5 -26 -8 0 -15 -4 -15 -9
0 -5 9 -7 20 -4 25 7 27 -14 3 -34 -16 -13 -16 -13 7 -7 14 3 28 9 32 13 11 9
-25 101 -39 101 -7 0 -13 -2 -13 -4z"/>
<path d="M886 338 c4 -29 9 -55 11 -58 6 -6 73 71 73 85 0 5 -5 4 -12 -3 -18
-18 -45 -14 -51 8 -3 11 -10 20 -16 20 -8 0 -10 -16 -5 -52z m44 -7 c0 -6 -4
-13 -10 -16 -5 -3 -10 1 -10 9 0 9 5 16 10 16 6 0 10 -4 10 -9z"/>
<path d="M1403 383 c-21 -8 -15 -22 7 -16 15 4 20 0 20 -15 0 -11 -8 -23 -17
-25 -14 -4 -13 -5 3 -6 25 -1 42 -31 19 -31 -8 0 -15 -4 -15 -9 0 -11 38 -3
45 10 3 4 0 28 -6 53 -11 45 -23 53 -56 39z"/>
<path d="M987 334 c-10 -58 -7 -85 5 -44 10 33 11 34 24 15 35 -52 43 -60 52
-50 14 15 24 95 12 95 -5 0 -10 -13 -10 -30 0 -16 -4 -30 -10 -30 -5 0 -10 4
-10 8 0 4 -13 23 -28 42 l-29 34 -6 -40z"/>
<path d="M1350 348 c0 -20 -1 -20 -18 -5 -26 24 -50 23 -29 -1 9 -10 15 -31
14 -47 -2 -28 0 -30 33 -30 37 0 37 -1 25 68 -6 40 -25 51 -25 15z m10 -64 c0
-16 -16 -19 -25 -4 -8 13 4 32 16 25 5 -4 9 -13 9 -21z"/>
<path d="M1120 295 c0 -30 5 -55 10 -55 6 0 10 25 10 55 0 30 -4 55 -10 55 -5
0 -10 -25 -10 -55z"/>
<path d="M1186 328 c-21 -29 -20 -51 2 -71 19 -17 77 -23 85 -9 3 4 3 28 0 55
-5 46 -7 47 -39 47 -23 0 -38 -7 -48 -22z m64 -33 c0 -49 -1 -50 -31 -35 -12
7 -19 21 -19 39 0 32 7 41 32 41 15 0 18 -8 18 -45z"/>
<path d="M2545 2300 c3 -5 17 -10 31 -10 14 0 38 -7 53 -15 25 -13 48 -62 196
-432 92 -230 171 -422 175 -427 15 -15 44 46 206 436 164 392 189 438 238 438
14 0 26 5 26 10 0 6 -47 10 -120 10 -73 0 -120 -4 -120 -10 0 -5 14 -10 30
-10 27 0 30 -3 30 -30 0 -31 -68 -224 -170 -480 -34 -85 -66 -166 -72 -180
l-10 -25 -12 25 c-35 69 -248 661 -243 675 4 9 19 15 37 15 16 0 30 5 30 10 0
6 -59 10 -156 10 -101 0 -153 -3 -149 -10z"/>
<path d="M6683 2222 c-67 -36 -98 -113 -74 -183 13 -39 64 -97 139 -158 63
-52 82 -85 82 -145 0 -60 -40 -96 -106 -96 -69 0 -102 22 -115 76 -15 57 -29
41 -29 -34 0 -48 2 -53 28 -64 15 -6 52 -13 83 -16 103 -8 190 53 205 145 12
75 -8 108 -127 223 -100 97 -109 108 -109 142 0 56 35 91 91 91 66 -1 98 -17
105 -53 10 -48 24 -35 24 24 l0 53 -37 7 c-65 10 -127 6 -160 -12z"/>
<path d="M3518 1783 c-2 -175 -8 -326 -12 -335 -5 -10 -19 -18 -32 -18 -13 0
-24 -4 -24 -8 0 -5 45 -9 100 -9 55 -1 100 3 100 8 0 5 -11 9 -25 9 -48 0 -53
25 -60 290 l-7 245 25 -25 c13 -14 71 -77 128 -140 141 -155 370 -390 380
-390 5 0 9 139 9 309 0 177 4 321 10 335 7 19 17 26 35 26 15 0 24 3 22 8 -6
9 -184 8 -194 -1 -3 -4 5 -7 18 -7 51 0 53 -7 61 -197 5 -98 7 -215 6 -260
l-3 -82 -85 93 c-257 280 -433 466 -440 466 -4 0 -10 -143 -12 -317z"/>
<path d="M4343 2088 c-2 -5 5 -8 15 -8 11 0 25 -6 31 -14 12 -15 18 -588 6
-618 -4 -10 -16 -18 -26 -18 -10 0 -19 -4 -19 -10 0 -6 42 -10 105 -9 58 0
105 5 105 10 0 5 -13 9 -30 9 -25 0 -30 5 -39 38 -7 21 -11 151 -11 309 0 234
2 274 16 287 8 9 22 16 30 16 8 0 14 3 14 8 0 4 -43 7 -96 7 -53 0 -98 -3
-101 -7z"/>
<path d="M4630 2088 c0 -5 9 -8 19 -8 45 0 69 -42 181 -325 130 -330 141 -355
150 -355 10 0 53 95 175 390 104 252 126 290 168 290 11 0 18 3 14 6 -9 9
-178 10 -184 2 -2 -5 8 -8 23 -8 25 0 26 -2 21 -33 -11 -67 -190 -526 -200
-511 -2 5 -28 72 -57 149 -28 77 -69 186 -91 243 -48 125 -50 152 -12 152 14
0 24 3 20 6 -9 9 -227 10 -227 2z"/>
<path d="M5403 2088 c-2 -5 7 -8 21 -8 53 0 56 -19 55 -320 -1 -151 -4 -286
-8 -300 -4 -15 -15 -26 -29 -28 -12 -2 -22 -7 -22 -11 0 -10 357 -14 363 -4 3
4 8 32 12 62 5 38 4 52 -4 47 -6 -4 -11 -16 -11 -26 0 -34 -38 -50 -123 -50
l-78 0 -15 35 c-11 26 -14 67 -12 153 l3 117 77 -1 c83 -1 108 -12 108 -48 0
-17 2 -18 10 -6 5 8 10 37 10 63 0 46 -1 48 -22 40 -13 -4 -59 -8 -103 -8
l-80 0 0 130 0 130 81 0 c86 -1 114 -12 114 -46 0 -11 5 -19 10 -19 6 0 10 15
10 33 0 17 3 41 6 52 5 19 0 20 -181 20 -103 0 -189 -3 -192 -7z"/>
<path d="M7010 2088 c0 -5 8 -8 18 -8 40 0 42 -13 42 -314 0 -160 -3 -301 -6
-313 -4 -14 -14 -23 -25 -23 -11 0 -19 -4 -19 -8 0 -5 47 -8 105 -9 58 0 105
3 105 8 0 4 -14 9 -32 11 -25 2 -34 9 -39 28 -9 31 -11 557 -3 588 4 12 17 25
31 28 13 4 22 9 19 11 -8 8 -196 9 -196 1z"/>
<path d="M7350 2060 c-6 -19 -10 -44 -10 -55 1 -17 3 -16 16 7 17 32 27 35
147 43 l87 6 -1 -283 c-1 -156 -4 -296 -8 -313 -4 -21 -13 -31 -29 -33 -12 -2
-22 -7 -22 -11 0 -4 50 -7 110 -8 61 0 110 4 110 9 0 4 -13 8 -30 8 -19 0 -33
7 -40 19 -6 12 -10 131 -10 315 l0 296 88 -6 c94 -7 132 -23 132 -55 0 -11 4
-18 8 -15 5 3 10 29 11 58 l1 53 -275 0 -275 0 -10 -35z"/>
<path d="M8127 2058 c-9 -74 -66 -440 -82 -522 -17 -88 -27 -106 -61 -106 -13
0 -24 -4 -24 -10 0 -6 38 -10 95 -10 57 0 95 4 95 10 0 6 -9 10 -20 10 -32 0
-39 28 -29 115 5 44 11 93 15 108 l6 28 101 -3 101 -3 64 -105 c35 -58 66
-117 69 -132 5 -28 6 -28 90 -28 54 0 82 4 78 10 -3 6 -16 10 -27 10 -38 0
-91 74 -268 373 -96 163 -180 297 -186 297 -6 0 -14 -19 -17 -42z m103 -215
c36 -63 67 -120 68 -124 2 -5 -37 -9 -87 -9 l-90 0 4 28 c5 28 25 201 25 215
0 24 22 -7 80 -110z"/>
<path d="M8545 2090 c-2 -3 -6 -27 -10 -54 l-8 -49 29 30 c28 30 34 31 127 37
l97 5 -1 -287 c-1 -158 -4 -298 -8 -312 -4 -15 -15 -26 -29 -28 -12 -2 -22 -7
-22 -11 0 -4 50 -8 110 -8 61 0 110 4 110 8 0 5 -13 9 -30 9 -19 0 -33 7 -40
19 -6 12 -10 131 -10 315 l0 295 88 -6 c94 -6 132 -21 132 -54 0 -11 5 -17 10
-14 6 3 10 30 10 58 l0 52 -276 0 c-152 0 -277 -2 -279 -5z"/>
<path d="M5975 2080 c3 -6 14 -10 24 -10 39 0 41 -13 41 -326 0 -316 0 -316
-45 -327 -11 -2 32 -4 95 -4 63 0 100 2 82 4 -45 6 -52 29 -52 169 l0 114 56
0 c51 0 58 -3 100 -42 25 -24 75 -83 112 -133 73 -98 119 -130 203 -141 83
-11 213 31 227 74 3 10 -4 9 -29 -3 -44 -23 -185 -31 -219 -13 -14 8 -48 49
-76 91 -58 89 -114 150 -155 170 l-28 13 39 48 c96 116 84 248 -27 302 -31 15
-68 19 -196 21 -104 2 -156 0 -152 -7z m280 -40 c52 -25 76 -67 82 -144 10
-117 -44 -182 -144 -172 -29 2 -57 7 -63 11 -16 10 -13 312 3 318 28 12 83 6
122 -13z"/>
<path d="M4174 1218 c-2 -3 10 -10 28 -13 18 -4 42 -14 54 -22 15 -10 70 -135
189 -433 92 -231 173 -420 180 -420 6 0 19 16 28 35 21 44 193 451 272 641 32
78 65 151 74 163 9 12 35 28 56 36 22 8 36 15 30 15 -36 5 -237 1 -242 -4 -3
-3 3 -6 15 -6 63 0 65 -23 16 -157 -116 -315 -218 -563 -226 -548 -20 35 -248
655 -248 673 0 15 9 22 31 27 17 4 28 9 25 12 -7 8 -277 9 -282 1z"/>
<path d="M6251 1168 c-44 -12 -34 -20 67 -57 109 -41 129 -39 67 4 -28 20 -58
42 -68 50 -19 17 -19 17 -66 3z"/>
<path d="M5150 994 c-6 -16 -26 -69 -45 -119 -18 -49 -65 -178 -104 -285 -39
-107 -80 -206 -90 -220 -10 -14 -32 -28 -52 -31 -19 -4 -32 -7 -29 -9 14 -6
200 -4 200 3 0 4 -9 7 -20 7 -34 0 -34 26 2 138 l34 107 105 3 105 3 43 -112
c24 -61 41 -119 38 -129 -3 -13 2 -20 17 -24 36 -10 156 -7 156 4 0 6 -9 10
-21 10 -52 0 -78 53 -246 495 -35 93 -68 174 -73 179 -6 6 -13 -2 -20 -20z
m48 -236 c23 -68 42 -126 42 -130 0 -5 -38 -8 -85 -8 -53 0 -85 4 -85 10 0 20
74 250 80 250 4 0 25 -55 48 -122z"/>
<path d="M6810 943 c1 -173 -10 -571 -16 -586 -3 -10 -17 -17 -30 -17 -13 0
-24 -4 -24 -8 0 -5 45 -9 100 -9 55 0 100 4 100 8 0 4 -12 9 -27 11 -47 5 -53
34 -60 292 -3 130 -4 236 -1 236 2 0 56 -57 119 -127 138 -155 399 -423 411
-423 4 0 8 138 8 308 0 169 3 317 6 330 4 12 17 25 30 28 48 12 22 19 -71 19
-52 1 -95 -3 -95 -7 0 -4 11 -8 24 -8 46 0 56 -23 56 -128 0 -53 3 -169 6
-257 l5 -160 -37 40 c-20 22 -140 151 -266 288 -127 136 -232 247 -234 247 -2
0 -4 -35 -4 -77z"/>
<path d="M7873 1009 c-289 -51 -379 -420 -152 -617 47 -41 86 -57 178 -72 75
-12 211 -7 256 10 27 10 32 21 39 96 l6 59 -16 -35 c-25 -56 -52 -78 -111 -90
-72 -15 -145 -5 -220 31 -233 112 -243 493 -16 575 47 16 169 18 229 3 61 -16
102 -56 110 -109 10 -60 22 -30 23 56 1 85 12 76 -126 94 -86 11 -130 11 -200
-1z"/>
<path d="M5620 998 c0 -5 11 -8 25 -8 14 0 29 -8 35 -19 13 -25 14 -570 0
-605 -6 -16 -17 -26 -30 -26 -11 0 -20 -4 -20 -8 0 -4 85 -9 189 -10 144 -2
191 0 199 10 6 8 13 38 17 68 l5 55 -19 -41 c-10 -23 -27 -44 -36 -48 -9 -3
-51 -6 -94 -6 -124 0 -115 -21 -119 315 -3 305 -2 315 44 315 13 0 24 3 24 8
0 4 -49 7 -110 7 -60 0 -110 -3 -110 -7z"/>
<path d="M6340 1000 c-96 -3 -163 -7 -148 -8 58 -4 58 -7 57 -315 -1 -155 -4
-293 -8 -307 -4 -15 -15 -26 -29 -28 -12 -2 -22 -8 -22 -13 0 -11 357 -13 363
-1 3 4 7 32 11 62 6 55 6 55 -9 23 -19 -43 -40 -52 -117 -54 -108 -3 -108 -3
-108 166 l0 145 63 0 c73 0 108 -15 118 -50 4 -14 8 -18 9 -10 0 8 5 37 9 63
8 46 7 48 -13 42 -35 -11 -186 -18 -186 -9 -1 41 -2 242 -1 253 1 11 18 13 80
9 83 -5 111 -17 111 -49 0 -11 5 -19 10 -19 6 0 10 11 10 24 0 13 3 38 6 55 6
26 4 31 -12 29 -11 -1 -98 -5 -194 -8z"/>
<path d="M8364 999 c-2 -4 9 -9 25 -12 29 -6 29 -7 36 -93 9 -100 1 -510 -10
-536 -4 -10 -16 -18 -26 -18 -10 0 -19 -4 -19 -8 0 -4 47 -8 105 -9 58 0 105
3 105 8 0 5 -11 9 -24 9 -49 0 -51 13 -54 313 -2 153 -1 290 2 303 4 14 16 26
31 30 14 3 25 9 25 13 0 8 -191 8 -196 0z"/>
<path d="M8836 983 c-9 -52 -26 -158 -57 -368 -17 -116 -37 -224 -44 -241 -9
-21 -23 -34 -46 -41 -29 -9 -19 -11 71 -12 101 0 104 0 71 14 l-34 15 7 83 c4
45 10 98 14 117 l8 35 94 3 c52 1 100 -1 105 -5 20 -15 139 -226 138 -245 -2
-16 7 -18 90 -17 77 0 87 2 62 11 -60 21 -117 97 -260 348 -85 147 -198 330
-205 330 -5 0 -11 -12 -14 -27z m108 -243 l65 -115 -86 -3 c-47 -2 -88 -1 -90
2 -5 5 15 210 23 235 7 21 16 9 88 -119z"/>
<path d="M2950 987 l45 -12 3 -291 c1 -176 -2 -302 -8 -318 -7 -19 -17 -26
-37 -28 -50 -3 179 -16 304 -17 143 -1 205 10 290 51 119 58 184 154 191 284
5 95 -12 145 -74 213 -50 57 -105 87 -199 111 -68 17 -109 20 -319 19 -204 0
-234 -2 -196 -12z m408 -27 c192 -32 309 -137 320 -290 12 -174 -74 -273 -272
-311 -112 -21 -267 -6 -293 29 -10 12 -13 86 -13 292 0 152 3 280 7 283 10 11
180 8 251 -3z"/>
<path d="M3230 868 c0 -5 9 -8 20 -8 19 0 20 -7 20 -200 0 -179 -2 -200 -17
-209 -14 -8 4 -11 67 -13 82 -2 142 0 146 5 1 1 5 18 8 37 6 30 5 32 -5 15
-18 -30 -29 -35 -81 -35 -60 0 -68 13 -68 119 l0 81 49 0 c40 0 53 -4 65 -22
16 -22 16 -22 16 13 l0 35 -65 -4 -65 -4 0 86 0 86 54 0 c45 0 58 -4 70 -22
16 -22 16 -22 16 12 l0 35 -115 0 c-63 0 -115 -3 -115 -7z"/>
</g>
</svg>
