<?xml version="1.0" encoding="UTF-8"?>
<svg version="1.1" xmlns="http://www.w3.org/2000/svg" width="360" height="203">
<path d="M0 0 C0.02578125 0.89203125 0.0515625 1.7840625 0.078125 2.703125 C0.13484375 3.87359375 0.1915625 5.0440625 0.25 6.25 C0.29640625 7.41015625 0.3428125 8.5703125 0.390625 9.765625 C1.09742581 13.51710623 2.0076097 14.70656218 5 17 C5.99 17.33 6.98 17.66 8 18 C8.66 18.66 9.32 19.32 10 20 C10.61875 19.319375 10.61875 19.319375 11.25 18.625 C13.06625721 16.93847545 14.8000426 16.0999787 17 15 C18.41634833 12.16730334 18.3463005 9.52533562 18.5625 6.375 C18.64628906 5.18648438 18.73007812 3.99796875 18.81640625 2.7734375 C18.90728516 1.40058594 18.90728516 1.40058594 19 0 C23.25899446 -1.09001384 24.94094728 -0.62789157 28.88671875 1.296875 C33.10136931 2.69916169 37.61288728 2.21419899 42 2 C41.125 6.875 41.125 6.875 40 8 C38.31391034 8.07205511 36.62499341 8.08386068 34.9375 8.0625 C34.01839844 8.05347656 33.09929687 8.04445313 32.15234375 8.03515625 C31.44207031 8.02355469 30.73179688 8.01195313 30 8 C30 8.66 30 9.32 30 10 C33.63 10 37.26 10 41 10 C40.67 11.65 40.34 13.3 40 15 C37.01405576 16.49297212 34.29146376 16.11755228 31 16 C30.34 15.67 29.68 15.34 29 15 C29 15.66 29 16.32 29 17 C32.3 17.33 35.6 17.66 39 18 C38.34 19.65 37.68 21.3 37 23 C34.03 23 31.06 23 28 23 C29.84046388 24.84046388 32.56857771 25.22401416 35 26 C34.67 27.32 34.34 28.64 34 30 C30.94152152 30.54372951 28.11227195 31 25 31 C26.32 31.66 27.64 32.32 29 33 C29 33.99 29 34.98 29 36 C26.1875 36.625 26.1875 36.625 23 37 C22.01 36.34 21.02 35.68 20 35 C20.66 36.98 21.32 38.96 22 41 C21 42 21 42 18.5 42.125 C16 42 16 42 15 41 C14.34 43.31 13.68 45.62 13 48 C14.11375 48.433125 14.11375 48.433125 15.25 48.875 C17.56739797 49.82302644 19.77917115 50.84845911 22 52 C21.67 53.32 21.34 54.64 21 56 C17.94736336 56.98120464 16.05263664 56.98120464 13 56 C14.32 56.66 15.64 57.32 17 58 C16.67 59.32 16.34 60.64 16 62 C14.02 62.495 14.02 62.495 12 63 C11.67 64.65 11.34 66.3 11 68 C10.01 68.33 9.02 68.66 8 69 C7.67 67.02 7.34 65.04 7 63 C5.68 62.67 4.36 62.34 3 62 C2.67 60.68 2.34 59.36 2 58 C3.32 57.01 4.64 56.02 6 55 C5.0925 55.391875 4.185 55.78375 3.25 56.1875 C0 57 0 57 -2.375 55.75 C-4 54 -4 54 -4 52 C-3.43410156 51.75765625 -2.86820313 51.5153125 -2.28515625 51.265625 C-1.55167969 50.93046875 -0.81820312 50.5953125 -0.0625 50.25 C0.66839844 49.92515625 1.39929688 49.6003125 2.15234375 49.265625 C4.15345715 48.15103144 4.15345715 48.15103144 4.75390625 46.046875 C5.05968468 43.84717766 5.05968468 43.84717766 5 41 C1.535 41.495 1.535 41.495 -2 42 C-2.66 41.01 -3.32 40.02 -4 39 C-3.01 38.34 -2.02 37.68 -1 37 C-1.495 36.505 -1.495 36.505 -2 36 C-2.94875 36.20625 -3.8975 36.4125 -4.875 36.625 C-8 37 -8 37 -9.875 35.5625 C-10.431875 34.7890625 -10.431875 34.7890625 -11 34 C-9 32 -9 32 -6 31 C-5.67 30.34 -5.34 29.68 -5 29 C-5.53625 29.350625 -6.0725 29.70125 -6.625 30.0625 C-9.73274763 31.28924249 -11.79431703 30.72856431 -15 30 C-15.33 28.68 -15.66 27.36 -16 26 C-13.36 25.34 -10.72 24.68 -8 24 C-8.99958383 22.76796452 -8.99958383 22.76796452 -10.99609375 22.97265625 C-12.62119521 23.03245998 -14.24620002 23.09495185 -15.87109375 23.16015625 C-18 23 -18 23 -20 21 C-20 20.01 -20 19.02 -20 18 C-16.7 17.67 -13.4 17.34 -10 17 C-10 16.34 -10 15.68 -10 15 C-10.92232422 15.14308594 -10.92232422 15.14308594 -11.86328125 15.2890625 C-12.67152344 15.39992188 -13.47976562 15.51078125 -14.3125 15.625 C-15.51326172 15.79902344 -15.51326172 15.79902344 -16.73828125 15.9765625 C-19 16 -19 16 -22 14 C-22 12.68 -22 11.36 -22 10 C-18.37 10 -14.74 10 -11 10 C-11 9.34 -11 8.68 -11 8 C-11.69867188 8.02320312 -12.39734375 8.04640625 -13.1171875 8.0703125 C-14.02726562 8.08835937 -14.93734375 8.10640625 -15.875 8.125 C-16.77992187 8.14820312 -17.68484375 8.17140625 -18.6171875 8.1953125 C-21 8 -21 8 -23 6 C-23 4.68 -23 3.36 -23 2 C-22.05640625 2.05220703 -22.05640625 2.05220703 -21.09375 2.10546875 C-16.57555102 2.2483636 -12.89289798 2.20650106 -8.6875 0.4375 C-4.84590697 -1.06007016 -3.80222067 -0.98818472 0 0 Z " fill="#232323" transform="translate(35,65)"/>
<path d="M0 0 C29.37 0 58.74 0 89 0 C89.0825 7.1775 89.165 14.355 89.25 21.75 C89.28641602 23.99006836 89.32283203 26.23013672 89.36035156 28.53808594 C89.45705579 38.71026638 89.48259038 47.66143253 85 57 C84.55495117 57.94174072 84.10990234 58.88348145 83.65136719 59.85375977 C76.33480188 74.66462638 61.01019273 94.43209948 46 102 C35.71025163 101.24609764 23.49021485 85.17870751 17 78 C8.50203394 68.00947332 -0.15071918 54.86178299 -0.11352539 41.32324219 C-0.11340454 40.3897998 -0.11328369 39.45635742 -0.11315918 38.49462891 C-0.10804321 37.52187012 -0.10292725 36.54911133 -0.09765625 35.546875 C-0.09664917 34.64662598 -0.09564209 33.74637695 -0.09460449 32.81884766 C-0.08938058 29.46255211 -0.0754193 26.10627475 -0.0625 22.75 C-0.041875 15.2425 -0.02125 7.735 0 0 Z M5 6 C5 45.96435168 8.48672624 61.6396383 33.72045898 86.91088867 C38.05664341 91.33080553 38.05664341 91.33080553 43 95 C46.21954559 94.77395907 47.96642313 93.44772503 50.28515625 91.296875 C50.89286865 90.73548828 51.50058105 90.17410156 52.12670898 89.59570312 C53.08492554 88.68208008 53.08492554 88.68208008 54.0625 87.75 C54.72644775 87.12029297 55.39039551 86.49058594 56.07446289 85.84179688 C69.95305629 72.48304481 79.24004318 60.03982728 84 41 C84 29.45 84 17.9 84 6 C57.93 6 31.86 6 5 6 Z " fill="#FFD400" transform="translate(0,50)"/>
<path d="M0 0 C19.74222896 -0.49355572 19.74222896 -0.49355572 26.4375 5 C30.20649777 9.82431714 29.54628322 16.18323783 29 22 C26.67154803 27.10468317 24.14413131 28.96572989 19 31 C15.85982997 31.3439301 12.77880962 31.28481854 9.625 31.1875 C5.355625 31.0946875 5.355625 31.0946875 1 31 C0.67 20.77 0.34 10.54 0 0 Z M9 7 C9 12.94 9 18.88 9 25 C15.23736978 25.07938225 15.23736978 25.07938225 20 22 C21.21260877 18.36217368 21.39544552 15.82264001 21 12 C19.08333333 8.91666667 19.08333333 8.91666667 16 7 C13.69 7 11.38 7 9 7 Z " fill="#232323" transform="translate(104,69)"/>
<path d="M0 0 C4.29416053 3.19565435 7.1430336 6.9592065 8.1015625 12.3125 C8.28405981 17.22333658 7.48235283 20.85590787 4.6875 25 C0.96560838 28.52600259 -2.39465243 30.86578895 -7.60546875 31.10546875 C-13.34059919 30.87120472 -16.8797819 29.67127001 -20.97265625 25.59765625 C-24.42803334 21.47739611 -24.70099749 17.4219057 -24.5625 12.2109375 C-24.03790613 7.57156045 -22.17887249 4.80139455 -18.8125 1.6875 C-13.15875813 -2.12877576 -6.36987367 -1.92298073 0 0 Z M-13.625 6.9375 C-16.33445164 10.24905201 -16.61462887 13.79967179 -16.3125 18 C-14.42825959 21.61774158 -13.1969163 22.68010474 -9.375 24.0625 C-6.24076865 24.22160344 -6.24076865 24.22160344 -3.5 22.5625 C-0.61316125 19.18077461 0.0110551 16.40734515 -0.3125 12 C-1.65201331 9.00204165 -2.3680975 7.47220125 -5.3125 6 C-8.44892783 5.72726714 -10.69329028 5.74896903 -13.625 6.9375 Z " fill="#232323" transform="translate(249.3125,70)"/>
<path d="M0 0 C2.97 0 5.94 0 9 0 C9 3.96 9 7.92 9 12 C12.96 12 16.92 12 21 12 C20.67 8.04 20.34 4.08 20 0 C22.97 0 25.94 0 29 0 C29 10.23 29 20.46 29 31 C26.36 31 23.72 31 21 31 C21 27.04 21 23.08 21 19 C17.04 19 13.08 19 9 19 C9 22.96 9 26.92 9 31 C6.36 31 3.72 31 1 31 C0.67 20.77 0.34 10.54 0 0 Z " fill="#242424" transform="translate(192,69)"/>
<path d="M0 0 C2.97 0 5.94 0 9 0 C9.03738281 1.48113281 9.07476562 2.96226563 9.11328125 4.48828125 C9.17893354 6.42971314 9.24538113 8.37111826 9.3125 10.3125 C9.33505859 11.28896484 9.35761719 12.26542969 9.38085938 13.27148438 C9.41630859 14.20927734 9.45175781 15.14707031 9.48828125 16.11328125 C9.51446533 16.97735596 9.54064941 17.84143066 9.56762695 18.73168945 C10.08689515 21.45586832 10.76838494 22.3853551 13 24 C16.12549017 24.25048636 16.12549017 24.25048636 19 24 C19.86963087 21.00293305 20.11763099 18.35043474 20.09765625 15.234375 C20.09282227 13.90019531 20.09282227 13.90019531 20.08789062 12.5390625 C20.07951172 11.61867188 20.07113281 10.69828125 20.0625 9.75 C20.05798828 8.81414062 20.05347656 7.87828125 20.04882812 6.9140625 C20.03706938 4.60934753 20.01913468 2.30466554 20 0 C22.97 0 25.94 0 29 0 C29.08137993 3.35466148 29.14068359 6.70732391 29.1875 10.0625 C29.21263672 11.00544922 29.23777344 11.94839844 29.26367188 12.91992188 C29.3245955 18.74828165 28.94382703 22.91280227 26 28 C22.557978 31.43489566 19.22843121 31.72448885 14.5390625 32.0703125 C9.96985586 31.94378062 6.70767225 30.3661378 3.125 27.5 C0.83656047 24.4487473 0.82550263 21.34513939 0.68359375 17.67578125 C0.64169922 16.64775391 0.59980469 15.61972656 0.55664062 14.56054688 C0.51732422 13.48869141 0.47800781 12.41683594 0.4375 11.3125 C0.39431641 10.22904297 0.35113281 9.14558594 0.30664062 8.02929688 C0.20053162 5.35299209 0.09847639 2.67659474 0 0 Z " fill="#232323" transform="translate(260,69)"/>
<path d="M0 0 C7.92 0 15.84 0 24 0 C24 2.31 24 4.62 24 7 C19.05 7 14.1 7 9 7 C9 8.65 9 10.3 9 12 C13.29 12 17.58 12 22 12 C22 14.31 22 16.62 22 19 C17.71 19 13.42 19 9 19 C9 20.98 9 22.96 9 25 C13.95 25 18.9 25 24 25 C24 26.98 24 28.96 24 31 C16.41 31 8.82 31 1 31 C0.67 20.77 0.34 10.54 0 0 Z " fill="#242424" transform="translate(336,69)"/>
<path d="M0 0 C1.04027344 -0.01417969 2.08054687 -0.02835937 3.15234375 -0.04296875 C6.01296613 0.18357718 7.63920151 0.71016381 10.0625 2.1875 C10.0625 4.4975 10.0625 6.8075 10.0625 9.1875 C9.23105469 9.03152344 8.39960938 8.87554687 7.54296875 8.71484375 C6.45628906 8.52019531 5.36960937 8.32554688 4.25 8.125 C3.17105469 7.92777344 2.09210938 7.73054688 0.98046875 7.52734375 C-1.99651781 6.97169925 -1.99651781 6.97169925 -4.9375 8.1875 C-4.6075 9.1775 -4.2775 10.1675 -3.9375 11.1875 C-1.50352105 12.0341438 -1.50352105 12.0341438 1.375 12.5625 C5.06174711 13.48658077 6.82552071 13.98358758 9.75 16.5 C11.35123868 19.77872682 11.66337127 21.58227236 11.0625 25.1875 C9.13090549 28.45635225 7.69531913 29.8921844 4.25 31.5 C-2.30605626 32.91405135 -7.60964196 31.96374085 -13.9375 30.1875 C-13.9375 27.8775 -13.9375 25.5675 -13.9375 23.1875 C-12.9475 23.3525 -11.9575 23.5175 -10.9375 23.6875 C-6.91017058 24.27224517 -3.00275377 24.25882024 1.0625 24.1875 C1.3925 23.1975 1.7225 22.2075 2.0625 21.1875 C1.15886719 20.94515625 0.25523437 20.7028125 -0.67578125 20.453125 C-2.44501953 19.95039062 -2.44501953 19.95039062 -4.25 19.4375 C-5.42175781 19.11265625 -6.59351563 18.7878125 -7.80078125 18.453125 C-11.12632664 17.11131092 -12.26472727 16.30413972 -13.9375 13.1875 C-14.4375 9.75 -14.4375 9.75 -13.9375 6.1875 C-9.73422192 0.96180293 -6.50527618 0.04020566 0 0 Z " fill="#232323" transform="translate(306.9375,68.8125)"/>
<path d="M0 0 C3.3 0 6.6 0 10 0 C11.27193017 3.16622996 12.54257301 6.33296665 13.8125 9.5 C14.34713867 10.8303125 14.34713867 10.8303125 14.89257812 12.1875 C15.93511216 14.78905283 16.96964552 17.39360158 18 20 C18.30728027 20.77085938 18.61456055 21.54171875 18.93115234 22.3359375 C20.11072389 25.36496073 21 27.7193578 21 31 C18.36 31 15.72 31 13 31 C12.34 29.35 11.68 27.7 11 26 C7.37 26 3.74 26 0 26 C-0.99 28.475 -0.99 28.475 -2 31 C-4.64 31 -7.28 31 -10 31 C-9.3359515 27.18620201 -8.26457022 23.71083996 -6.93359375 20.078125 C-6.53076172 18.97082031 -6.12792969 17.86351562 -5.71289062 16.72265625 C-5.29201172 15.57667969 -4.87113281 14.43070313 -4.4375 13.25 C-3.601512 10.96403586 -2.76680287 8.67760348 -1.93359375 6.390625 C-1.56290771 5.38032227 -1.19222168 4.37001953 -0.81030273 3.32910156 C0.05476432 1.25359267 0.05476432 1.25359267 0 0 Z M5 9 C4.01 12.3 3.02 15.6 2 19 C4.31 19 6.62 19 9 19 C8.01 15.7 7.02 12.4 6 9 C5.67 9 5.34 9 5 9 Z " fill="#232323" transform="translate(143,69)"/>
<path d="M0 0 C2.97 0 5.94 0 9 0 C9 8.25 9 16.5 9 25 C13.62 25 18.24 25 23 25 C23 26.98 23 28.96 23 31 C15.74 31 8.48 31 1 31 C0.67 20.77 0.34 10.54 0 0 Z " fill="#242424" transform="translate(166,69)"/>
<path d="M0 0 C1.65 0 3.3 0 5 0 C6.9140625 2.265625 6.9140625 2.265625 8.625 5.25 C10.63797238 8.69300254 12.59497667 11.79330223 15 15 C15.33 10.05 15.66 5.1 16 0 C17.32 0 18.64 0 20 0 C20 8.25 20 16.5 20 25 C15.72674814 23.93168704 15.44629508 23.79380327 13.203125 20.40234375 C12.71972656 19.68369141 12.23632812 18.96503906 11.73828125 18.22460938 C11.00158203 17.09249023 11.00158203 17.09249023 10.25 15.9375 C9.74339844 15.17888672 9.23679688 14.42027344 8.71484375 13.63867188 C7.46632758 11.76589761 6.2318031 9.88380922 5 8 C4.67 13.61 4.34 19.22 4 25 C2.68 25 1.36 25 0 25 C0 16.75 0 8.5 0 0 Z " fill="#232323" transform="translate(135,107)"/>
<path d="M0 0 C2.97 0 5.94 0 9 0 C9 10.23 9 20.46 9 31 C6.36 31 3.72 31 1 31 C0.67 20.77 0.34 10.54 0 0 Z " fill="#232323" transform="translate(322,69)"/>
<path d="M0 0 C2 1.875 2 1.875 3 4 C3 4.99 3 5.98 3 7 C1.0625 6.625 1.0625 6.625 -1 6 C-1.33 5.34 -1.66 4.68 -2 4 C-4.31 4 -6.62 4 -9 4 C-9.33 5.32 -9.66 6.64 -10 8 C-8.86111328 8.36351563 -8.86111328 8.36351563 -7.69921875 8.734375 C-6.70535156 9.06953125 -5.71148437 9.4046875 -4.6875 9.75 C-3.70136719 10.07484375 -2.71523438 10.3996875 -1.69921875 10.734375 C1.25776647 12.12086301 2.4243383 13.1670466 4 16 C3.93162168 19.35053788 3.60590442 21.24261947 1.5 23.875 C-2.25005847 25.56252631 -5.95051828 25.54896143 -10 25 C-13.08831908 23.80081227 -13.78714673 23.44699188 -15.25 20.375 C-15.62125 19.199375 -15.62125 19.199375 -16 18 C-11.25 18.75 -11.25 18.75 -9 21 C-4.85490567 21.28602162 -4.85490567 21.28602162 -1 20 C-1 18.68 -1 17.36 -1 16 C-1.84304688 15.73445313 -2.68609375 15.46890625 -3.5546875 15.1953125 C-4.65039062 14.84210938 -5.74609375 14.48890625 -6.875 14.125 C-8.51082031 13.60292969 -8.51082031 13.60292969 -10.1796875 13.0703125 C-13 12 -13 12 -15 10 C-15.375 7.125 -15.375 7.125 -15 4 C-10.82382373 -1.3282249 -6.21033771 -1.69490467 0 0 Z " fill="#232323" transform="translate(285,107)"/>
<path d="M0 0 C13.34285714 -0.49417989 13.34285714 -0.49417989 16.42578125 1.82421875 C18.53813407 4.74377339 18.52513965 6.47406237 18 10 C17.484375 10.495 16.96875 10.99 16.4375 11.5 C15.963125 11.995 15.48875 12.49 15 13 C15.28173051 17.2259576 16.5811704 21.02727713 18 25 C16.68 25 15.36 25 14 25 C13.32880451 23.5437455 12.66318193 22.08492133 12 20.625 C11.62875 19.81289062 11.2575 19.00078125 10.875 18.1640625 C10 16 10 16 10 14 C7.69 14 5.38 14 3 14 C3 17.63 3 21.26 3 25 C2.01 25 1.02 25 0 25 C0 16.75 0 8.5 0 0 Z M3 3 C3 5.64 3 8.28 3 11 C4.45792884 11.05399736 5.91642712 11.09279177 7.375 11.125 C8.59316406 11.15980469 8.59316406 11.15980469 9.8359375 11.1953125 C12.21342243 11.21370051 12.21342243 11.21370051 14 9 C13.71016731 5.69316534 13.71016731 5.69316534 12 3 C10.48071962 2.92820036 8.95832518 2.91607993 7.4375 2.9375 C6.19806641 2.95103516 6.19806641 2.95103516 4.93359375 2.96484375 C3.97646484 2.98224609 3.97646484 2.98224609 3 3 Z " fill="#232323" transform="translate(241,107)"/>
<path d="M0 0 C5.28 0 10.56 0 16 0 C16 0.99 16 1.98 16 3 C12.04 3 8.08 3 4 3 C4 5.64 4 8.28 4 11 C7.63 11 11.26 11 15 11 C15 11.99 15 12.98 15 14 C11.37 14 7.74 14 4 14 C4 16.64 4 19.28 4 22 C7.96 22 11.92 22 16 22 C16 22.99 16 23.98 16 25 C10.72 25 5.44 25 0 25 C0 16.75 0 8.5 0 0 Z " fill="#242424" transform="translate(213,107)"/>
<path d="M0 0 C1.32 0 2.64 0 4 0 C4.33 6.6 4.66 13.2 5 20 C7.31 20.33 9.62 20.66 12 21 C14.0140956 17.9788566 14.26836596 17.19339983 14.4140625 13.76953125 C14.45273438 12.96708984 14.49140625 12.16464844 14.53125 11.33789062 C14.57765625 10.08782227 14.57765625 10.08782227 14.625 8.8125 C14.66367188 7.96751953 14.70234375 7.12253906 14.7421875 6.25195312 C14.83636279 4.16832476 14.91926675 2.08419247 15 0 C15.99 0 16.98 0 18 0 C18.05802698 3.43742918 18.09360486 6.87473253 18.125 10.3125 C18.15013672 11.77719727 18.15013672 11.77719727 18.17578125 13.27148438 C18.18222656 14.20927734 18.18867187 15.14707031 18.1953125 16.11328125 C18.20578613 16.97735596 18.21625977 17.84143066 18.22705078 18.73168945 C18 21 18 21 16 24 C12.35593938 25.21468687 8.75412801 25.92134277 5 25 C2.26171875 23.12109375 2.26171875 23.12109375 0 20 C-0.60026273 16.53887921 -0.47324411 13.1867756 -0.3125 9.6875 C-0.28994141 8.75615234 -0.26738281 7.82480469 -0.24414062 6.86523438 C-0.18542078 4.5751604 -0.10336858 2.28842125 0 0 Z " fill="#242424" transform="translate(105,107)"/>
<path d="M0 0 C-0.75 6.75 -0.75 6.75 -3 9 C-3.45811675 10.97235333 -3.45811675 10.97235333 -3.625 13.125 C-3.74875 14.40375 -3.8725 15.6825 -4 17 C-4.99 17 -5.98 17 -7 17 C-7.66 17.66 -8.32 18.32 -9 19 C-9.66 18.34 -10.32 17.68 -11 17 C-11.99 16.67 -12.98 16.34 -14 16 C-13.67 14.02 -13.34 12.04 -13 10 C-14.32 10 -15.64 10 -17 10 C-17.3125 7.6875 -17.3125 7.6875 -17 5 C-14.625 3.25 -14.625 3.25 -12 2 C-11.34 1.67 -10.68 1.34 -10 1 C-8.48430078 0.77473094 -6.96207266 0.59167027 -5.4375 0.4375 C-4.63183594 0.35371094 -3.82617188 0.26992188 -2.99609375 0.18359375 C-1 0 -1 0 0 0 Z " fill="#232323" transform="translate(53,63)"/>
<path d="M0 0 C1.89355469 0.26147461 1.89355469 0.26147461 4 1 C5.00488281 2.67407227 5.00488281 2.67407227 5.703125 4.81640625 C5.93676758 5.50420166 6.17041016 6.19199707 6.41113281 6.90063477 C6.68795898 7.77905029 6.96478516 8.65746582 7.25 9.5625 C8.1575 12.346875 9.065 15.13125 10 18 C12.31 12.06 14.62 6.12 17 0 C18.32 0 19.64 0 21 0 C20.05065965 3.34970496 19.03401499 6.67549762 18 10 C17.62488281 11.23621094 17.24976563 12.47242187 16.86328125 13.74609375 C16.45239016 15.01883418 16.03964145 16.29097645 15.625 17.5625 C15.05652344 19.35880859 15.05652344 19.35880859 14.4765625 21.19140625 C13 24 13 24 10.3359375 24.90234375 C9.56507813 24.93457031 8.79421875 24.96679688 8 25 C6.8452141 21.96165799 5.70280979 18.91880147 4.5625 15.875 C4.23701172 15.0190625 3.91152344 14.163125 3.57617188 13.28125 C1.92672186 8.86004378 0.54932623 4.71956339 0 0 Z " fill="#232323" transform="translate(183,107)"/>
<path d="M0 0 C2.25 0.0625 2.25 0.0625 5 1 C7.0898813 3.65742095 9 6.53550551 9 10 C9.66 10 10.32 10 11 10 C11.268125 9.278125 11.53625 8.55625 11.8125 7.8125 C13.00626144 4.98517028 14.21484551 2.49921628 16 0 C16.99 0 17.98 0 19 0 C18.66264242 3.59848085 17.56783304 5.70805612 15.5 8.5625 C12.10040682 13.66678832 12.10971862 19.01534803 12 25 C10.68 25 9.36 25 8 25 C8.00902344 24.27296875 8.01804687 23.5459375 8.02734375 22.796875 C7.76484909 13.89488207 4.78590575 8.36004827 0 1 C0 0.67 0 0.34 0 0 Z " fill="#232323" transform="translate(341,107)"/>
<path d="M0 0 C6.27 0 12.54 0 19 0 C19 0.99 19 1.98 19 3 C16.69 3 14.38 3 12 3 C12 10.26 12 17.52 12 25 C10.68 25 9.36 25 8 25 C8 17.74 8 10.48 8 3 C5.36 3 2.72 3 0 3 C0 2.01 0 1.02 0 0 Z " fill="#242424" transform="translate(314,107)"/>
<path d="M0 0 C1.32 0 2.64 0 4 0 C4 8.25 4 16.5 4 25 C2.68 25 1.36 25 0 25 C0 16.75 0 8.5 0 0 Z " fill="#232323" transform="translate(300,107)"/>
<path d="M0 0 C1.32 0 2.64 0 4 0 C4 8.25 4 16.5 4 25 C2.68 25 1.36 25 0 25 C0 16.75 0 8.5 0 0 Z " fill="#212121" transform="translate(168,107)"/>
</svg>
