<?xml version="1.0" standalone="no"?>
<!DOCTYPE svg PUBLIC "-//W3C//DTD SVG 20010904//EN"
 "http://www.w3.org/TR/2001/REC-SVG-20010904/DTD/svg10.dtd">
<svg version="1.0" xmlns="http://www.w3.org/2000/svg"
 width="1200.000000pt" height="1200.000000pt" viewBox="0 0 1200.000000 1200.000000"
 preserveAspectRatio="xMidYMid meet">

<g transform="translate(0.000000,1200.000000) scale(0.100000,-0.100000)"
fill="#000000" stroke="none">
<path d="M5645 11830 c-1083 -73 -2086 -420 -2955 -1022 -1777 -1231 -2727
-3307 -2495 -5448 167 -1532 950 -2952 2162 -3921 1282 -1024 2932 -1462 4548
-1208 2164 341 3966 1875 4644 3954 625 1913 225 4001 -1059 5545 -993 1193
-2399 1935 -3950 2085 -195 19 -709 27 -895 15z m698 -231 c983 -61 1922 -375
2737 -914 342 -226 567 -412 880 -725 460 -459 780 -900 1059 -1459 319 -638
501 -1282 573 -2036 16 -170 16 -760 0 -930 -72 -749 -246 -1372 -563 -2015
-277 -562 -607 -1019 -1068 -1481 -465 -465 -915 -789 -1491 -1073 -629 -311
-1255 -485 -2005 -558 -169 -16 -759 -16 -930 0 -977 94 -1838 392 -2615 907
-338 224 -569 413 -880 725 -459 458 -780 900 -1059 1459 -320 639 -499 1276
-573 2036 -19 200 -16 780 6 990 120 1169 550 2191 1298 3089 137 164 543 567
706 700 757 618 1568 1004 2502 1190 249 50 463 77 800 99 116 8 469 6 623 -4z"/>
<path d="M5941 11303 l-54 -4 7 -247 c15 -544 11 -595 -53 -639 -67 -45 -229
-56 -314 -20 -76 33 -95 146 -96 588 -1 80 -4 181 -8 224 l-6 78 -126 -7 c-68
-4 -127 -8 -129 -11 -2 -2 1 -167 7 -367 11 -379 17 -431 62 -526 28 -57 96
-125 157 -156 129 -66 415 -61 558 9 107 53 194 184 212 320 5 39 5 184 1 325
-4 140 -8 297 -8 348 l-1 92 -77 -2 c-43 -1 -102 -3 -132 -5z"/>
<path d="M6642 11103 c-73 -353 -185 -924 -181 -927 4 -4 212 -24 216 -21 1 0
38 158 82 349 44 192 82 351 84 353 2 2 89 -185 192 -414 103 -230 193 -423
199 -429 12 -12 224 -69 230 -63 6 6 236 1031 236 1050 0 17 -20 22 -165 45
l-41 6 -73 -324 c-40 -177 -76 -334 -80 -347 -6 -20 -43 51 -211 406 l-203
431 -103 16 c-165 26 -146 39 -182 -131z"/>
<path d="M7916 10349 c-125 -270 -224 -495 -219 -499 4 -4 52 -30 105 -59 l97
-51 15 27 c64 126 456 967 454 975 -3 9 -194 97 -214 98 -6 0 -113 -221 -238
-491z"/>
<path d="M3635 10725 c-55 -30 -100 -58 -100 -63 0 -15 489 -942 497 -942 12
0 187 101 193 111 8 13 -464 949 -478 948 -6 -1 -57 -25 -112 -54z"/>
<path d="M8641 10543 c-41 -157 -270 -1067 -268 -1068 1 -1 41 -29 89 -63 47
-34 89 -62 92 -62 13 0 931 611 931 619 0 5 -41 47 -91 94 l-91 86 -332 -261
c-183 -143 -334 -258 -336 -257 -2 2 54 189 124 414 l128 410 -114 63 c-63 34
-116 62 -118 62 -2 0 -9 -17 -14 -37z"/>
<path d="M2795 10169 c-55 -44 -108 -89 -119 -98 -17 -18 -13 -34 154 -552 95
-294 175 -539 179 -546 7 -12 164 108 169 130 1 7 -13 63 -31 124 l-34 112
169 120 c93 67 173 121 179 121 6 0 53 -25 104 -56 59 -35 99 -53 107 -48 7 4
55 44 106 88 l92 79 -27 17 c-16 9 -234 146 -485 303 -252 158 -459 287 -460
287 -2 -1 -48 -37 -103 -81z m308 -346 c97 -68 177 -127 177 -131 0 -6 -168
-132 -207 -155 -15 -9 -9 -23 -103 235 -37 103 -62 185 -56 181 6 -3 91 -62
189 -130z"/>
<path d="M5775 9893 c-1237 -79 -2336 -712 -3024 -1740 -215 -322 -386 -690
-496 -1068 -431 -1484 59 -3084 1249 -4077 910 -761 2112 -1064 3277 -828
1037 211 1957 850 2521 1750 534 853 718 1866 518 2850 -289 1414 -1347 2561
-2735 2965 -414 120 -896 175 -1310 148z m496 -233 c489 -38 942 -165 1379
-386 978 -492 1687 -1399 1928 -2464 52 -227 92 -556 92 -755 l0 -70 -550 550
-550 550 0 737 0 738 -737 0 -738 0 -547 547 -548 548 -538 -538 -537 -537
-765 0 -764 0 44 46 c67 69 253 228 361 309 710 531 1599 792 2470 725z m234
-830 l500 -500 667 0 668 0 0 -667 0 -668 517 -517 518 -518 -473 -473 -472
-472 0 -683 0 -682 -722 0 -723 0 -492 -492 -493 -493 -483 483 -482 482 -708
0 -707 0 0 682 0 683 -497 497 -498 498 498 498 497 497 0 683 0 682 698 0
697 0 490 490 c269 270 492 490 495 490 3 0 230 -225 505 -500z m-3640 -2280
c-288 -288 -528 -521 -532 -517 -12 13 15 362 42 532 113 721 426 1370 928
1919 l82 90 3 -749 2 -750 -525 -525z m525 -2385 l-1 -740 -76 80 c-428 452
-751 1062 -891 1685 -50 219 -92 551 -92 724 l0 51 530 -530 530 -530 0 -740z
m6280 1733 c0 -67 -23 -311 -41 -433 -102 -709 -430 -1401 -918 -1935 l-50
-55 -1 725 0 725 497 497 c274 274 501 498 505 498 5 0 8 -10 8 -22z m-1160
-2570 c-245 -235 -553 -449 -879 -612 -1002 -502 -2194 -513 -3199 -31 -247
119 -432 231 -636 385 -102 76 -293 239 -345 294 l-35 36 765 0 764 0 527
-527 528 -528 538 538 537 537 765 0 765 -1 -95 -91z"/>
<path d="M4814 8091 c-85 -52 -102 -129 -78 -353 19 -184 15 -260 -16 -316
-68 -121 -256 -105 -330 28 -20 37 -24 58 -23 115 1 39 6 90 12 115 19 80 14
135 -15 169 -33 39 -92 57 -140 41 -100 -33 -164 -221 -164 -481 0 -117 0
-118 33 -160 67 -87 175 -123 418 -138 146 -10 181 -20 194 -60 17 -56 -87
-149 -200 -180 -23 -6 -124 -15 -225 -21 -239 -13 -311 -32 -371 -97 -79 -84
-81 -133 -17 -408 23 -100 23 -100 23 -925 0 -751 2 -833 18 -914 30 -152 71
-218 141 -231 104 -20 146 60 167 315 16 197 -8 695 -57 1200 -36 363 -26 494
43 588 30 40 60 41 95 5 63 -68 69 -102 53 -319 l-8 -122 26 -16 c19 -13 52
-18 142 -19 114 -2 117 -3 141 -30 36 -42 33 -90 -8 -120 -39 -28 -67 -39
-175 -67 -97 -26 -128 -52 -128 -109 0 -88 42 -113 219 -130 60 -6 111 -13
113 -14 2 -2 8 -30 15 -63 13 -64 15 -258 8 -754 -5 -297 -4 -321 17 -414 46
-209 128 -306 219 -263 96 46 122 245 90 707 -26 359 -29 479 -17 598 6 62 16
123 21 137 13 33 68 59 175 79 49 10 102 24 116 32 34 17 53 64 46 115 -11 83
-58 108 -231 123 -127 11 -131 12 -140 37 -14 40 2 98 35 132 l30 29 137 -7
c172 -9 169 -12 187 142 9 69 10 113 4 125 -5 10 -35 25 -67 34 -31 9 -65 23
-75 32 -16 14 -16 17 10 51 130 177 261 201 318 59 22 -55 39 -269 30 -383 -4
-49 -11 -389 -16 -755 -5 -366 -12 -700 -15 -743 -4 -61 -2 -83 10 -102 28
-42 149 -61 194 -29 58 40 64 93 48 434 -7 149 -4 263 14 585 37 668 20 1086
-56 1325 -29 93 -62 131 -134 155 -64 21 -180 21 -285 1 -106 -21 -161 -20
-215 5 -100 45 -154 135 -120 199 19 36 52 44 220 51 200 9 273 28 343 89 69
61 91 126 91 265 -1 165 -42 291 -131 395 -92 108 -202 91 -239 -37 -21 -71
-13 -134 27 -221 57 -127 48 -176 -38 -214 -38 -17 -61 -20 -137 -16 -121 6
-152 22 -162 84 -3 25 -4 97 0 160 3 63 9 165 12 228 6 105 5 118 -15 160 -33
67 -82 106 -134 106 -24 0 -56 -8 -73 -19z m-138 -1447 c64 -14 105 -15 219
-9 212 12 249 11 279 -8 14 -10 26 -25 26 -33 0 -21 -53 -70 -102 -95 -33 -17
-45 -34 -89 -125 -75 -156 -126 -204 -203 -190 -49 9 -80 37 -145 135 -33 47
-89 120 -125 161 -76 86 -87 112 -60 142 38 42 81 46 200 22z"/>
<path d="M6775 8061 c-62 -28 -68 -39 -60 -124 10 -100 -12 -176 -65 -229 -31
-31 -45 -38 -76 -38 -50 0 -123 35 -197 93 -32 25 -67 49 -78 52 -31 10 -68
-21 -96 -82 -24 -51 -25 -63 -20 -167 3 -61 12 -174 21 -251 75 -678 73 -1498
-5 -2105 -42 -328 -81 -504 -146 -659 -72 -169 -69 -256 8 -325 32 -30 47 -36
83 -36 83 0 112 56 185 360 22 91 53 213 70 272 46 166 81 329 91 431 5 57 4
201 -2 375 -16 414 6 584 87 679 54 63 93 74 233 67 117 -7 117 -7 150 20 21
19 37 44 47 79 34 124 46 771 19 1077 -28 319 -76 475 -158 514 -42 20 -42 20
-91 -3z m-10 -645 c31 -31 39 -79 23 -140 -17 -64 -52 -87 -149 -94 -119 -8
-199 39 -199 117 1 62 42 95 153 122 103 25 143 24 172 -5z m-45 -443 c66 -39
92 -161 51 -241 -47 -92 -192 -173 -251 -142 -51 27 -77 165 -50 262 29 104
166 171 250 121z"/>
<path d="M7224 8005 c-78 -54 -120 -406 -103 -857 8 -239 25 -521 38 -646 14
-140 47 -158 264 -147 121 6 148 5 182 -9 78 -33 109 -87 136 -236 15 -80 18
-527 9 -1180 -4 -288 -3 -348 12 -431 36 -200 80 -293 153 -329 33 -16 53 -20
77 -15 118 26 139 106 78 305 -31 104 -32 108 -40 395 -5 160 -20 470 -34 690
-51 799 -58 1457 -21 1770 25 211 29 296 15 344 -33 122 -166 143 -310 50 -67
-43 -86 -46 -137 -23 -44 21 -72 64 -124 186 -48 113 -80 148 -138 148 -20 0
-46 -7 -57 -15z m369 -531 c59 -20 126 -79 155 -136 29 -59 28 -89 -4 -121
-71 -71 -268 -35 -322 59 -32 54 -28 151 8 189 28 30 90 34 163 9z m37 -546
c65 -24 101 -90 101 -184 0 -126 -52 -173 -183 -166 -67 4 -128 103 -128 207
0 68 27 144 53 150 12 2 31 6 42 8 24 5 80 -2 115 -15z"/>
<path d="M7206 6267 c-55 -31 -79 -67 -84 -129 -4 -47 0 -62 37 -131 39 -75
40 -79 26 -107 -8 -16 -19 -31 -24 -34 -5 -3 -14 -28 -21 -55 -12 -53 -10 -65
45 -249 45 -151 51 -297 30 -697 -22 -406 -22 -485 0 -561 20 -68 77 -130 129
-140 73 -13 121 10 157 76 24 44 15 197 -20 362 l-31 147 0 329 c0 181 4 352
10 380 5 29 25 75 44 104 40 60 59 136 49 204 -5 39 -12 50 -44 71 -61 40 -66
65 -27 159 24 61 32 94 32 146 1 61 -2 69 -28 97 -37 38 -80 51 -171 51 -54 0
-79 -5 -109 -23z"/>
<path d="M6763 6270 c-82 -19 -143 -84 -143 -152 0 -55 21 -97 74 -146 58 -55
61 -84 10 -133 -20 -18 -45 -52 -55 -74 -36 -78 -18 -209 37 -267 21 -21 28
-42 35 -100 38 -327 -47 -865 -172 -1093 -118 -217 -117 -345 4 -345 37 0 47
6 97 58 32 32 77 95 103 142 126 234 166 425 187 910 19 442 17 427 60 495 64
101 62 136 -16 231 -47 57 -65 105 -55 140 5 16 28 66 51 110 37 70 42 87 36
119 -17 86 -132 134 -253 105z"/>
<path d="M9385 9350 c-231 -197 -419 -365 -419 -373 1 -13 374 -460 395 -472
5 -4 41 19 79 50 l70 57 -45 57 c-24 31 -83 103 -130 161 l-85 105 43 40 c24
22 75 68 114 102 l70 62 114 -140 c63 -78 121 -150 130 -162 16 -20 17 -20 88
38 39 33 71 60 71 62 0 2 -58 74 -130 161 l-129 157 62 58 c34 32 73 66 87 77
l26 18 119 -150 c66 -82 123 -152 127 -154 11 -7 143 107 142 122 -1 11 -358
469 -373 478 -4 3 -196 -157 -426 -354z"/>
<path d="M1971 9452 c-44 -60 -81 -115 -81 -122 0 -8 36 -128 81 -268 44 -140
79 -256 77 -257 -2 -2 -83 53 -181 122 -98 69 -180 123 -183 121 -2 -3 -38
-50 -79 -104 -57 -76 -71 -102 -62 -110 11 -11 856 -610 885 -628 7 -4 38 33
82 99 l70 105 -92 68 c-51 37 -140 101 -196 142 -83 60 -99 76 -82 78 12 2
153 -1 313 -7 160 -6 291 -10 292 -8 1 1 34 53 74 115 40 63 70 116 68 118 -2
3 -161 13 -353 24 -191 11 -351 23 -354 27 -4 5 -47 136 -95 293 -49 157 -92
289 -95 293 -4 4 -44 -41 -89 -101z"/>
<path d="M10362 8815 c-30 -18 -231 -136 -447 -261 -217 -126 -394 -232 -395
-235 0 -6 117 -219 124 -227 2 -1 88 53 192 121 120 79 190 119 192 111 7 -27
-38 -104 -157 -272 -68 -95 -121 -178 -118 -185 3 -6 39 -61 80 -120 l75 -108
137 240 c76 133 141 241 145 241 4 0 26 -14 50 -31 71 -51 118 -69 190 -69
103 0 197 56 242 144 25 49 35 163 19 221 -11 43 -252 457 -267 461 -5 1 -33
-13 -62 -31z m91 -332 c56 -97 61 -115 47 -158 -23 -70 -120 -106 -189 -70
-25 13 -121 149 -121 171 0 10 189 132 207 133 6 1 31 -34 56 -76z"/>
<path d="M1270 8363 c-16 -53 -27 -100 -22 -104 4 -3 157 -64 340 -134 183
-70 330 -131 327 -134 -4 -3 -200 -58 -438 -121 l-431 -116 -49 -108 c-26 -60
-45 -112 -40 -117 6 -6 789 -356 949 -425 l31 -13 41 101 c23 56 41 102 40
104 -3 1 -525 229 -647 281 -18 8 -31 16 -29 19 3 2 194 58 424 124 230 66
433 125 449 130 26 9 36 24 73 111 24 56 40 105 35 109 -9 8 -1003 390 -1015
390 -4 0 -21 -44 -38 -97z"/>
<path d="M10707 7770 c-156 -39 -217 -137 -257 -412 -23 -156 -31 -178 -68
-200 -75 -44 -159 -23 -209 53 -41 63 -35 141 22 290 5 13 -12 28 -70 64 -42
26 -77 46 -80 44 -2 -2 -15 -26 -28 -54 -70 -139 -76 -291 -19 -408 43 -88
110 -160 180 -194 48 -24 68 -27 147 -28 80 0 96 3 150 30 103 51 147 132 190
348 37 184 77 247 157 247 32 0 47 -7 75 -35 l36 -36 -6 -92 c-4 -51 -9 -102
-13 -114 -5 -18 7 -30 70 -79 73 -54 77 -56 91 -38 48 63 76 212 56 303 -27
129 -131 263 -226 294 -65 21 -150 29 -198 17z"/>
<path d="M1326 6819 c-301 -82 -551 -150 -553 -153 -6 -6 -36 -286 -31 -290
24 -21 1022 -486 1027 -480 5 5 16 49 25 98 10 48 19 93 22 100 3 7 -37 29
-103 55 -60 24 -112 48 -117 52 -9 8 13 421 23 437 3 5 58 21 122 36 l117 27
12 130 c7 71 11 131 9 133 -2 1 -251 -64 -553 -145z m99 -368 c-4 -78 -10
-141 -14 -141 -16 0 -431 185 -422 188 27 9 436 98 440 96 2 -2 0 -66 -4 -143z"/>
<path d="M10700 6734 c-261 -29 -492 -53 -512 -53 -20 -1 -39 -5 -42 -10 -7
-10 9 -220 17 -227 2 -3 253 21 556 53 l552 57 -6 106 c-4 58 -8 111 -10 118
-6 17 -24 16 -555 -44z"/>
<path d="M11108 6274 c-5 -4 -8 -68 -8 -142 l0 -134 -459 4 -460 4 -3 -121
c-2 -66 -2 -123 0 -127 2 -5 153 -8 336 -8 183 0 388 -3 454 -7 l122 -6 0
-144 0 -143 109 0 109 0 6 153 c3 83 7 268 10 410 l4 257 -62 0 c-35 0 -83 3
-107 6 -24 3 -47 2 -51 -2z"/>
<path d="M1365 5660 c-236 -38 -480 -76 -541 -85 l-111 -17 17 -99 c9 -55 19
-101 21 -103 2 -2 159 21 349 50 190 29 353 53 363 54 20 0 -33 -58 -405 -442
l-196 -203 9 -125 c5 -68 11 -125 13 -127 3 -3 1001 150 1052 162 20 4 21 9
16 102 -2 54 -5 99 -6 100 -1 1 -177 -24 -391 -56 -215 -32 -391 -58 -392 -57
-1 1 144 154 322 340 l325 339 0 118 c0 66 -3 118 -7 118 -5 -1 -201 -32 -438
-69z"/>
<path d="M10950 5124 c-168 -52 -318 -94 -335 -95 -16 0 -134 18 -261 40 -127
23 -236 41 -241 41 -10 0 -49 -237 -41 -245 2 -3 107 -22 233 -44 l229 -40
247 -247 c135 -135 249 -242 251 -238 3 5 22 61 43 124 l38 114 -51 46 c-28
25 -105 92 -171 150 -66 58 -120 108 -120 111 -1 3 86 25 192 48 105 23 201
46 212 50 20 8 33 47 93 264 2 9 0 17 -4 16 -5 -1 -146 -43 -314 -95z"/>
<path d="M2216 3137 c-147 -91 -96 -317 75 -333 153 -15 252 150 166 276 -37
55 -70 74 -140 78 -52 2 -68 -1 -101 -21z"/>
<path d="M9586 3137 c-55 -34 -86 -89 -86 -155 0 -138 130 -220 257 -163 119
54 135 225 28 307 -53 40 -143 45 -199 11z"/>
<path d="M4026 2059 c-15 -40 -25 -73 -24 -74 2 -1 40 -12 85 -25 46 -13 88
-27 94 -30 7 -5 -51 -126 -160 -336 -157 -303 -169 -330 -153 -342 9 -8 52
-31 94 -53 l77 -39 97 188 c54 103 151 288 215 412 64 124 116 226 114 228 -5
6 -390 142 -401 142 -6 0 -24 -32 -38 -71z"/>
<path d="M7804 2044 c-112 -30 -519 -185 -566 -215 -117 -75 -135 -156 -73
-324 61 -164 104 -205 216 -205 115 0 327 69 541 176 48 24 90 44 93 44 11 0
4 -58 -11 -104 -22 -65 -102 -148 -193 -202 -42 -24 -135 -68 -208 -96 l-132
-52 86 -49 86 -49 61 22 c352 128 539 362 498 624 -15 97 -94 310 -138 369
-20 27 -50 55 -69 63 -42 17 -123 17 -191 -2z m70 -178 c26 -11 41 -28 65 -78
17 -34 34 -77 37 -94 6 -30 4 -32 -63 -64 -211 -100 -440 -177 -481 -163 -36
13 -63 50 -83 112 -23 77 -15 109 36 141 49 30 400 155 448 159 4 1 23 -5 41
-13z"/>
<path d="M5006 1758 c-121 -15 -165 -73 -191 -250 -24 -167 -4 -228 90 -280
94 -51 370 -98 577 -98 54 0 98 -4 98 -8 0 -18 -74 -94 -117 -119 -93 -54
-234 -66 -458 -38 -65 8 -120 13 -122 12 -1 -2 21 -39 50 -82 61 -93 57 -91
242 -101 327 -16 548 115 619 366 24 85 49 279 43 332 -12 98 -60 153 -162
183 -52 16 -421 74 -535 84 -41 3 -102 3 -134 -1z m315 -183 c208 -30 252 -41
284 -71 22 -21 25 -31 25 -97 0 -41 -3 -89 -6 -106 -6 -31 -7 -31 -71 -31 -89
0 -344 28 -426 46 -39 9 -80 26 -95 39 -24 21 -27 29 -25 84 3 104 44 161 118
161 17 0 105 -11 196 -25z"/>
<path d="M6401 1667 l-193 -51 4 -53 c3 -29 7 -56 10 -59 4 -3 48 -1 99 6 51
6 95 7 99 3 4 -4 24 -165 44 -358 21 -192 39 -352 41 -355 2 -3 46 -1 99 4 77
7 96 12 96 25 1 37 -94 877 -99 882 -3 3 -93 -17 -200 -44z"/>
</g>
</svg>
