<?xml version="1.0" standalone="no"?>
<!DOCTYPE svg PUBLIC "-//W3C//DTD SVG 20010904//EN"
 "http://www.w3.org/TR/2001/REC-SVG-20010904/DTD/svg10.dtd">
<svg version="1.0" xmlns="http://www.w3.org/2000/svg"
 width="404.000000pt" height="218.000000pt" viewBox="0 0 404.000000 218.000000"
 preserveAspectRatio="xMidYMid meet">

<g transform="translate(0.000000,218.000000) scale(0.100000,-0.100000)"
fill="#000000" stroke="none">
<path d="M488 1890 c21 -20 22 -29 22 -160 0 -129 -2 -141 -20 -152 -32 -20
-24 -26 40 -27 63 -1 73 6 40 27 -18 11 -21 21 -18 80 3 60 5 67 24 70 29 4
51 -21 64 -71 20 -79 30 -96 62 -102 37 -8 46 0 26 22 -9 10 -23 42 -32 70
-10 30 -29 62 -43 73 -14 11 -24 21 -22 23 2 1 13 7 24 13 46 25 56 82 21 129
-12 17 -28 20 -113 23 l-98 4 23 -22z m146 -22 c36 -51 8 -118 -50 -118 l-34
0 0 54 c0 30 3 61 6 70 9 24 60 20 78 -6z"/>
<path d="M788 1893 c21 -15 22 -21 22 -163 0 -142 -1 -148 -22 -163 -21 -14
-14 -15 100 -16 90 -1 124 2 127 11 2 7 6 30 10 52 5 29 3 37 -7 34 -7 -3 -15
-13 -17 -24 -6 -36 -22 -44 -83 -44 l-59 0 3 72 c3 61 6 73 21 76 34 7 67 -7
67 -28 0 -11 5 -20 10 -20 6 0 10 23 10 50 0 28 0 52 0 55 0 15 -15 3 -18 -15
-3 -17 -11 -20 -48 -20 l-45 0 3 68 3 67 37 3 c47 4 76 -11 84 -44 9 -36 21
-12 16 31 l-4 35 -117 -1 c-108 0 -115 -1 -93 -16z"/>
<path d="M1117 1890 c-58 -46 -43 -125 32 -167 68 -39 91 -63 91 -94 0 -78
-124 -75 -132 3 -5 54 -28 46 -28 -10 0 -47 2 -51 31 -61 93 -32 169 8 169 89
0 48 -25 77 -103 122 -54 32 -70 67 -42 98 37 41 105 12 105 -43 0 -11 5 -17
13 -14 15 5 10 79 -7 89 -24 16 -103 8 -129 -12z"/>
<path d="M1340 1900 c0 -5 6 -10 14 -10 22 0 26 -24 26 -166 0 -123 -2 -135
-20 -146 -11 -7 -20 -16 -20 -20 0 -3 54 -7 119 -7 l120 -1 7 45 c8 55 -2 70
-17 27 -12 -36 -34 -45 -99 -40 l-44 3 -1 68 c0 63 1 68 23 74 29 7 72 -12 72
-32 0 -8 5 -15 10 -15 6 0 10 27 10 60 0 65 -5 74 -20 35 -8 -21 -16 -25 -49
-25 l-39 0 -4 61 c-1 33 1 64 7 70 25 25 115 -3 115 -37 0 -8 5 -14 10 -14 6
0 10 18 10 40 l0 40 -115 0 c-70 0 -115 -4 -115 -10z"/>
<path d="M1757 1868 c-9 -24 -34 -97 -56 -163 -23 -65 -47 -123 -56 -128 -28
-15 -15 -27 32 -27 44 0 45 1 29 18 -11 13 -14 28 -10 50 9 43 25 54 75 50 39
-3 43 -6 56 -43 12 -35 12 -41 -2 -51 -26 -19 -17 -24 40 -24 58 0 66 6 37 31
-11 9 -36 78 -62 172 -25 86 -50 157 -56 157 -6 0 -18 -19 -27 -42z m31 -100
c21 -83 21 -82 -21 -83 -22 0 -41 3 -43 6 -2 4 3 28 12 55 9 27 17 55 20 62 7
25 20 10 32 -40z"/>
<path d="M1970 1900 c0 -5 7 -10 15 -10 8 0 15 -3 15 -7 1 -5 1 -73 2 -152 1
-123 -2 -146 -16 -156 -26 -19 -20 -22 44 -23 59 0 79 11 40 23 -17 6 -20 15
-20 75 0 73 7 85 45 76 20 -5 28 -19 46 -79 23 -77 39 -97 76 -97 25 0 31 15
9 27 -7 4 -21 32 -31 62 -10 30 -28 65 -41 78 -29 29 -29 29 -6 35 28 8 54 71
43 101 -17 44 -48 57 -138 57 -49 0 -83 -4 -83 -10z m164 -32 c36 -51 8 -118
-50 -118 l-34 0 0 63 c0 35 3 67 7 70 15 16 62 6 77 -15z"/>
<path d="M2353 1890 c-50 -30 -68 -73 -68 -165 0 -68 4 -85 23 -113 48 -66
129 -81 195 -37 20 14 37 30 37 35 0 15 -9 12 -37 -10 -29 -22 -89 -26 -114
-7 -63 48 -74 213 -18 273 32 34 90 33 118 -2 12 -15 21 -33 21 -40 0 -8 5
-14 10 -14 6 0 10 20 10 44 0 41 -2 44 -31 50 -58 11 -114 6 -146 -14z"/>
<path d="M2590 1901 c0 -5 7 -11 15 -15 12 -4 15 -31 15 -156 0 -125 -3 -152
-15 -156 -32 -13 -12 -21 48 -22 59 0 61 1 40 15 -20 14 -23 24 -23 90 l0 74
73 -3 72 -3 3 -72 c3 -64 1 -72 -18 -78 -38 -12 -20 -23 40 -23 58 0 77 9 45
22 -12 4 -15 31 -15 154 0 144 1 150 23 165 21 15 19 16 -45 16 -65 1 -90 -11
-48 -22 19 -5 21 -12 18 -69 l-3 -63 -72 -3 -73 -3 0 64 c0 56 3 67 23 80 21
15 19 16 -40 16 -35 1 -63 -3 -63 -8z"/>
<path d="M3103 1896 c15 -12 17 -32 17 -161 0 -120 -3 -152 -15 -166 -15 -16
-12 -17 45 -17 l61 0 -20 22 c-19 20 -21 35 -21 159 0 127 1 138 22 157 l22
20 -65 0 c-55 -1 -62 -2 -46 -14z"/>
<path d="M3260 1904 c0 -4 7 -12 17 -19 14 -10 16 -32 14 -156 -2 -112 -5
-146 -16 -155 -24 -18 -17 -24 30 -24 47 0 54 6 31 24 -11 8 -15 43 -18 139
-2 70 -1 127 2 127 3 0 48 -65 99 -145 51 -80 97 -145 102 -145 5 0 9 68 9
160 0 151 1 160 22 180 l22 20 -55 0 c-54 0 -54 -1 -31 -18 22 -17 23 -23 20
-132 l-3 -115 -49 80 c-115 186 -114 185 -157 185 -21 0 -39 -3 -39 -6z"/>
<path d="M50 1373 c0 -6 5 -15 10 -18 6 -4 10 -65 10 -149 0 -116 -3 -146 -15
-156 -23 -19 -13 -22 64 -22 91 1 89 1 69 13 -16 9 -18 28 -18 164 0 97 4 155
10 155 6 0 10 4 10 9 0 5 -32 11 -70 13 -49 2 -70 -1 -70 -9z"/>
<path d="M1987 1363 c-8 -15 -33 -81 -57 -146 -23 -65 -53 -133 -65 -152 -13
-18 -22 -35 -20 -37 2 -2 22 -2 45 0 37 4 40 6 26 21 -12 14 -13 20 0 49 13
31 16 33 56 30 38 -3 43 -6 51 -37 5 -22 5 -37 -2 -44 -20 -20 -12 -22 65 -19
70 3 74 5 61 20 -8 9 -27 58 -42 107 -65 217 -70 230 -87 233 -10 2 -22 -7
-31 -25z m13 -190 c0 -19 -5 -23 -30 -23 -35 0 -35 1 -13 59 l17 45 13 -30 c6
-16 12 -39 13 -51z"/>
<path d="M2578 1382 c-60 -3 -87 -14 -58 -24 14 -4 15 -297 1 -311 -6 -6 -11
-13 -11 -17 0 -4 120 -4 150 0 3 0 -3 5 -12 11 -16 9 -18 28 -18 164 0 107 3
154 12 157 6 2 9 8 7 14 -2 5 -34 8 -71 6z"/>
<path d="M2780 1367 c-84 -44 -115 -163 -67 -257 27 -54 61 -80 114 -87 115
-15 206 83 189 204 -9 65 -39 115 -84 141 -51 28 -98 28 -152 -1z m117 -34
c14 -22 18 -48 18 -129 0 -89 -3 -106 -21 -131 -27 -36 -51 -36 -78 0 -18 25
-21 42 -21 131 0 81 4 108 18 129 23 36 61 36 84 0z"/>
<path d="M3531 1368 c-5 -13 -27 -70 -49 -128 -58 -151 -69 -175 -86 -189 -23
-20 -12 -27 33 -23 35 4 39 6 29 21 -7 12 -8 27 -1 47 9 26 14 29 54 29 38 0
45 -3 53 -26 5 -15 7 -33 4 -40 -11 -29 -6 -31 62 -32 39 -1 70 0 70 2 0 3 -7
12 -15 21 -8 9 -29 63 -46 121 -57 193 -65 214 -82 217 -10 2 -21 -6 -26 -20z
m5 -175 c6 -41 5 -43 -18 -43 -36 0 -38 6 -21 57 18 51 29 47 39 -14z"/>
<path d="M230 1371 c0 -6 5 -11 10 -11 6 0 10 -58 10 -155 0 -129 -3 -157 -15
-161 -26 -10 -7 -21 32 -18 50 3 49 2 30 17 -15 11 -17 28 -15 125 l3 112 90
-127 c50 -71 98 -128 105 -128 12 0 15 28 18 163 2 132 5 164 17 168 30 12 14
24 -32 24 -41 -1 -45 -3 -31 -13 12 -10 17 -33 19 -92 2 -44 -1 -80 -6 -80 -5
0 -36 41 -70 90 l-60 90 -53 3 c-31 2 -52 -1 -52 -7z"/>
<path d="M560 1330 c0 -55 14 -67 24 -20 6 30 46 57 67 44 5 -3 9 -70 9 -149
0 -137 -1 -145 -22 -159 -12 -9 -19 -16 -15 -17 4 0 41 0 82 0 41 0 78 0 82 0
4 1 -3 8 -15 17 -21 14 -22 22 -22 159 0 79 4 146 9 149 21 13 61 -14 67 -44
10 -47 24 -35 24 20 l0 50 -145 0 -145 0 0 -50z"/>
<path d="M880 1371 c0 -5 7 -11 15 -15 12 -4 15 -31 15 -155 0 -132 -2 -151
-17 -160 -23 -13 -23 -13 127 -13 l125 1 8 41 c9 47 1 65 -17 36 -23 -40 -46
-56 -80 -56 -46 0 -58 18 -54 82 l3 53 35 0 c29 0 36 -4 38 -23 7 -47 26 -15
26 43 0 58 -19 90 -26 43 -2 -19 -10 -24 -40 -26 l-38 -3 0 60 c0 47 4 62 18
69 30 15 76 -1 90 -31 19 -40 34 -33 30 16 l-3 42 -127 3 c-74 1 -128 -1 -128
-7z"/>
<path d="M1190 1370 c0 -5 5 -10 10 -10 6 0 10 -58 10 -154 0 -93 -4 -157 -10
-161 -24 -15 -5 -20 67 -17 66 3 75 6 60 16 -13 10 -17 28 -17 80 0 86 16 84
48 -4 30 -85 36 -90 93 -90 48 0 58 7 39 26 -5 5 -22 34 -37 64 -16 30 -39 60
-53 67 l-24 12 24 9 c67 26 86 105 36 148 -25 22 -36 24 -137 24 -66 0 -109
-4 -109 -10z m170 -29 c25 -48 4 -131 -34 -131 -13 0 -16 12 -16 75 0 68 2 75
20 75 10 0 24 -9 30 -19z"/>
<path d="M1510 1371 c0 -5 7 -11 15 -15 22 -8 22 -304 0 -312 -36 -14 19 -25
73 -15 2 1 -4 8 -12 17 -13 12 -16 39 -16 125 0 60 2 109 4 109 2 0 23 -28 46
-62 24 -35 61 -89 83 -120 80 -116 87 -109 87 93 0 133 3 161 15 165 30 12 14
24 -30 24 -47 0 -54 -6 -30 -24 10 -8 15 -34 16 -89 1 -42 0 -80 -3 -83 -3 -2
-34 40 -69 96 l-64 100 -57 0 c-32 0 -58 -4 -58 -9z"/>
<path d="M2180 1330 c0 -59 11 -64 29 -15 7 19 15 35 19 35 4 0 17 3 30 6 l22
6 0 -155 c0 -128 -3 -156 -15 -161 -35 -13 -10 -21 65 -21 44 0 80 2 80 4 0 2
-7 9 -15 15 -19 15 -25 308 -6 314 19 6 59 -26 63 -49 2 -13 9 -24 16 -27 8
-2 12 11 12 47 l0 51 -150 0 -150 0 0 -50z"/>
<path d="M3060 1371 c0 -5 5 -13 10 -16 6 -4 10 -67 10 -156 0 -124 -3 -151
-15 -155 -26 -10 -7 -21 32 -18 50 3 49 2 30 17 -15 11 -17 28 -15 126 l3 114
40 -59 c87 -128 147 -205 158 -201 8 2 13 53 15 166 2 132 5 163 17 167 30 12
14 24 -32 24 -41 -1 -45 -3 -32 -13 13 -10 18 -34 20 -100 2 -48 1 -86 -2 -85
-4 2 -35 46 -70 98 l-64 95 -53 3 c-30 2 -52 -1 -52 -7z"/>
<path d="M3730 1371 c0 -6 5 -13 10 -16 6 -4 10 -67 10 -155 0 -131 -2 -150
-17 -159 -10 -6 -16 -11 -13 -11 3 0 61 -1 130 -2 l125 -2 6 34 c3 19 8 41 10
49 6 22 -19 24 -26 2 -9 -30 -53 -61 -86 -61 l-29 0 0 155 c0 131 2 155 15
155 8 0 15 5 15 10 0 6 -32 10 -75 10 -41 0 -75 -4 -75 -9z"/>
<path d="M300 929 c0 -4 7 -12 15 -19 12 -10 15 -41 15 -157 0 -118 -3 -145
-15 -149 -40 -16 -4 -24 104 -24 114 0 121 1 150 26 57 48 34 134 -42 155 -21
6 -21 6 -2 14 39 15 55 37 55 75 0 41 -29 79 -63 82 -56 5 -217 2 -217 -3z
m184 -55 c14 -53 -13 -104 -53 -104 -16 0 -14 137 2 143 20 7 44 -11 51 -39z
m0 -146 c33 -47 8 -133 -37 -126 -20 3 -22 10 -25 76 -3 71 -2 72 22 72 14 0
31 -9 40 -22z"/>
<path d="M1044 931 c-35 -15 -64 -60 -64 -100 0 -53 20 -83 72 -111 50 -27 88
-58 88 -72 0 -17 -41 -48 -63 -48 -34 0 -58 22 -66 60 -11 55 -31 50 -31 -8 0
-38 4 -52 18 -57 77 -31 127 -27 172 15 26 24 30 35 30 80 0 59 -19 83 -103
132 -54 31 -61 58 -22 84 23 15 27 15 49 1 13 -9 26 -30 30 -47 9 -46 32 -33
28 16 -2 21 -7 42 -11 47 -12 12 -104 18 -127 8z"/>
<path d="M1230 929 c0 -4 7 -12 15 -19 12 -10 15 -41 15 -157 0 -118 -3 -145
-15 -149 -35 -14 -10 -24 60 -24 70 0 95 10 60 24 -12 4 -15 31 -15 149 0 116
3 147 15 157 26 21 17 25 -60 25 -41 0 -75 -3 -75 -6z"/>
<path d="M1414 929 c-2 -4 3 -12 11 -19 22 -18 22 -298 0 -306 -30 -12 -14
-24 30 -24 48 0 55 6 30 24 -13 9 -15 31 -13 121 l3 109 90 -127 c123 -173
125 -172 125 38 0 138 3 167 15 171 26 10 7 21 -32 18 -50 -3 -49 -2 -31 -16
12 -10 17 -35 20 -95 2 -46 0 -83 -3 -83 -3 0 -35 43 -70 95 -34 52 -65 95
-68 96 -50 4 -103 3 -107 -2z"/>
<path d="M1745 932 c-2 -2 5 -12 16 -23 17 -17 18 -33 16 -160 -1 -103 -5
-143 -14 -147 -7 -2 -13 -8 -13 -13 0 -5 58 -9 130 -9 128 0 130 0 136 24 3
13 4 37 2 52 l-3 29 -22 -37 c-21 -36 -25 -38 -73 -38 l-50 0 0 65 0 65 30 0
c23 0 33 -6 40 -25 17 -45 30 -27 30 40 0 67 -13 85 -30 40 -7 -19 -17 -25
-40 -25 l-31 0 3 68 3 67 40 0 c34 0 41 -4 55 -30 8 -16 16 -32 17 -34 1 -1 6
-1 11 3 4 3 6 24 3 48 l-6 42 -123 1 c-68 0 -125 -1 -127 -3z"/>
<path d="M2118 925 c-32 -18 -58 -63 -58 -100 0 -43 27 -78 91 -117 47 -29 59
-42 59 -62 0 -26 -25 -46 -58 -46 -27 0 -62 42 -62 73 0 17 -5 27 -15 27 -11
0 -15 -12 -15 -49 0 -45 2 -49 33 -62 101 -42 187 9 187 111 0 47 -24 76 -103
122 -52 30 -59 54 -27 83 28 25 66 7 78 -36 13 -51 32 -48 32 5 0 24 -4 48
-10 51 -24 15 -106 15 -132 0z"/>
<path d="M2372 920 c-39 -24 -56 -62 -48 -109 7 -42 26 -64 92 -102 63 -36 77
-64 44 -91 -23 -19 -57 -23 -76 -10 -16 11 -34 48 -34 71 0 12 -7 21 -15 21
-11 0 -15 -12 -15 -49 0 -45 2 -49 33 -62 43 -19 110 -16 142 5 15 10 33 34
42 53 28 69 0 122 -94 173 -47 26 -58 43 -43 70 23 44 86 24 97 -30 9 -49 34
-38 29 13 -3 32 -9 45 -27 54 -36 19 -90 16 -127 -7z"/>
<path d="M2837 848 c-20 -51 -45 -119 -57 -150 -11 -31 -30 -68 -40 -81 -27
-34 -26 -37 20 -37 40 0 49 7 30 26 -7 7 -7 21 1 42 10 29 15 32 54 32 39 0
44 -3 54 -32 8 -21 8 -35 1 -42 -21 -21 -8 -26 65 -26 77 0 87 4 59 24 -9 7
-37 84 -63 172 -40 134 -51 159 -68 162 -17 3 -26 -11 -56 -90z m32 -85 c15
-52 15 -53 -19 -53 -34 0 -34 -1 -18 51 14 49 24 49 37 2z"/>
<path d="M3394 929 c-2 -4 3 -9 11 -13 12 -4 15 -32 15 -157 0 -133 -2 -153
-17 -165 -15 -11 -1 -13 93 -14 99 0 115 2 145 23 68 45 99 128 80 210 -23 96
-66 120 -214 121 -60 1 -111 -2 -113 -5z m200 -50 c18 -21 26 -43 27 -72 4
-119 -11 -176 -52 -197 -44 -24 -49 -11 -49 143 0 79 3 147 7 150 15 15 43 5
67 -24z"/>
<path d="M643 912 c14 -15 17 -41 17 -136 0 -131 11 -166 60 -191 57 -29 141
-11 173 38 14 21 17 50 17 147 0 107 2 122 20 140 l20 20 -45 0 -45 0 16 -25
c13 -19 15 -46 12 -136 -3 -102 -5 -112 -27 -130 -33 -27 -66 -24 -90 7 -18
23 -21 41 -21 137 0 89 3 114 17 129 15 17 13 18 -62 18 -75 0 -77 -1 -62 -18z"/>
<path d="M3073 912 c24 -26 26 -299 2 -308 -30 -12 -14 -24 32 -24 l47 0 -22
20 c-20 19 -22 31 -22 125 0 58 4 105 9 105 5 0 17 -12 26 -27 71 -111 159
-223 176 -223 18 0 19 9 19 161 0 142 2 163 18 175 15 12 11 13 -33 13 -44 0
-48 -1 -32 -13 15 -12 17 -27 15 -101 l-3 -87 -66 99 -66 98 -58 3 c-57 3 -59
3 -42 -16z"/>
<path d="M1923 488 c-6 -7 -17 -33 -26 -58 -45 -129 -90 -238 -107 -262 -11
-15 -20 -30 -20 -33 0 -3 18 -5 40 -5 44 0 45 2 29 28 -9 14 -8 26 5 50 14 27
22 32 52 32 31 0 37 -4 50 -36 11 -26 12 -40 5 -47 -19 -19 -12 -22 64 -22 41
0 75 2 75 5 0 3 -8 12 -17 21 -11 8 -37 80 -62 169 -48 167 -62 191 -88 158z
m-9 -145 c2 -10 7 -33 11 -50 6 -32 5 -33 -25 -33 -29 0 -32 3 -26 23 4 12 9
34 12 50 7 31 20 35 28 10z"/>
<path d="M990 482 c0 -4 5 -13 11 -19 7 -7 11 -64 11 -153 0 -89 -4 -146 -11
-153 -20 -20 -11 -24 64 -24 69 -1 96 10 60 23 -11 5 -15 23 -15 75 0 66 1 69
24 69 27 0 56 -24 56 -46 0 -8 5 -14 10 -14 6 0 10 28 10 65 0 37 -4 65 -10
65 -5 0 -10 -7 -10 -15 0 -19 -43 -40 -64 -32 -12 5 -16 22 -16 72 l0 65 41 0
c36 0 42 -3 52 -30 16 -43 27 -37 27 15 l0 45 -120 0 c-66 0 -120 -4 -120 -8z"/>
<path d="M1260 483 c0 -5 7 -17 15 -27 22 -29 22 -278 0 -296 -26 -21 -17 -25
60 -25 71 0 94 8 60 21 -12 5 -15 32 -15 155 0 124 3 151 15 155 35 14 10 24
-60 24 -41 0 -75 -3 -75 -7z"/>
<path d="M1440 481 c0 -5 7 -14 15 -21 12 -10 15 -40 15 -150 0 -110 -3 -140
-15 -150 -26 -21 -17 -30 30 -30 47 0 54 6 30 24 -11 8 -14 37 -15 116 -1 58
-1 109 -1 114 1 5 21 -19 45 -55 116 -167 141 -199 156 -197 12 3 15 30 18
163 2 130 5 162 19 177 15 17 14 18 -30 18 -50 0 -57 -6 -32 -24 13 -9 15 -29
13 -96 l-3 -85 -69 103 -68 102 -54 0 c-30 0 -54 -4 -54 -9z"/>
<path d="M2110 481 c0 -5 7 -11 15 -15 12 -4 15 -31 15 -155 0 -123 -3 -150
-15 -155 -30 -11 -14 -26 30 -26 44 0 60 12 31 23 -11 5 -15 32 -18 116 -2 61
0 111 4 111 4 0 31 -35 60 -77 108 -155 122 -173 140 -173 17 0 18 12 18 162
0 136 3 164 17 180 15 17 14 18 -30 18 -50 0 -57 -6 -32 -24 13 -9 15 -29 13
-96 l-3 -85 -69 103 -69 102 -54 0 c-29 0 -53 -4 -53 -9z"/>
<path d="M2523 468 c-66 -47 -94 -178 -54 -256 31 -61 54 -76 127 -80 64 -4
64 -4 104 36 38 38 50 62 31 62 -5 0 -23 -13 -39 -30 -71 -71 -142 -11 -142
120 0 107 41 164 100 140 22 -9 33 -23 42 -51 6 -22 17 -39 26 -39 12 0 13 10
8 52 -4 29 -9 55 -12 57 -2 2 -39 6 -81 8 -69 4 -82 2 -110 -19z"/>
<path d="M2770 480 c0 -6 7 -13 15 -16 12 -5 15 -31 15 -149 0 -114 -3 -145
-15 -155 -31 -26 -12 -31 118 -28 l132 3 6 43 c7 53 -5 63 -26 22 -16 -32 -45
-44 -91 -38 -29 3 -29 4 -29 68 l0 65 30 0 c22 0 33 -6 40 -22 17 -40 25 -25
25 45 -1 61 -2 65 -15 47 -28 -40 -37 -46 -58 -43 -20 3 -22 9 -22 68 0 61 2
65 24 68 40 6 70 -7 77 -33 3 -14 12 -25 20 -25 15 0 17 12 8 59 l-6 31 -124
0 c-79 0 -124 -4 -124 -10z"/>
</g>
</svg>
